<?xml version="1.0" standalone="no"?><!DOCTYPE svg PUBLIC "-//W3C//DTD SVG 1.1//EN" "http://www.w3.org/Graphics/SVG/1.1/DTD/svg11.dtd"><svg t="1650267601628" class="icon" viewBox="0 0 1024 1024" version="1.1" xmlns="http://www.w3.org/2000/svg" p-id="2656" xmlns:xlink="http://www.w3.org/1999/xlink" width="200" height="200"><defs><style type="text/css">@font-face { font-family: feedback-iconfont; src: url("//at.alicdn.com/t/font_1031158_u69w8yhxdu.woff2?t=1630033759944") format("woff2"), url("//at.alicdn.com/t/font_1031158_u69w8yhxdu.woff?t=1630033759944") format("woff"), url("//at.alicdn.com/t/font_1031158_u69w8yhxdu.ttf?t=1630033759944") format("truetype"); }
</style></defs><path d="M793.6 1024H136.533333C59.733333 1024 0 964.266667 0 887.466667V230.4c0-76.8 59.733333-136.533333 136.533333-136.533333h251.733334c25.6 0 42.666667 17.066667 42.666666 42.666666s-17.066667 42.666667-42.666666 42.666667H136.533333c-29.866667 0-51.2 21.333333-51.2 51.2v657.066667c0 29.866667 21.333333 51.2 51.2 51.2h657.066667c29.866667 0 51.2-21.333333 51.2-51.2v-251.733334c0-25.6 17.066667-42.666667 42.666667-42.666666s42.666667 17.066667 42.666666 42.666666v251.733334c0 76.8-59.733333 136.533333-136.533333 136.533333z" fill="#d81e06" p-id="2657"></path><path d="M512 742.4H324.266667c-25.6 0-42.666667-17.066667-42.666667-42.666667V512c0-12.8 4.266667-21.333333 12.8-29.866667l469.333333-469.333333c17.066667-17.066667 42.666667-17.066667 59.733334 0l187.733333 187.733333c8.533333 8.533333 12.8 17.066667 12.8 29.866667s-4.266667 21.333333-12.8 29.866667l-469.333333 469.333333c-8.533333 8.533333-17.066667 12.8-29.866667 12.8z m-145.066667-85.333333h128l426.666667-426.666667-128-128-426.666667 426.666667v128z" fill="#d81e06" p-id="2658"></path></svg>