<?xml version="1.0" standalone="no"?><!DOCTYPE svg PUBLIC "-//W3C//DTD SVG 1.1//EN" "http://www.w3.org/Graphics/SVG/1.1/DTD/svg11.dtd"><svg t="1638500668787" class="icon" viewBox="0 0 1024 1024" version="1.1" xmlns="http://www.w3.org/2000/svg" p-id="2734" width="48" height="48" xmlns:xlink="http://www.w3.org/1999/xlink"><defs><style type="text/css"></style></defs><path d="M1002.666667 234.666667c0 68.266667-44.8 123.733333-106.666667 142.933333V896c0 23.466667-19.2 42.666667-42.666667 42.666667H170.666667c-23.466667 0-42.666667-19.2-42.666667-42.666667V377.6c-61.866667-19.2-106.666667-74.666667-106.666667-142.933333 0-83.2 66.133333-149.333333 149.333334-149.333334h682.666666c83.2 0 149.333333 66.133333 149.333334 149.333334z m-149.333334 64c36.266667 0 64-27.733333 64-64s-27.733333-64-64-64H170.666667c-34.133333 0-64 27.733333-64 64s27.733333 64 64 64h42.666666c23.466667 0 42.666667 19.2 42.666667 42.666666s-19.2 42.666667-42.666667 42.666667v277.333333h128v-128c0-23.466667 19.2-42.666667 42.666667-42.666666s42.666667 19.2 42.666667 42.666666v128h170.666666v-128c0-23.466667 19.2-42.666667 42.666667-42.666666s42.666667 19.2 42.666667 42.666666v128h128V384c-23.466667 0-42.666667-19.2-42.666667-42.666667s19.2-42.666667 42.666667-42.666666h42.666666zM213.333333 853.333333h597.333334v-106.666666H213.333333v106.666666z" fill="#1D1E22" p-id="2735"></path></svg>