<svg id="社区公告" xmlns="http://www.w3.org/2000/svg" width="211.535" height="167.672" viewBox="0 0 211.535 167.672">
  <path id="路径_10144" data-name="路径 10144" d="M101.539,190.328s-1.084,9.608,3.033,13.831,18.04,5.24,18.874,6.658,14.7,33.016,14.7,33.016c2.275,2.214,18.2-3.154,18.624-8.47,0,0-12.633-26.078-13.24-29.126s4.3-16.182,4.216-22.1Z" transform="translate(-79.679 -77.438)" fill="#e6e7e8"/>
  <path id="路径_10145" data-name="路径 10145" d="M147.528,183.9c.083,5.915-4.823,19.041-4.216,22.1s13.24,29.126,13.24,29.126c-.372,4.474-11.693,8.978-16.629,8.978a2.958,2.958,0,0,1-1.994-.508s-13.862-31.6-14.7-33.016-14.726-2.434-18.874-6.658-3.033-13.831-3.033-13.831l46.256-6.188m0-.758h-.1l-46.256,6.188a.758.758,0,0,0-.66.667c-.045.409-1.069,10.017,3.276,14.446,2.73,2.783,9.2,4.2,13.922,5.232a25.623,25.623,0,0,1,4.861,1.319c.849,1.562,10.821,24.2,14.628,32.895a.918.918,0,0,0,.167.243,3.549,3.549,0,0,0,2.525.72c5.179,0,16.963-4.671,17.388-9.668a.758.758,0,0,0-.076-.394c-3.5-7.234-12.694-26.54-13.179-28.952-.258-1.3.758-5.308,1.782-9.145,1.168-4.55,2.495-9.646,2.449-12.815a.758.758,0,0,0-.758-.743Z" transform="translate(-79.442 -77.194)" fill="#231f20"/>
  <path id="路径_10146" data-name="路径 10146" d="M154.35,192.055A11.9,11.9,0,0,0,152,198.568c-.1,3.67,4.55,11.443,4.55,11.443l10.464-6.772-5.308-12.3Z" transform="translate(-91.906 -79.081)" fill="#fff"/>
  <path id="路径_10147" data-name="路径 10147" d="M156.428,210.253h-.083a.44.44,0,0,1-.243-.174c-.19-.326-4.709-7.909-4.6-11.655a12.133,12.133,0,0,1,2.464-6.718.379.379,0,0,1,.235-.137l7.31-1.13a.379.379,0,0,1,.409.22l5.308,12.3a.387.387,0,0,1-.144.47L156.618,210.2A.379.379,0,0,1,156.428,210.253Zm-1.956-17.964a11.519,11.519,0,0,0-2.214,6.15c-.083,3.094,3.42,9.373,4.3,10.9l9.858-6.377-5.081-11.738Z" transform="translate(-91.785 -78.959)" fill="#231f20"/>
  <path id="路径_10148" data-name="路径 10148" d="M205.366,190.42s-34.768-25.608-55.06-25.782a112.155,112.155,0,0,0-15.34,1.092c-11.989,1.517-24.008,4.231-32.372,4.671-16.592.88-29.1-4.262-29.376-21.589-.243-14.825,6.734-17.646,21.46-21.945,7.28-2.116,21.338-4.4,34.631-8.341,8.1-2.381,15.924-5.361,21.725-9.282,15.348-10.351,26.54-33.585,26.54-33.585Z" transform="translate(-72.863 -51.218)" fill="#fff"/>
  <path id="路径_10149" data-name="路径 10149" d="M205.255,190.726a.4.4,0,0,1-.227-.068,230.064,230.064,0,0,0-19.86-12.815C170.533,169.5,158.453,165,150.226,164.952a109.265,109.265,0,0,0-15.325,1.107c-4.921.629-9.812,1.448-14.544,2.275a172.71,172.71,0,0,1-17.85,2.427c-10.775.576-18.753-1.471-23.682-6.066-3.936-3.67-5.983-9.016-6.066-15.924-.25-15.166,7.28-18.1,21.733-22.317,3.079-.895,7.34-1.812,12.277-2.882,6.878-1.517,14.673-3.162,22.347-5.422,9.479-2.783,16.554-5.809,21.627-9.228,15.083-10.176,26.328-33.206,26.442-33.441a.379.379,0,0,1,.713.076l27.746,114.707a.372.372,0,0,1-.159.4.341.341,0,0,1-.227.061Zm-55.742-26.54h.682c8.485.076,20.368,4.451,35.329,13.012,9.137,5.232,16.683,10.5,19.117,12.254l-27.3-112.736c-2.275,4.444-12.717,23.689-26.229,32.8-5.141,3.473-12.284,6.529-21.831,9.335-7.7,2.275-15.515,3.951-22.408,5.437-4.921,1.062-9.168,1.979-12.224,2.866-14.476,4.224-21.429,6.908-21.187,21.573.114,6.658,2.078,11.822,5.854,15.348,4.777,4.451,12.557,6.43,23.128,5.869a172.851,172.851,0,0,0,17.767-2.419c4.732-.758,9.63-1.615,14.567-2.275a114.918,114.918,0,0,1,14.749-1.084Z" transform="translate(-72.752 -51.121)" fill="#231f20"/>
  <path id="路径_10150" data-name="路径 10150" d="M249.285,188.735c-12.709,2.518-27.3-14.506-36.231-40.258A152.947,152.947,0,0,1,205,107.946c-1.57-27.4,5.407-48.834,18.184-51.374,15.8-3.124,34.457,23.932,41.668,60.421S265.1,185.611,249.285,188.735Z" transform="translate(-104.664 -46.544)" fill="#e6e7e8"/>
  <path id="路径_10151" data-name="路径 10151" d="M225.464,56.088c15.211,0,32.311,26.1,39.143,60.664,7.211,36.5.243,68.618-15.568,71.742a12.844,12.844,0,0,1-2.525.25c-12.072,0-25.335-16.447-33.706-40.508a152.946,152.946,0,0,1-8.053-40.531c-1.57-27.4,5.407-48.834,18.184-51.374a12.838,12.838,0,0,1,2.525-.243m0-.758h0a13.649,13.649,0,0,0-2.669.258C209.9,58.136,202.321,79.095,204,107.751a154.161,154.161,0,0,0,8.091,40.736c8.675,24.918,22.188,41.016,34.427,41.016a13.65,13.65,0,0,0,2.669-.265c7.962-1.57,14.006-10.07,17.016-23.932,2.957-13.649,2.662-30.946-.849-48.7-3.306-16.743-9.175-32.22-16.531-43.564s-15.7-17.714-23.356-17.714Z" transform="translate(-104.419 -46.304)" fill="#231f20"/>
  <path id="路径_10152" data-name="路径 10152" d="M238.822,155.094l-25.7,9.7a152.947,152.947,0,0,1-8.053-40.531l29.119-.432Z" transform="translate(-104.734 -62.86)" fill="#231f20"/>
  <path id="路径_10153" data-name="路径 10153" d="M213,165.063a.41.41,0,0,1-.167,0,.379.379,0,0,1-.2-.22,153.767,153.767,0,0,1-8.068-40.629.379.379,0,0,1,.1-.281.364.364,0,0,1,.273-.121l29.119-.432h0a.379.379,0,0,1,.372.326l4.648,31.234a.387.387,0,0,1-.243.409l-25.706,9.7a.356.356,0,0,1-.129.015Zm-7.651-40.538a152.863,152.863,0,0,0,7.886,39.666l25.024-9.448-4.55-30.635Z" transform="translate(-104.613 -62.752)" fill="#231f20"/>
  <ellipse id="椭圆_172" data-name="椭圆 172" cx="7.355" cy="15.795" rx="7.355" ry="15.795" transform="matrix(0.989, -0.151, 0.151, 0.989, 122.053, 62.111)" fill="#fff"/>
  <path id="路径_10154" data-name="路径 10154" d="M245.726,155.392c-4.095,0-8.19-6.317-9.494-14.863A27.686,27.686,0,0,1,236.687,129c.971-3.306,2.654-5.308,4.755-5.619s4.3,1.077,6.21,3.951a27.6,27.6,0,0,1,3.867,10.866h0c1.372,8.963-.918,16.5-5.2,17.153A3.881,3.881,0,0,1,245.726,155.392Zm-3.7-31.3a2.41,2.41,0,0,0-.47,0c-1.79.265-3.261,2.078-4.14,5.088a26.866,26.866,0,0,0-.432,11.2c1.282,8.4,5.414,14.749,9.221,14.18s5.854-7.886,4.55-16.288a26.79,26.79,0,0,0-3.791-10.563C245.43,125.355,243.678,124.089,242.025,124.089Z" transform="translate(-112.169 -62.74)" fill="#231f20"/>
  <path id="路径_10155" data-name="路径 10155" d="M92.347,185.191a.372.372,0,0,1-.334-.2c-5.429-10.093-6.537-18.3-6.514-23.4a23.528,23.528,0,0,1,1.4-8.811.379.379,0,1,1,.7.3c-.053.121-5.134,12.565,5.088,31.56a.372.372,0,0,1-.159.508.349.349,0,0,1-.174.046Z" transform="translate(-75.833 -69.799)" fill="#d1d3d4"/>
  <path id="路径_10156" data-name="路径 10156" d="M153.485,65.024s-1.221-5.793-.212-5.831,1.812,2.859,1.812,2.859,2.684-5.831,3.329-5.073,1.676,3.124,1.4,3.845-2.184,6.286-2.184,6.286Z" transform="translate(-92.118 -46.686)" fill="#fff"/>
  <path id="路径_10157" data-name="路径 10157" d="M157.507,67.378a.319.319,0,0,1-.167-.038l-4.14-2.093a.4.4,0,0,1-.2-.265c-.25-1.191-1.016-5.156-.334-6.028a.637.637,0,0,1,.478-.258h.038c.857,0,1.517,1.244,1.858,2.207.925-1.918,2.275-4.368,3.033-4.474a.554.554,0,0,1,.508.2c.614.758,1.835,3.245,1.464,4.224-.273.705-2.161,6.218-2.184,6.279a.394.394,0,0,1-.212.227.44.44,0,0,1-.136.023Zm-3.791-2.73,3.587,1.82c.455-1.312,1.82-5.308,2.047-5.892.182-.463-.569-2.457-1.236-3.344a21.689,21.689,0,0,0-2.783,4.861.364.364,0,0,1-.379.212.372.372,0,0,1-.334-.273c-.326-1.175-.955-2.464-1.373-2.571-.25.432-.045,2.753.455,5.187Z" transform="translate(-92 -46.568)" fill="#231f20"/>
  <path id="路径_10158" data-name="路径 10158" d="M113.408,80.851s16.614,1.3,20.057-.591l9.183-13.869,7.173,3.382s-5.012,14.916-9.1,19.268c-6.6,6.984-27.632,3.981-27.632,3.981Z" transform="translate(-82.502 -48.977)" fill="#ff595e"/>
  <path id="路径_10159" data-name="路径 10159" d="M90.554,124.186s-9.1-14.969-9.448-25.441,6.377-11.92,8.705-12.345,14.628-3.564,19.845,1.517,7.219,32.068,7.219,32.068Z" transform="translate(-74.768 -53.488)" fill="#ff595e"/>
  <path id="路径_10160" data-name="路径 10160" d="M127.584,124a95.548,95.548,0,0,1,16.22,6.923c4.55,2.366,10.54,32.326,10.54,32.326s-.3,4.967-6.013,4.868l-18.791-31.985S122.807,124.417,127.584,124Z" transform="translate(-85.591 -62.902)" fill="#231f20"/>
  <path id="路径_10161" data-name="路径 10161" d="M148.38,168.336h-.174a.364.364,0,0,1-.318-.19L129.1,136.208c-.2-.356-4.944-8.682-3.4-11.647a2.04,2.04,0,0,1,1.736-1.092.462.462,0,0,1,.144,0,94.961,94.961,0,0,1,16.288,6.954c1.994,1.031,4.406,6.825,7.173,17.282,2.04,7.712,3.549,15.227,3.564,15.3a.4.4,0,0,1,0,.1C154.6,163.165,154.212,168.336,148.38,168.336Zm-20.944-44.11a1.274,1.274,0,0,0-1.069.682c-1.122,2.161,2.063,8.614,3.39,10.919l18.669,31.75c4.853,0,5.369-3.966,5.422-4.466-1.668-8.341-6.734-30.142-10.336-32.015a98.19,98.19,0,0,0-16.076-6.87Z" transform="translate(-85.474 -62.772)" fill="#231f20"/>
  <path id="路径_10162" data-name="路径 10162" d="M92.27,131.333s21.323-1.9,26.237-3.223c0,0,.288,0,4.762,6.347s2.844,37.816,2.844,37.816-4.224,5.68-8.129,5.4l-8.69-34.662s-7.674,1.137-12.315-1.418C93.718,139.788,93.309,135.17,92.27,131.333Z" transform="translate(-77.47 -63.895)" fill="#231f20"/>
  <path id="路径_10163" data-name="路径 10163" d="M118.144,177.958h-.311a.372.372,0,0,1-.341-.288l-8.607-34.336c-1.562.19-8.015.8-12.209-1.517-2.806-1.517-3.594-4.974-4.36-8.288-.167-.758-.341-1.517-.531-2.2a.372.372,0,0,1,.053-.318.394.394,0,0,1,.273-.159c.212,0,21.354-1.911,26.176-3.215a.387.387,0,0,1,.136,0c.182,0,.463.046,5.027,6.506s2.988,36.762,2.919,38.051a.394.394,0,0,1-.076.2C126.121,172.65,122.117,177.958,118.144,177.958Zm-8.971-35.435a.379.379,0,0,1,.372.288l8.614,34.389c3.321,0,6.923-4.482,7.462-5.172.1-2.116,1.426-31.507-2.783-37.46-3.246-4.588-4.262-5.824-4.55-6.15-4.861,1.221-22.514,2.859-25.646,3.147.152.584.288,1.183.432,1.79.758,3.155,1.517,6.415,3.981,7.8,4.474,2.464,12,1.388,12.08,1.373Z" transform="translate(-77.349 -63.779)" fill="#231f20"/>
  <path id="路径_10164" data-name="路径 10164" d="M99.339,71.777c-.379-.076-.834-3.033-.91-3.352a13.331,13.331,0,0,1-.455-5.232,6.665,6.665,0,0,1,.895-2.988,2.32,2.32,0,0,1,2.722-.986,1.9,1.9,0,0,0,.925.349,1.35,1.35,0,0,0,.645-.349,7.522,7.522,0,0,1,5.687-1.638,5.551,5.551,0,0,1,4.451,3.67c-.076-.4.493-.675.864-.493a1.615,1.615,0,0,1,.682.978,5.247,5.247,0,0,1,.212,3.564c-.493,1.206-1.812,1.259-3.033,1.259C108.544,66.575,103.062,72.55,99.339,71.777Z" transform="translate(-78.828 -46.834)" fill="#fff"/>
  <path id="路径_10165" data-name="路径 10165" d="M99.923,72.1a3.791,3.791,0,0,1-.758-.076h0c-.417-.083-.652-.591-1.13-3.245a1.3,1.3,0,0,0-.076-.394,13.756,13.756,0,0,1-.447-5.361,7.1,7.1,0,0,1,.963-3.147,2.669,2.669,0,0,1,3.177-1.115,2.115,2.115,0,0,1,.258.136,1,1,0,0,0,.47.174,1.107,1.107,0,0,0,.425-.25,7.886,7.886,0,0,1,6-1.736,6.066,6.066,0,0,1,4.489,3.245,1.062,1.062,0,0,1,.933,0,1.9,1.9,0,0,1,.88,1.2,5.452,5.452,0,0,1,.2,3.814c-.614,1.517-2.275,1.517-3.359,1.517-1.517,0-3.534,1.259-5.505,2.48C104.223,70.656,101.925,72.1,99.923,72.1Zm-.523-.758c1.865.318,4.3-1.191,6.658-2.646,2.146-1.335,4.178-2.586,5.892-2.593,1.228,0,2.275-.083,2.662-1.024a4.845,4.845,0,0,0-.22-3.291,1.282,1.282,0,0,0-.493-.758.288.288,0,0,0-.235,0,.159.159,0,0,0-.091.068.387.387,0,0,1-.288.44.379.379,0,0,1-.447-.258,5.141,5.141,0,0,0-4.148-3.412,7.06,7.06,0,0,0-5.391,1.57,1.638,1.638,0,0,1-.849.417,1.517,1.517,0,0,1-.9-.265l-.212-.114a1.956,1.956,0,0,0-2.275.857,6.582,6.582,0,0,0-.834,2.828,13,13,0,0,0,.44,5.081,1.209,1.209,0,0,0,.076.432,13.08,13.08,0,0,0,.637,2.631ZM99.309,71.346Z" transform="translate(-78.715 -46.714)" fill="#231f20"/>
  <path id="路径_10166" data-name="路径 10166" d="M110.89,79.146l-.258,5.642a4.148,4.148,0,0,1-5.119,1.934c-3.647-1.115-3.973-3.791-3.973-3.791l.652-10.442s3.086-1.638,4.019-8.121c0,0,8.053-.334,7.886,2.722,0,0,.758,5.627.235,8.478A4.84,4.84,0,0,1,110.89,79.146Z" transform="translate(-79.71 -48.485)" fill="#fff"/>
  <path id="路径_10167" data-name="路径 10167" d="M106.924,87.225a5.627,5.627,0,0,1-1.638-.258c-3.845-1.175-4.231-3.989-4.246-4.1l.652-10.51a.372.372,0,0,1,.2-.311s2.927-1.661,3.791-7.841a.387.387,0,0,1,.364-.326c.235,0,5.877-.227,7.689,1.615a1.911,1.911,0,0,1,.591,1.517c0,.167.758,5.649.227,8.538a5.081,5.081,0,0,1-3.443,3.791l-.258,5.384a.439.439,0,0,1,0,.144,4.55,4.55,0,0,1-3.936,2.358ZM102.435,72.6l-.667,10.245s.356,2.373,3.708,3.4a3.731,3.731,0,0,0,4.626-1.668l.258-5.558a.4.4,0,0,1,.159-.3.759.759,0,0,1,.159-.068,4.451,4.451,0,0,0,3.132-3.261c.508-2.76-.227-8.341-.235-8.341a1.244,1.244,0,0,0-.379-1c-1.228-1.244-5.081-1.433-6.825-1.4C105.559,70.141,103.14,72.127,102.435,72.6Zm8.076,12.072Z" transform="translate(-79.589 -48.367)" fill="#231f20"/>
  <path id="路径_10168" data-name="路径 10168" d="M103.88,74.27a2.518,2.518,0,0,0-.758-1.342,4.246,4.246,0,0,0-1.259-.758,1.767,1.767,0,0,0-.758-.19,1.342,1.342,0,0,0-.538.159,1.865,1.865,0,0,0-.948.887,2.154,2.154,0,0,0-.106,1.054,4.436,4.436,0,0,0,.212,1.137,2.935,2.935,0,0,0,3.791,1.759" transform="translate(-79.214 -50.328)" fill="#fff"/>
  <path id="路径_10169" data-name="路径 10169" d="M102.367,77.487a3.306,3.306,0,0,1-1.4-.3A3.382,3.382,0,0,1,99.243,75.3a4.838,4.838,0,0,1-.25-1.236,2.6,2.6,0,0,1,.136-1.236,2.275,2.275,0,0,1,1.13-1.077,1.873,1.873,0,0,1,.682-.2,2.138,2.138,0,0,1,.94.212,4.641,4.641,0,0,1,1.365.8,2.8,2.8,0,0,1,.864,1.517.379.379,0,0,1-.3.44.387.387,0,0,1-.447-.3,2,2,0,0,0-.622-1.13,4.057,4.057,0,0,0-1.153-.652,1.441,1.441,0,0,0-.6-.159,1.092,1.092,0,0,0-.394.121,1.517,1.517,0,0,0-.758.69,1.881,1.881,0,0,0-.083.88,3.928,3.928,0,0,0,.2,1.039,2.578,2.578,0,0,0,1.312,1.486,2.609,2.609,0,0,0,1.972.076.379.379,0,0,1,.485.22.372.372,0,0,1-.22.485A3.207,3.207,0,0,1,102.367,77.487Z" transform="translate(-79.089 -50.224)" fill="#231f20"/>
  <path id="路径_10170" data-name="路径 10170" d="M111.576,72.28s1.873,2.942,1.4,3.435-1.759.129-1.759.129" transform="translate(-82.05 -50.401)" fill="#fff"/>
  <path id="路径_10171" data-name="路径 10171" d="M112.006,76.244A3.829,3.829,0,0,1,111,76.092a.393.393,0,1,1,.2-.758c.432.121,1.168.2,1.38,0a10.131,10.131,0,0,0-1.448-2.965.379.379,0,0,1,.637-.409c1.35,2.123,1.8,3.435,1.357,3.905A1.517,1.517,0,0,1,112.006,76.244Z" transform="translate(-81.926 -50.285)" fill="#231f20"/>
  <ellipse id="椭圆_173" data-name="椭圆 173" cx="0.478" cy="0.675" rx="0.478" ry="0.675" transform="translate(26.74 20.442) rotate(-1.146)" fill="#231f20"/>
  <ellipse id="椭圆_174" data-name="椭圆 174" cx="0.478" cy="0.675" rx="0.478" ry="0.675" transform="translate(30.673 20.949) rotate(-1.35)" fill="#231f20"/>
  <path id="路径_10172" data-name="路径 10172" d="M110.218,79.875a3.648,3.648,0,0,1-1.4-.258,3.875,3.875,0,0,1-2.2-2.775.393.393,0,1,1,.758-.2,3.185,3.185,0,0,0,1.752,2.275c1.691.682,3.867-.569,3.89-.584a.379.379,0,0,1,.516.136.387.387,0,0,1-.137.523A7.029,7.029,0,0,1,110.218,79.875Z" transform="translate(-80.934 -51.384)" fill="#231f20"/>
  <path id="路径_10173" data-name="路径 10173" d="M112.1,83.659s-3.541.645-5.558-.629c0,0,2.07,4.838,5.384,4.5Z" transform="translate(-80.919 -52.999)" fill="#231f20"/>
  <path id="路径_10174" data-name="路径 10174" d="M111.462,87.8c-3.321,0-5.308-4.55-5.391-4.747a.372.372,0,0,1,.106-.432.364.364,0,0,1,.447,0c1.865,1.183,5.255.584,5.308.576a.372.372,0,0,1,.318.083.364.364,0,0,1,.129.3l-.182,3.867a.379.379,0,0,1-.334.364Zm-4.2-4.087c.758,1.251,2.214,3.306,4.178,3.329l.144-3.033A10.616,10.616,0,0,1,107.261,83.717Z" transform="translate(-80.798 -52.883)" fill="#231f20"/>
  <path id="路径_10175" data-name="路径 10175" d="M83.045,89.51c-5.5,3.155-12.618,30.21-8.341,32.8,6.734,4.027,27.64-3.329,27.64-3.329L99.636,110.9s-13.763,2.017-14.294-.758,6.142-16.91,4.83-18.737S83.045,89.51,83.045,89.51Z" transform="translate(-72.908 -54.565)" fill="#ff595e"/>
  <path id="路径_10176" data-name="路径 10176" d="M106.5,120.859a31.954,31.954,0,0,0,6.825-1.153,21.164,21.164,0,0,1,5.065-1.191,19.413,19.413,0,0,1,6.825.758.47.47,0,0,1,.235.121c.235.258-.212.591-.561.645a9.206,9.206,0,0,1-2.737,0,25.919,25.919,0,0,1,6.491,2.525c.235.129.5.341.425.591s-.523.265-.819.174l-5.2-1.676a12.474,12.474,0,0,1,3.754,1.714c.167.114.349.265.334.463,0,.341-.538.341-.857.22a29.329,29.329,0,0,1-4.6-2.108L125,123.915c.068.25-.174.493-.425.531a1.388,1.388,0,0,1-.758-.167l-3.632-1.615,2.275,1.236c.356.2.758.523.66.918s-.8.4-1.266.258a26.078,26.078,0,0,0-5.657-1.031,9.1,9.1,0,0,0-2.07-.174,18.45,18.45,0,0,0-3.033,1.039l-4.482,1.608" transform="translate(-80.909 -61.565)" fill="#fff"/>
  <path id="路径_10177" data-name="路径 10177" d="M106.555,126.734a.349.349,0,0,1-.114-.675l4.482-1.608c.3-.1.6-.227.9-.349A9.858,9.858,0,0,1,114,123.4a4.83,4.83,0,0,1,1.517.076,6.421,6.421,0,0,0,.667.091,25.524,25.524,0,0,1,5.733,1.054,1.206,1.206,0,0,0,.758,0,.137.137,0,0,0,.061-.068c0-.129-.167-.334-.5-.516l-2.275-1.236a.346.346,0,0,1,.3-.622l3.632,1.562a1.168,1.168,0,0,0,.538.144h.068l-3.094-1.835a.341.341,0,0,1-.121-.47.349.349,0,0,1,.47-.129,28.587,28.587,0,0,0,4.55,2.085.811.811,0,0,0,.379.046l-.159-.114a12.336,12.336,0,0,0-2.51-1.3l-1.16-.372a.349.349,0,0,1-.227-.425.356.356,0,0,1,.425-.243c.4.114.8.243,1.191.387l4.027,1.3a.758.758,0,0,0,.4,0,2.59,2.59,0,0,0-.281-.167,25.555,25.555,0,0,0-6.408-2.495.341.341,0,0,1-.258-.4.349.349,0,0,1,.394-.273,8.8,8.8,0,0,0,2.639,0,.577.577,0,0,0,.243-.091,18.874,18.874,0,0,0-6.643-.713,18.237,18.237,0,0,0-4.368.993l-.614.19a32.5,32.5,0,0,1-6.9,1.16.356.356,0,0,1-.379-.318.349.349,0,0,1,.318-.372,31.766,31.766,0,0,0,6.756-1.13l.607-.19a18.427,18.427,0,0,1,4.55-1.024,19.67,19.67,0,0,1,6.916.758.857.857,0,0,1,.4.22.569.569,0,0,1,.121.591,1.16,1.16,0,0,1-.887.629h-.227A26.03,26.03,0,0,1,128.75,122c.69.379.645.827.591,1a.66.66,0,0,1-.326.387,1.35,1.35,0,0,1-.933,0l-.8-.258a.682.682,0,0,1,.136.47.607.607,0,0,1-.288.47,1.228,1.228,0,0,1-1.031,0q-.394-.137-.758-.3a.758.758,0,0,1-.121.311.88.88,0,0,1-.607.394,1.661,1.661,0,0,1-.918-.19l-.2-.083a.827.827,0,0,1,0,.455.8.8,0,0,1-.4.485,1.865,1.865,0,0,1-1.3,0,25.479,25.479,0,0,0-5.573-1.024,5.786,5.786,0,0,1-.758-.1,4.315,4.315,0,0,0-1.274-.076,9.623,9.623,0,0,0-2.017.66c-.318.136-.629.258-.933.372-1.517.523-3.033,1.062-4.482,1.6a.341.341,0,0,1-.2.152Z" transform="translate(-80.812 -61.434)" fill="#231f20"/>
  <path id="路径_10178" data-name="路径 10178" d="M121.71,93.87c.857.682,3.6,16.129,4.982,21.786" transform="translate(-84.585 -55.619)" fill="#fff"/>
  <path id="路径_10179" data-name="路径 10179" d="M126.567,115.886a.349.349,0,0,1-.341-.265c-.493-2.04-1.168-5.308-1.873-8.8-1.054-5.164-2.487-12.231-3.033-12.808a.334.334,0,0,1-.045-.478.356.356,0,0,1,.493-.053c.576.463,1.471,4.55,3.23,13.2.705,3.465,1.373,6.741,1.865,8.773a.349.349,0,0,1-.25.417Z" transform="translate(-84.461 -55.508)" fill="#231f20"/>
  <path id="路径_10180" data-name="路径 10180" d="M150,127.27l-.068,2.313L119.02,137.9l.258-2.411Z" transform="translate(-83.935 -63.692)" fill="#fff"/>
  <path id="路径_10181" data-name="路径 10181" d="M118.881,138.16a.372.372,0,0,1-.243-.091.364.364,0,0,1-.129-.326l.25-2.411a.372.372,0,0,1,.281-.326l30.719-8.22a.379.379,0,0,1,.334.068.364.364,0,0,1,.144.311l-.068,2.275a.387.387,0,0,1-.281.356l-30.908,8.341a.2.2,0,0,1-.1.023Zm.607-2.487-.167,1.6,30.1-8.1.045-1.517Z" transform="translate(-83.811 -63.572)" fill="#231f20"/>
  <path id="路径_10182" data-name="路径 10182" d="M147.1,125.609s-7.879-5.308-8.114-5.209-31.939,7.742-31.939,7.742l9.335,5.687Z" transform="translate(-81.042 -62.031)" fill="#fff"/>
  <path id="路径_10183" data-name="路径 10183" d="M116.265,134.08a.364.364,0,0,1-.2-.053l-9.335-5.718a.394.394,0,0,1-.174-.387.379.379,0,0,1,.281-.311c10.844-2.616,31.462-7.583,31.917-7.727.2-.076.387-.152,8.44,5.247a.379.379,0,0,1-.114.682l-30.719,8.258Zm-8.341-5.915,8.417,5.134,29.756-7.97c-2.737-1.827-6.552-4.33-7.227-4.664-1.972.5-23,5.581-30.961,7.5Z" transform="translate(-80.922 -61.902)" fill="#231f20"/>
  <path id="路径_10184" data-name="路径 10184" d="M116.127,138.709l-9.016-5.9-.061-2.2,9.335,5.687Z" transform="translate(-81.042 -64.499)" fill="#fff"/>
  <path id="路径_10185" data-name="路径 10185" d="M115.986,138.968a.4.4,0,0,1-.2-.061l-9.016-5.9a.387.387,0,0,1-.174-.311l-.061-2.2a.379.379,0,0,1,.19-.334.394.394,0,0,1,.387,0l9.335,5.695a.372.372,0,0,1,.182.364l-.258,2.4a.364.364,0,0,1-.212.3.319.319,0,0,1-.167.038Zm-8.645-6.491,8.341,5.452.167-1.517-8.531-5.2Z" transform="translate(-80.916 -64.379)" fill="#231f20"/>
  <path id="路径_10186" data-name="路径 10186" d="M150.079,120.589l3.647-20.959-32.478,9.57-1.888,19.609Z" transform="translate(-84.017 -57.011)" fill="#fff"/>
  <path id="路径_10187" data-name="路径 10187" d="M119.239,129.067a.372.372,0,0,1-.379-.409l1.888-19.617a.372.372,0,0,1,.273-.326l32.478-9.57a.372.372,0,0,1,.356.076.379.379,0,0,1,.121.349l-3.647,20.967a.364.364,0,0,1-.273.3l-30.719,8.227Zm2.275-19.716L119.7,128.165l29.953-8.015,3.5-20.125Zm28.474,11.1Z" transform="translate(-83.896 -56.89)" fill="#231f20"/>
  <path id="路径_10188" data-name="路径 10188" d="M95.956,124.26a.372.372,0,0,1-.364-.273.379.379,0,0,1,.258-.47l6.271-1.858-.675-7.4-12.239.182a.372.372,0,0,1-.288-.129.379.379,0,0,1-.091-.311l3.2-19.291a.379.379,0,0,1,.44-.311.387.387,0,0,1,.281.455L89.625,113.7l12.133-.182h0a.372.372,0,0,1,.372.341l.758,8.061a.379.379,0,0,1-.265.394l-6.574,1.949Z" transform="translate(-76.637 -55.745)" fill="#231f20"/>
  <path id="路径_10189" data-name="路径 10189" d="M159.71,167.717c.493-.576,1.016-1.122,1.562-1.646,1.191-1.137,3.791-2.9,4.891-.7.66,1.365.121,3.352-.258,4.724a18.275,18.275,0,0,1-3.905,7.12c-1.577,1.812-6.961,4.792-7.09.273a6.688,6.688,0,0,1,.493-2.389A23.613,23.613,0,0,1,159.71,167.717Z" transform="translate(-92.61 -72.647)" fill="#fff"/>
  <path id="路径_10190" data-name="路径 10190" d="M156.8,180.112a2.532,2.532,0,0,1-.872-.144c-.645-.227-1.418-.864-1.464-2.571a6.825,6.825,0,0,1,.508-2.525,23.666,23.666,0,0,1,4.375-7.492h0c.493-.576,1.024-1.137,1.577-1.668.372-.356,2.32-2.108,3.958-1.812a2.04,2.04,0,0,1,1.517,1.213c.758,1.517.152,3.587-.227,4.974a18.692,18.692,0,0,1-3.989,7.249C161.209,178.421,158.706,180.112,156.8,180.112Zm7.7-15.553a5.411,5.411,0,0,0-3.1,1.653,21.726,21.726,0,0,0-1.517,1.615h0a23.06,23.06,0,0,0-4.246,7.28,6.317,6.317,0,0,0-.47,2.275c0,1.062.372,1.714,1.009,1.941,1.456.523,4.322-1.115,5.467-2.434a17.827,17.827,0,0,0,3.837-6.984c.356-1.282.887-3.23.281-4.482a1.365,1.365,0,0,0-.986-.834A1.514,1.514,0,0,0,164.5,164.559Zm-4.9,3.033Z" transform="translate(-92.501 -72.537)" fill="#231f20"/>
  <path id="路径_10191" data-name="路径 10191" d="M133.809,174.9a2.093,2.093,0,0,1,1.282-.531,1.714,1.714,0,0,1,.834.341,3.905,3.905,0,0,1,1.441,3.033,9.79,9.79,0,0,1-.675,3.4c-1.153,3.359-2.866,6.688-5.74,8.781a5.725,5.725,0,0,1-1.7.9c-5.354,1.615-3.731-4.049-2.677-6.665a21.354,21.354,0,0,1,7.234-9.266Z" transform="translate(-85.5 -75.076)" fill="#fff"/>
  <path id="路径_10192" data-name="路径 10192" d="M127.489,191.368a2.275,2.275,0,0,1-1.8-.69c-1.426-1.555-.159-5.225.455-6.734a21.824,21.824,0,0,1,7.348-9.433,2.419,2.419,0,0,1,1.517-.591,1.918,1.918,0,0,1,1.024.4,4.254,4.254,0,0,1,1.577,3.321,10.131,10.131,0,0,1-.69,3.526c-1.441,4.193-3.359,7.128-5.862,8.948a6.067,6.067,0,0,1-1.8.955A6.21,6.21,0,0,1,127.489,191.368Zm7.431-16.758a1.9,1.9,0,0,0-1.016.463h0a21.118,21.118,0,0,0-7.12,9.1c-.9,2.229-1.517,4.982-.584,6.013.5.546,1.456.614,2.844.2a5.438,5.438,0,0,0,1.592-.857c2.389-1.737,4.224-4.55,5.619-8.614a9.244,9.244,0,0,0,.652-3.283,3.541,3.541,0,0,0-1.3-2.775,1.274,1.274,0,0,0-.652-.273Zm-1.221.182Z" transform="translate(-85.39 -74.967)" fill="#231f20"/>
  <path id="路径_10193" data-name="路径 10193" d="M136.04,149.042a.372.372,0,0,1-.372-.372c0-.053-.121-5.505-1.335-8.341a.379.379,0,1,1,.69-.3c1.274,2.942,1.4,8.341,1.4,8.591a.379.379,0,0,1-.372.387Z" transform="translate(-87.624 -66.711)" fill="#fff"/>
  <path id="路径_10194" data-name="路径 10194" d="M100.723,94.51l-2.275.66.667,1.517s-4.375,6.423-20.216,5.505l-4.709,3.541,4.353,2.457s14.279.758,21.756-11.283l1.41-.394Z" transform="translate(-73.1 -55.774)" fill="#231f20"/>
  <rect id="矩形_3338" data-name="矩形 3338" width="29.786" height="20.808" transform="translate(151.279 7.646) rotate(-14.1)" fill="#fff"/>
  <path id="路径_10195" data-name="路径 10195" d="M277.194,71.623a.394.394,0,0,1-.19-.053.364.364,0,0,1-.174-.235l-5.073-20.178a.387.387,0,0,1,.281-.463l28.883-7.257a.387.387,0,0,1,.463.281L306.456,63.9a.371.371,0,0,1-.046.281.364.364,0,0,1-.235.174l-28.884,7.257Zm-4.6-20.284,4.883,19.443,28.148-7.075-4.868-19.443Z" transform="translate(-120.85 -43.427)" fill="#d1d3d4"/>
  <path id="路径_10196" data-name="路径 10196" d="M278.811,74.576a.326.326,0,0,1-.144,0,.387.387,0,0,1-.2-.493l7.545-18.2a.379.379,0,0,1,.25-.22.341.341,0,0,1,.319.053l11.587,8.341a.38.38,0,0,1-.447.614l-11.192-8.114-7.355,17.782a.387.387,0,0,1-.356.235Z" transform="translate(-122.467 -46.38)" fill="#d1d3d4"/>
  <path id="路径_10197" data-name="路径 10197" d="M299.878,61.829a.432.432,0,0,1-.136,0,.379.379,0,0,1-.22-.493l2.942-7.833a.341.341,0,0,1,.235-.22.364.364,0,0,1,.319.038l8.045,5.05a.372.372,0,0,1,.121.523.379.379,0,0,1-.523.114l-7.674-4.823L300.2,61.579a.372.372,0,0,1-.326.25Z" transform="translate(-127.557 -45.804)" fill="#d1d3d4"/>
  <path id="路径_10198" data-name="路径 10198" d="M297.114,54.254a2.221,2.221,0,1,1,1.145-4.125,2.2,2.2,0,0,1,1.009,1.365h0a2.214,2.214,0,0,1-1.608,2.692,2.274,2.274,0,0,1-.546.068Zm0-3.685a1.4,1.4,0,0,0-.356.045,1.517,1.517,0,0,0-.9.667,1.448,1.448,0,0,0-.159,1.107,1.464,1.464,0,0,0,1.767,1.062,1.517,1.517,0,0,0,.9-.667,1.448,1.448,0,0,0,.159-1.107h0a1.4,1.4,0,0,0-.667-.895,1.456,1.456,0,0,0-.736-.212Z" transform="translate(-126.446 -44.97)" fill="#d1d3d4"/>
  <ellipse id="椭圆_175" data-name="椭圆 175" cx="11.268" cy="11.268" rx="11.268" ry="11.268" transform="translate(169.038 108.75)" fill="#fff"/>
  <path id="路径_10199" data-name="路径 10199" d="M308.087,186.254l1.312.22a1.073,1.073,0,0,0,.136.061,11.056,11.056,0,0,1,5.217,2.8,11.481,11.481,0,0,1,3.359,11.776,10.988,10.988,0,0,1-4.3,6.279,11.5,11.5,0,0,1-10.184,1.911,10.965,10.965,0,0,1-4.868-2.737A11.64,11.64,0,0,1,295,197.719a9.25,9.25,0,0,1,.038-1.024l.22-1.312a.97.97,0,0,1,.083-.235c.152-.485.273-.978.455-1.441a11.648,11.648,0,0,1,4.982-5.862,11.488,11.488,0,0,1,6.241-1.638C307.39,186.216,307.738,186.239,308.087,186.254Zm6.12,19.6a10.783,10.783,0,0,0,3.162-5.634l-4.6-.758c-.212.811-.394,1.615-.637,2.4s-.546,1.517-.8,2.275Zm-18.161-9.191a10.775,10.775,0,0,0,1.16,6.362l3.306-.69a21.709,21.709,0,0,1,.167-4.9Zm21.46,2.631c.379-1.7-.3-5.308-1.16-6.347l-3.291.682a21.622,21.622,0,0,1-.159,4.891Zm-15.234-7.469-2.9-1.721c-1.319,1-3.117,4.186-3.147,5.627l4.61.758a21.6,21.6,0,0,1,1.433-4.679Zm4.2,10.859c.682.167,1.335.311,1.979.5s1.3.409,1.949.622l.091-.174a20.307,20.307,0,0,0,1.266-4.11c0-.19,0-.25-.19-.281l-4.186-.69a1.818,1.818,0,0,0-.212,0Zm-4.861-5.1a19.466,19.466,0,0,0-.152,4.679l4.072.22.69-4.125Zm10.343.758a19.764,19.764,0,0,0,.159-4.671l-4.095-.212-.682,4.11Zm-8.811-6.173a19.558,19.558,0,0,0-1.372,4.466l4.618.758.69-4.11Zm8.842.5a10.457,10.457,0,0,0-.895-3.071,4.716,4.716,0,0,0-1.312-1.744,8.4,8.4,0,0,0-.758-.47l-.849,5.081a20.564,20.564,0,0,0,3.814.2Zm-5.664,10.95-.842,5.027a2.935,2.935,0,0,0,1.608-.523,8.189,8.189,0,0,0,2.457-2.692c.152-.243.288-.493.44-.758A20.146,20.146,0,0,0,306.32,203.627Zm-1.79,4.883.842-5.043a19.968,19.968,0,0,0-3.792-.2c.137.569.243,1.115.394,1.646a6.825,6.825,0,0,0,1.3,2.631,3.071,3.071,0,0,0,1.251.963Zm-.993-17.259a21.036,21.036,0,0,0,3.7,1.062l.849-5.043a2.775,2.775,0,0,0-1.145.288,5.786,5.786,0,0,0-2.131,1.812c-.447.591-.834,1.228-1.274,1.881Zm9.858,15.272a13.087,13.087,0,0,0-2.548-1.479,10.926,10.926,0,0,1-2.95,3.685,10.9,10.9,0,0,0,5.52-2.207Zm-7.78-19.276a10.163,10.163,0,0,0-5.482,2.237l2.495,1.441c.463-.705.872-1.365,1.319-2A7.764,7.764,0,0,1,305.615,187.247Zm-7.9,16.682a10.973,10.973,0,0,0,4.512,3.9,10.692,10.692,0,0,1-1.608-4.474,13.232,13.232,0,0,0-2.889.546Zm13.649-15.682a8.7,8.7,0,0,1,.986,2.123c.212.758.394,1.517.591,2.275a13.786,13.786,0,0,0,2.851-.576,10.488,10.488,0,0,0-4.383-3.852Z" transform="translate(-126.469 -77.937)" fill="#d1d3d4"/>
  <rect id="矩形_3339" data-name="矩形 3339" width="18.791" height="12.906" rx="3.39" transform="translate(146.357 46.434) rotate(-10.23)" fill="#fff"/>
  <path id="路径_10200" data-name="路径 10200" d="M270.13,116.291a2.957,2.957,0,0,1-2.9-2.427l-1.38-7.636a2.973,2.973,0,0,1,2.381-3.435l13.429-2.419a2.942,2.942,0,0,1,3.427,2.381l1.38,7.636a2.972,2.972,0,0,1-2.381,3.435h0l-13.429,2.419A3.034,3.034,0,0,1,270.13,116.291Zm12.049-15.166a2.365,2.365,0,0,0-.394,0l-13.422,2.427A2.191,2.191,0,0,0,266.6,106.1l1.372,7.628a2.169,2.169,0,0,0,.91,1.41,2.138,2.138,0,0,0,1.638.356l13.429-2.419a2.191,2.191,0,0,0,1.767-2.548l-1.372-7.636a2.275,2.275,0,0,0-.91-1.418,2.176,2.176,0,0,0-1.251-.387Zm1.835,12.36Z" transform="translate(-119.413 -57.18)" fill="#d1d3d4"/>
  <path id="路径_10201" data-name="路径 10201" d="M275.75,114.488a.326.326,0,0,1-.144,0,.364.364,0,0,1-.227-.281l-1.38-7.78a.379.379,0,0,1,.121-.349.364.364,0,0,1,.356-.083l8.622,2.434a.372.372,0,0,1,.121.667l-7.28,5.308A.341.341,0,0,1,275.75,114.488Zm-.918-7.583,1.183,6.552,6.157-4.5Z" transform="translate(-121.393 -58.546)" fill="#d1d3d4"/>
  <rect id="矩形_3340" data-name="矩形 3340" width="27.966" height="15.409" transform="translate(142.755 79.646)" fill="#fff"/>
  <path id="路径_10202" data-name="路径 10202" d="M288.86,164.127H260.879a.387.387,0,0,1-.379-.379V148.339a.379.379,0,0,1,.379-.379H288.86a.379.379,0,0,1,.379.379v15.409a.387.387,0,0,1-.379.379Zm-27.594-.758h27.215v-14.62H261.266Z" transform="translate(-118.132 -68.693)" fill="#d1d3d4"/>
  <path id="路径_10203" data-name="路径 10203" d="M274.88,158.314a.356.356,0,0,1-.212-.068l-13.991-9.608a.382.382,0,1,1,.432-.629l13.771,9.471,13.763-9.5a.382.382,0,0,1,.432.629l-13.983,9.608A.356.356,0,0,1,274.88,158.314Z" transform="translate(-118.134 -68.681)" fill="#d1d3d4"/>
  <path id="路径_10204" data-name="路径 10204" d="M260.88,166.581a.394.394,0,0,1-.311-.167.387.387,0,0,1,.1-.531l11.208-7.7a.387.387,0,0,1,.531.1.394.394,0,0,1-.1.531l-11.2,7.7A.4.4,0,0,1,260.88,166.581Z" transform="translate(-118.132 -71.147)" fill="#d1d3d4"/>
  <path id="路径_10205" data-name="路径 10205" d="M294.2,166.573a.387.387,0,0,1-.212-.068l-11.2-7.727a.382.382,0,0,1,.432-.629l11.2,7.7a.387.387,0,0,1,.1.531A.394.394,0,0,1,294.2,166.573Z" transform="translate(-123.478 -71.139)" fill="#d1d3d4"/>
  <path id="路径_10206" data-name="路径 10206" d="M337,144.822l-15.439-1.9,2.973-24.129,19.5,2.4-2.389,19.374Z" transform="translate(-132.89 -61.642)" fill="#fff"/>
  <path id="路径_10207" data-name="路径 10207" d="M336.877,145.08h-.053l-15.431-1.911a.379.379,0,0,1-.334-.417l2.988-24.129a.379.379,0,0,1,.425-.334l19.5,2.4a.372.372,0,0,1,.258.144.394.394,0,0,1,.076.281l-2.389,19.367a.356.356,0,0,1-.121.235l-4.648,4.254A.356.356,0,0,1,336.877,145.08Zm-15.014-2.616,14.885,1.835,4.413-4.042,2.32-18.859-18.745-2.275Z" transform="translate(-132.768 -61.52)" fill="#d1d3d4"/>
  <line id="直线_1" data-name="直线 1" x2="13.141" y2="1.623" transform="translate(194.562 61.387)" fill="#fff"/>
  <path id="路径_10208" data-name="路径 10208" d="M342.352,126.245h-.046l-13.141-1.615a.379.379,0,0,1-.326-.425.364.364,0,0,1,.417-.326l13.141,1.608a.38.38,0,1,1-.046.758Z" transform="translate(-134.649 -62.871)" fill="#d1d3d4"/>
  <line id="直线_2" data-name="直线 2" x2="13.141" y2="1.615" transform="translate(194.084 65.277)" fill="#fff"/>
  <path id="路径_10209" data-name="路径 10209" d="M341.7,131.38h0l-13.164-1.623a.382.382,0,1,1,.091-.758l13.141,1.623a.38.38,0,0,1-.046.758Z" transform="translate(-134.494 -64.109)" fill="#d1d3d4"/>
  <line id="直线_3" data-name="直线 3" x2="13.134" y2="1.623" transform="translate(193.607 69.159)" fill="#fff"/>
  <path id="路径_10210" data-name="路径 10210" d="M341.087,136.51h-.053l-13.141-1.623a.382.382,0,0,1,.091-.758l13.141,1.615a.387.387,0,0,1,.326.425A.379.379,0,0,1,341.087,136.51Z" transform="translate(-134.339 -65.349)" fill="#d1d3d4"/>
  <line id="直线_4" data-name="直线 4" x2="13.134" y2="1.615" transform="translate(193.129 73.049)" fill="#fff"/>
  <path id="路径_10211" data-name="路径 10211" d="M340.452,141.632h-.046l-13.134-1.615a.387.387,0,0,1-.334-.425.372.372,0,0,1,.425-.334l13.141,1.623a.38.38,0,1,1-.053.758Z" transform="translate(-134.19 -66.589)" fill="#d1d3d4"/>
  <line id="直线_5" data-name="直线 5" x2="8.895" y2="1.092" transform="translate(192.651 76.939)" fill="#fff"/>
  <path id="路径_10212" data-name="路径 10212" d="M335.583,146.239h-.045l-8.9-1.1a.379.379,0,1,1,.1-.751l8.895,1.1a.38.38,0,0,1-.046.758Z" transform="translate(-134.037 -67.829)" fill="#d1d3d4"/>
  <path id="路径_10213" data-name="路径 10213" d="M341.92,151.6l.584-4.762,4.057.5Z" transform="translate(-137.811 -68.422)" fill="#fff"/>
  <path id="路径_10214" data-name="路径 10214" d="M341.8,151.861a.349.349,0,0,1-.174-.045.379.379,0,0,1-.2-.387l.584-4.755a.372.372,0,0,1,.425-.326l4.064.5a.379.379,0,0,1,.311.258.364.364,0,0,1-.106.394l-4.648,4.254A.356.356,0,0,1,341.8,151.861Zm.91-4.717-.41,3.359,3.283-3.033Z" transform="translate(-137.689 -68.302)" fill="#d1d3d4"/>
</svg>
