<svg xmlns="http://www.w3.org/2000/svg" viewBox="0 0 1087.05 1072.49"><defs><style>.cls-1,.cls-22{fill:#b4bfd3;}.cls-2,.cls-3{fill:#e7eaf5;}.cls-22,.cls-3{opacity:0.44;}.cls-4{fill:#78b066;}.cls-5{fill:#94c384;}.cls-6{fill:#364d4d;}.cls-7{fill:#5b8b77;}.cls-8{fill:#8b9bc3;}.cls-9{fill:#fff;}.cls-10{fill:#a94151;}.cls-11{fill:#e7ac65;}.cls-12{fill:#d78058;}.cls-13{fill:#1f253f;}.cls-14{fill:#e19b84;}.cls-15{opacity:0.35;}.cls-16{fill:#5f73b3;}.cls-17{fill:#3c455d;}.cls-18{fill:#64718e;}.cls-19{opacity:0.57;}.cls-20{fill:#1f2430;}.cls-21{fill:#f1d87f;}.cls-23{fill:#d8796e;}.cls-24{fill:#a6a3c1;}.cls-25{fill:#dad7ea;}</style></defs><g id="OBJECTS"><path class="cls-1" d="M157.92,710.15c-7.34-.73-13.83-5.31-18.76-13.26C129.3,681,127.2,654,132,641.42c7.31-19.35,35.22-12.88,36.4-12.59l-1.57,6.53.78-3.27-.78,3.27c-.23-.05-23.33-5.38-28.55,8.43-4.14,11-2.11,35.51,6.61,49.55,3.85,6.2,8.47,9.6,13.72,10.12Z"/><path class="cls-2" d="M234.39,625.09v91.32a8.23,8.23,0,0,1-8.23,7.93H162.38a8.23,8.23,0,0,1-8.23-7.93V625.09a8.23,8.23,0,0,1,8.23-8.24h63.78A8.23,8.23,0,0,1,234.39,625.09Z"/><path class="cls-1" d="M225.44,598.93H163.1a9,9,0,0,0-8.95,9h0a9,9,0,0,0,8.95,9h62.34a9,9,0,0,0,8.95-9h0A9,9,0,0,0,225.44,598.93Z"/><path class="cls-2" d="M933.52,718.72a11,11,0,0,1-2-.2l.67-3.62c3.05.57,5.75-.65,8-3.63,4.43-5.75,5.79-16.3,3.76-20.59-.73-1.53-4-4.63-18.41-.23a4.36,4.36,0,0,1-1.34.31l0-3.69a1.46,1.46,0,0,0-.37,0l.61-.18c12.63-3.85,20.3-3.12,22.81,2.17s1.24,17.41-4.16,24.42C940.44,717,937.15,718.75,933.52,718.72Z"/><path class="cls-2" d="M899.09,679.73h27.2a7,7,0,0,1,7,7v23.19a17,17,0,0,1-17,17h-7.2a17,17,0,0,1-17-17V686.73a7,7,0,0,1,7-7Z" transform="translate(5.7 -7.34) rotate(0.46)"/><rect class="cls-2" x="725.85" y="547.52" width="268.3" height="14.79" rx="6"/><polygon class="cls-3" points="442.07 453.21 526.76 453.21 565.82 511.8 565.82 749.08 442.07 749.08 442.07 453.21"/><path class="cls-2" d="M805.19,164.47H438.85a8.24,8.24,0,0,0-8.23,8.24V744.36a8.23,8.23,0,0,0,8.23,8.23H805.19a8.23,8.23,0,0,0,8.23-8.23V172.71A8.24,8.24,0,0,0,805.19,164.47ZM800.9,732a8.24,8.24,0,0,1-8.23,8.24H451.38a8.24,8.24,0,0,1-8.24-8.24V185a8.24,8.24,0,0,1,8.24-8.23H792.67A8.24,8.24,0,0,1,800.9,185Z"/><rect class="cls-2" x="453.83" y="186.1" width="104.3" height="84.75" rx="8"/><rect class="cls-2" x="570.26" y="186.1" width="104.3" height="84.75" rx="8"/><rect class="cls-2" x="686.69" y="186.1" width="104.3" height="84.75" rx="8"/><rect class="cls-2" x="453.83" y="279.59" width="104.3" height="84.75" rx="8"/><rect class="cls-2" x="570.26" y="279.59" width="104.3" height="84.75" rx="8"/><rect class="cls-2" x="686.69" y="279.59" width="104.3" height="84.75" rx="8"/><rect class="cls-2" x="443.14" y="381.55" width="356.65" height="10.8"/><path class="cls-4" d="M707.67,605.37c-2.18-3.45-3.47-2.31-4.23.22.28-6.13-.13-13.61-3.05-18.13-5.6-8.68-10.47,7.74-10.47,7.74s3.2-14.18-1.28-25.38-11.2,4.48-11.2,4.48,2.69-35.7-7.73-38.72-12.43,16.6-12.43,16.6-10.91-16.51-26.59-28.27-19,2.8-10.49,19.32a27.4,27.4,0,0,0,12.16,11.88c-5.89-.19-11.24,1.55-12.1,8.11-1.23,9.39,17.32,14.24,32.15,16.61-5.69.24-10.43,1.88-10,6.79.54,5.74,10.61,9,20.77,10.86-3.44.64-5.59,2.34-4.54,5.93,2.31,7.89,18.49,12.07,28.39,13.92-6.4-.6-14-.15-11.31,6,4.48,10.14,30.28,9.16,30.28,9.16S713,613.77,707.67,605.37Z"/><path class="cls-5" d="M716.59,610.84S695.4,579.19,698.21,537s38.95-93.84,54.25-78.48,5.6,41.87-8.58,80.31S716.59,610.84,716.59,610.84Z"/><path class="cls-6" d="M726.26,710.76c-.12-.57-11.75-57.69-28.82-94.68s-70.23-81-70.77-81.44a.84.84,0,0,1,1.07-1.3c.54.44,54,44.78,71.23,82,11.35,24.61,20.31,58,25.09,78-4.56-38.2-13.91-128.67-4.31-159.64C732,494.19,745.45,483.53,746,483.1a.84.84,0,0,1,1.18.16.83.83,0,0,1-.16,1.17c-.13.11-13.63,10.87-25.69,49.81-12.12,39.12,6.37,174.88,6.56,176.24Z"/><path class="cls-7" d="M758,695.65a17.16,17.16,0,0,0-6,1.09c-1.64-9-9-15.79-17.84-15.79a17.69,17.69,0,0,0-14.1,7.22,17.5,17.5,0,0,0-3.95-1.95c0-.31,0-.62,0-.93,0-8.59-5.14-15.87-12.29-18.51-.47-10.34-8.42-18.58-18.15-18.58a18,18,0,0,0-16,10.35,17.11,17.11,0,0,0-8.06-2c-8.55,0-15.72,6.36-17.65,14.91h-.52c-10,0-18.18,8.76-18.18,19.56a20.66,20.66,0,0,0,2,8.86,20.1,20.1,0,0,0-6.92,15.35c0,10.81,8.14,19.56,18.18,19.56a17.24,17.24,0,0,0,10.44-3.55,20.71,20.71,0,0,0,19.74,1.88,29,29,0,0,0,15.76,4.66,30.1,30.1,0,0,0,24.75-13.41c.46,0,.92.06,1.39.06a17.66,17.66,0,0,0,14.1-7.22A17,17,0,0,0,740.14,719c1.63,9,9,15.79,17.83,15.79,10,0,18.18-8.75,18.18-19.56S768,695.65,758,695.65Z"/><path class="cls-5" d="M674.83,712.66a15.22,15.22,0,0,0-5,.84,15.08,15.08,0,0,0-26.5-6.6,14.73,14.73,0,0,0-3.27-1.51c0-.24,0-.48,0-.72a15.09,15.09,0,0,0-10.2-14.27,15.08,15.08,0,0,0-28.37-6.34A15.08,15.08,0,0,0,580.2,694h-.43a15.09,15.09,0,0,0-15.08,15.09,14.93,14.93,0,0,0,1.64,6.83,15.08,15.08,0,0,0,18,24.18,18.28,18.28,0,0,0,16.37,1.45,25.59,25.59,0,0,0,33.62-6.75c.38,0,.76.05,1.15.05a15,15,0,0,0,11.69-5.57A15.07,15.07,0,0,0,660,730.64a15.08,15.08,0,1,0,14.79-18Z"/><path class="cls-2" d="M939.68,216.86H838.19a4.12,4.12,0,0,0-4.12,4.11V366.73a4.13,4.13,0,0,0,4.12,4.12H939.68a4.12,4.12,0,0,0,4.11-4.12V221A4.11,4.11,0,0,0,939.68,216.86Zm-3.21,139.59a4.11,4.11,0,0,1-4.12,4.12H845.51a4.11,4.11,0,0,1-4.11-4.12V231.25a4.11,4.11,0,0,1,4.11-4.12h86.84a4.11,4.11,0,0,1,4.12,4.12Z"/><rect class="cls-1" x="870.51" y="267.99" width="36.85" height="51.72" rx="8"/><path class="cls-2" d="M275.66,226.1H129.91a4.12,4.12,0,0,0-4.12,4.12V331.7a4.13,4.13,0,0,0,4.12,4.12H275.66a4.12,4.12,0,0,0,4.12-4.12V230.22A4.11,4.11,0,0,0,275.66,226.1Zm-6.15,98.28a4.11,4.11,0,0,1-4.12,4.12H140.18a4.11,4.11,0,0,1-4.11-4.12V237.54a4.12,4.12,0,0,1,4.11-4.12H265.39a4.12,4.12,0,0,1,4.12,4.12Z"/><rect class="cls-2" x="184.36" y="255.1" width="36.85" height="51.72" rx="8" transform="translate(483.75 78.17) rotate(90)"/><rect class="cls-2" x="128.73" y="380.36" width="268.3" height="14.79" rx="6"/><path class="cls-1" d="M176.93,526.69V388.46a2.41,2.41,0,0,1,2.41-2.41h17.59a2.41,2.41,0,0,1,2.41,2.41h0a2.41,2.41,0,0,1-2.41,2.42H186.58a2.41,2.41,0,0,0-2.41,2.41v133.4a2.41,2.41,0,0,1-2.41,2.41h-2.42A2.41,2.41,0,0,1,176.93,526.69Z"/><path class="cls-2" d="M178.15,518.78a4.64,4.64,0,0,1,6.55,2.45A37.08,37.08,0,0,1,120,556a4.64,4.64,0,0,1,1.58-6.82Z"/><path class="cls-1" d="M271.48,472.44h0a7.1,7.1,0,0,1-7.1-7.11V393.15a7.1,7.1,0,0,1,7.1-7.1h0a7.1,7.1,0,0,1,7.1,7.1v72.18A7.1,7.1,0,0,1,271.48,472.44Z"/><circle class="cls-1" cx="272.59" cy="515.89" r="58.94"/><circle class="cls-2" cx="272.59" cy="515.89" r="36.55" transform="translate(-176.67 143.59) rotate(-22.5)"/><circle class="cls-1" cx="272.59" cy="515.89" r="31.64" transform="translate(-280.3 702.32) rotate(-80.78)"/><path class="cls-8" d="M288.11,530.74a31.64,31.64,0,0,1-29.42-43.28A31.64,31.64,0,1,0,302,527.53,31.59,31.59,0,0,1,288.11,530.74Z"/><rect class="cls-2" x="105.01" y="724.34" width="864.68" height="153.33" rx="16"/><rect class="cls-1" x="105.01" y="716.11" width="864.68" height="8.23" rx="4.12"/><rect class="cls-9" x="119" y="740.02" width="153.16" height="137.65" rx="8"/><rect class="cls-9" x="288.91" y="740.02" width="153.16" height="137.65" rx="8"/><rect class="cls-9" x="458.81" y="740.02" width="153.16" height="137.65" rx="8"/><rect class="cls-9" x="628.71" y="740.02" width="153.16" height="137.65" rx="8"/><rect class="cls-9" x="798.62" y="740.02" width="153.16" height="137.65" rx="8"/><circle class="cls-1" cx="243.24" cy="801.49" r="7.35"/><path class="cls-1" d="M572.9,801.22a7.08,7.08,0,1,1-7.08-7.08A7.08,7.08,0,0,1,572.9,801.22Z"/><path class="cls-10" d="M217.51,871.92s-27.72-4.53-24.92-18.81,32.75-10.39,32.19-13.31-8.11-6.28-3.08-7.12,22.4-.31,19.6,3.34-5.6,1.7-2.8,3.66,17.36.84,23.52,13.43S260.34,873.35,217.51,871.92Z"/><path class="cls-4" d="M139,841.8s-11.69-30.54-10.89-21.93,6.8,7.84-3.31,2.2-12-2.22-8.37,1.33-.8-2.91-9.28-.94-9.73,3.54-5.49,5.41,13.74,2.52,13.74,2.52-11.73,1-7.09,2.39,11-.15,11-.15-6.33,2.07-2,2.49,6.33-.84,10.28-1.07,5.71.88,7.91,4.19l2.2,3.31Z"/><path class="cls-7" d="M126.81,836c-2.45.16,1,2.9,1.48,3.28-.64-.49-6.58-4.85-12.23-3.28-6,1.66-9.06,4.41-6.19,4.73a6.7,6.7,0,0,0,2.43-.25c-2.55,1.33-5.58,3.24-6.35,5.1-1.39,3.34-1.76,7.35,2.69,5.18s10.75-7.43,10.75-7.43-3.94,4.2-.62,3.64,8.37-3.42,8.37-3.42-1.29.88,1,1.11,2.62-5.33,5.85-4.21,6.9,2.51,6.9,2.51l1-.63S129.44,835.79,126.81,836Z"/><path class="cls-11" d="M230.4,862.37c-2.45,1-27.48,2.63-79.37-10,0,0-14.77-1.26-14-9.52s4.57-9.56,16.53-5.22l6.1,2.22,4,1.43c2.64,1,5.44,1.95,8.42,3,1,.34,2,.69,3,1q3.7,1.28,7.8,2.62l3.46,1.13c5.13,1.64,10.72,3.36,16.88,5.15C225.8,860.73,232.85,861.36,230.4,862.37Z"/><path class="cls-12" d="M159.66,839.8l4,1.43c-1.17,1.5-2.54,3.34-3.76,5.2C158.07,849.14,158.83,844,159.66,839.8Z"/><path class="cls-12" d="M172,844.22c1,.34,2,.69,3,1a17.14,17.14,0,0,1-3.12,3.24C170.67,849.23,171.26,846.76,172,844.22Z"/><path class="cls-12" d="M186.27,849a16,16,0,0,1-2.67,2.39c-.91.52-1-1.28-.79-3.52Z"/><path class="cls-4" d="M134.27,860.81s-19.41-32.69-16.8-23,9.33,7.66-3.36,3.18-14.18-.19-9.33,3.17-1.49-3.17-10.82.75-10.46,6-5.23,7.27,16.24.19,16.24.19-13.25,3.43-7.66,4.14,12.63-2.35,12.63-2.35-6.84,3.62-1.8,3.25,7.09-2.21,11.57-3.25,6.72-.11,9.89,3.25l3.17,3.36Z"/><path class="cls-7" d="M119.15,856.52c-2.78.66,1.7,3.13,2.35,3.47-.83-.43-8.5-4.26-14.67-1.36-6.53,3.08-9.52,6.84-6.16,6.64a7.85,7.85,0,0,0,2.74-.76c-2.66,2-5.76,4.81-6.28,7.09-.94,4.11-.56,8.77,4.1,5.42s10.86-10.64,10.86-10.64-3.69,5.6,0,4.29,8.93-5.56,8.93-5.56-1.31,1.27,1.3,1.08,2-6.62,5.88-6,8.4,1.52,8.4,1.52l1-.93S122.14,855.81,119.15,856.52Z"/><path class="cls-12" d="M243.07,866.41c-2.62,1.64-31,8.42-92.94,4.09,0,0-17.17,1.47-17.92-8.15s3.36-11.85,17.92-9.24l7.42,1.35,4.82.87c3.22.57,6.62,1.16,10.25,1.76l3.59.6c3,.49,6.15,1,9.47,1.47l4.18.61c6.2.87,12.94,1.74,20.36,2.58C237.47,865.43,245.68,864.78,243.07,866.41Z"/><path class="cls-10" d="M157.55,854.46l4.82.87c-1,1.94-2.25,4.32-3.28,6.69C157.57,865.48,157.44,859.46,157.55,854.46Z"/><path class="cls-10" d="M172.62,857.09l3.59.6a19.88,19.88,0,0,1-2.93,4.33C172,863.11,172.22,860.15,172.62,857.09Z"/><path class="cls-10" d="M189.86,859.77a18.86,18.86,0,0,1-2.59,3.27c-.94.77-1.36-1.29-1.59-3.88Z"/><path class="cls-13" d="M549,346.15s.84,8.68-4.76,9.8c-3.71.74-8.71-10.05-11.66-17.44a23.8,23.8,0,0,0-2.5-6.66h0a19.92,19.92,0,0,0-1.89-2.77c-14.93-18.29-35.09-14.93-35.09-14.93s-12.31-14.93-54.49-4.48a36.84,36.84,0,0,0-9.09,3.6l-.28-.8c-.38.14-37.31,13.66-47.78,41.69-4.36,11.7-1.61,26.23,8,42,1.94,3.19,4,6.14,5.92,8.75.68,4.27,1.8,7.51,3.32,9.25,10.45,11.94,1.5,22.39,1.5,22.39l6.71-3.88a14.73,14.73,0,0,1-4.1,11.28c-4.85,4.79-14.93-5.35-14.93-5.35s1.87,4.3,10.45,12.5,22.64,0,22.64,0l91.57-25s16.43-5.23,12.32-22c-1.32-5.39.1-13.17,2.13-21.85,5.89,8.13,14.67,2.62,24.56-8.1C564.62,359.87,549,346.15,549,346.15ZM394.85,401.4c-8.6-12.24-17.89-30.51-11.86-46.65,8.06-21.61,32.43-34.42,42.42-38.89C401.1,333.4,392.68,378.29,394.85,401.4Z"/><path class="cls-14" d="M519.84,370.23s5,20.43,0,31.35-3.08,17.91-4.2,26-14.28,36.95-19,37.51-18.48-.84-21.55,3.08-4.2,20.44,2.8,28.28,9.06,8.53,9.06,8.53-9.62,15.26-23.06,17.22-34.71,5.88-42.55,0-25.76-38.32-25.76-38.32,16.8,2.21,21.28-5.63,4.76-28.83,3.36-34.15-1.4-15.4,3.08-12.6,10.08-7.28,6.16-11.76-8.4-6.71-11.76-15.95S428,383.1,436.41,389s6.16,19.32,9,15.68.84-19.6,7.56-23,21.56-3.36,28.27-9.51,8.12-7.84,8.12-7.84-11.75,11.75-4.2,13.43S517.88,367.43,519.84,370.23Z"/><path class="cls-10" d="M482.4,465.61s-14.35.07-19.11-1.33-21.84-8.11-24.36-13.43a29.15,29.15,0,0,1-2.8-9.52s-1.67,10.64,7.56,32.75,25.79,36.2,24.37,29.3S464.29,463,482.4,465.61Z"/><path class="cls-13" d="M476.72,398.31c-.61,3.42-2.75,5.89-4.78,5.53s-3.19-3.42-2.59-6.84,2.75-5.89,4.78-5.53S477.33,394.9,476.72,398.31Z"/><path class="cls-13" d="M507.94,407c-.61,3.42-2.75,5.89-4.78,5.53s-3.2-3.42-2.59-6.84,2.75-5.89,4.78-5.53S508.54,403.57,507.94,407Z"/><path class="cls-10" d="M487.15,430.55a.84.84,0,0,1-.5-1.52c2.24-1.63,3.84-3.53,3.67-4a35.5,35.5,0,0,1-3.9-7.8c-.8-2.57,3.16-7.08,4-8a.84.84,0,0,1,1.24,1.13c-1.67,1.84-4,5.11-3.6,6.33a34.18,34.18,0,0,0,3.66,7.31c1.46,2-2.34,5.11-4,6.35A.82.82,0,0,1,487.15,430.55Z"/><path class="cls-10" d="M486.38,447.49a30.44,30.44,0,0,1-4.89-.43,15.08,15.08,0,0,1-11.14-8.63.84.84,0,1,1,1.55-.64,13.66,13.66,0,0,0,9.86,7.61c7.16,1.17,9.85-.54,9.88-.56a.84.84,0,1,1,1,1.38C492.51,446.28,490.72,447.49,486.38,447.49Z"/><path class="cls-13" d="M469.12,386.89a13.68,13.68,0,0,1,6.35-1c1.08.08,1.07-1.6,0-1.68a14.75,14.75,0,0,0-6.79,1.09c-1,.4-.56,2,.44,1.62Z"/><path class="cls-13" d="M505.7,394.28a5.53,5.53,0,0,1,4.54,2.71.84.84,0,0,0,1.45-.84,7.24,7.24,0,0,0-6-3.55c-1.08-.05-1.08,1.63,0,1.68Z"/><path class="cls-2" d="M393,483.77s7.56-.17,9.24,3.47S400,505.43,433.06,511s45.62-11.19,52.34-8.95-34.15,112.53-46.19,122.05-63.54-11.2-64.1-12.88S393,483.77,393,483.77Z"/><path class="cls-14" d="M660.05,523.89s9.55-5.3,11-10.34l1.4-5s12.88,5.88,18.2,2.52,16.23-26.31,16.23-26.31,10.36,16.52,3.64,28.27-17.63,12.6-21.27,16S676,543.23,676,543.23Z"/><path class="cls-2" d="M684.16,548.54c-3.92,9-52.63,73.91-90.14,105.26S534.11,691.87,524.59,684s-19-33.59-19-33.59l-2.24,25.2s-44.23-31.36-42-56c.4-4.41,1.21-11.3,2.35-19.58,5.24-38,17.41-105.41,28.44-95.75,0,0,44.79,11.19,48.15,19s5,99.66,13.44,99.1,56.54-43.67,72.78-66.63,24.63-37,29.67-34.15S688.08,539.59,684.16,548.54Z"/><g class="cls-15"><path class="cls-16" d="M505.56,650.44l-2.24,25.2s-44.23-31.36-42-56c.4-4.41,1.21-11.3,2.35-19.58,0,0,13.89,26.86,22.84,35.81s10.64-40.68,10.64-40.68Z"/></g><path class="cls-17" d="M499.86,709.61a308.54,308.54,0,0,0,.28,40.11c3.36,50.77,5.42,120.78,5.42,120.78H322.82s8.4-109.17,7.56-154.51c-.11-5.94-.11-11.87,0-17.69.26-18.17,1.35-35.23,2.42-48.2.64-7.62,1.26-13.82,1.71-18h0c.4-3.79.67-5.91.67-5.91h0c.33-.47,21.72-30.82,31.35-57.85,9.41-26.43,15.31-82,15.66-85.33,0-.11,0-.16,0-.16s17.17-4.86,16.42,0-19,89.22-9.7,106.39,42.18,31.36,57.11,6,25.75-84.94,33.59-93.05,14.93-.48,15.3,0-29.86,88.21-28,106.87,16.79,32.09,24.26,39.18,14.93,7.46,14.37,19.78C505.18,676.31,501.3,687.53,499.86,709.61Z"/><path class="cls-18" d="M376.46,703s31,11.35,54.16,9.67L453.83,711s6.71,73-5,82.7-78.94,7.15-83.14-3.76S367,699.92,376.46,703Z"/><g class="cls-19"><path class="cls-20" d="M322.82,870.5s8.4-109.17,7.56-154.51c-.11-5.94-.11-11.87,0-17.69.26-18.17,1.35-35.23,2.42-48.2.64-7.62,1.26-13.82,1.71-18h0s18.54,24.49,35.77,24,27.31,7,31.17,13.34,7.88,50.79,3.68,50-55.42-1.68-55.42,7.56,81.92,6.72,106,6.72,42.69-30.74,42.69-30.74.53,2.41,1.43,6.73a308.54,308.54,0,0,0,.28,40.11c3.36,50.77,5.42,120.78,5.42,120.78Z"/></g><path class="cls-10" d="M711,493.77s-2.35,8.12-6.26,11.29-16.06,14.37-18.3,13.63-14-10.18-14-10.18S709.54,488.15,711,493.77Z"/><path class="cls-11" d="M727.08,439.93s-9-25.41-17.54-34-16.42-11.18-16.42-11.18l-12.63,17s5.91,30.79,21.21,34.15A29.68,29.68,0,0,0,727.08,439.93Z"/><path class="cls-21" d="M672.4,508.51s-36.76-9.61-33.41-13,13-29.86,16.6-46.28.5-44,4.46-43.3,42.08,10.83,52.69,20.53,14.34,11.2,14.34,13.44-20.25,44.79-20.25,44.79S693.86,513,689.38,514,672.4,508.51,672.4,508.51Z"/><path class="cls-14" d="M704.75,497.66s-9.3,5.7-6.3-11.05,6.56-22.9,9.48-21.31,4.63,2.34,7.16,13.53S709.94,497.41,704.75,497.66Z"/><path class="cls-11" d="M667.73,464s-3.91-21.64,2.24-28.92,10.3,4.48,14.58,3.36,8.08-1.91,9.87,1.49,1.78,2.63,8,4.67,5.26,8.95,2.84,14-15.12,19-16.8,19S667.92,474.27,667.73,464Z"/><path class="cls-12" d="M666.51,472.59s20.7,6.9,20.29,10.26-2.46,4.2-5.26,3.78-18.1-8.07-18.1-9S665.45,472.23,666.51,472.59Z"/><path class="cls-12" d="M677.81,468.59s9.52-26,11.76-24.55S678,476.35,677.81,468.59Z"/><path class="cls-12" d="M675.13,468.11s5.67-25.57,3.24-28.18-4.48-1.31-4.66,3.73S671.69,472.22,675.13,468.11Z"/><path class="cls-12" d="M682.93,471.11s16.72-21,18.4-17.51S680.77,475.6,682.93,471.11Z"/><path class="cls-17" d="M323.66,789.52a28.44,28.44,0,0,1-20.52-9.34c-4.31-4.85-5.92-10.56-4.54-16.07,3.24-13,18.42-11.72,24.13-11.25.68.06,1.27.11,1.58.11v2.8c-.42,0-1,0-1.81-.12-8.62-.71-18.82-.32-21.18,9.14-1.15,4.59.24,9.39,3.91,13.53,5.13,5.77,13.71,9.16,20.87,8.25l.35,2.78A21.55,21.55,0,0,1,323.66,789.52Z"/><path class="cls-17" d="M501.22,789.52a28.44,28.44,0,0,0,20.52-9.34c4.31-4.85,5.92-10.56,4.54-16.07-3.24-13-18.42-11.72-24.13-11.25-.68.06-1.27.11-1.58.11v2.8c.43,0,1,0,1.81-.12,8.62-.71,18.82-.32,21.18,9.14,1.15,4.59-.24,9.39-3.91,13.53-5.13,5.77-13.71,9.16-20.86,8.25l-.36,2.78A21.55,21.55,0,0,0,501.22,789.52Z"/><path class="cls-2" d="M390.4,669.39c-.28-4.27-2.31-7.84-7.45-10-9.34-3.91-32.59-6.18-50.17-9.3-12.63-2.25-22.34-4.93-21.87-9,1.12-9.7,14.56-46.66,17.54-37.7s6.72,22.77,6.73,22.77c.33-.47,21.72-30.82,31.35-57.85,9.41-26.43,15.31-82,15.66-85.33-10.45-.44-26.12-.21-36.2,4-11,4.57-19.21,17.41-25.72,26.81-9.3,13.43-16.78,28.53-26.5,41.39-6.42,8.5-12.08,17.59-17.62,26.68-11.38,18.65-27.14,40.73-31.57,62.53a17.48,17.48,0,0,0-.48,3.46c0,15.3,13.44,28.74,23.51,34.34,5.27,2.93,35,11,62.75,16.13,25.31,4.74,48.94,7.09,50.72,1,.48-1.64,1.14-3.41,1.89-5.27C386.13,686.16,390.87,676.73,390.4,669.39Z"/><path class="cls-2" d="M512.51,752.62l-12.43,84.46-1.24,8.43c-.64,4.35-4.92,7.6-10,7.6H337.92c-5,0-9.25-3.17-10-7.45l-15.56-92.89a6.82,6.82,0,0,1-.1-1.35c0-4.68,4.47-8.6,10.08-8.6H502.52C508.59,742.82,513.28,747.42,512.51,752.62Z"/><path class="cls-21" d="M416.47,707.65s-12.24-97-16.88-113.34-20.57-11.72-22.86-1.57,10.76,35,14.08,55.28,15.65,94.46,15.65,94.46l15.92.34Zm-23.94-97.23c-3.16.43-6.26-3.12-6.92-7.94s1.38-9.07,4.55-9.5,6.26,3.13,6.92,7.94S395.7,610,392.53,610.42Z"/><path class="cls-14" d="M416.83,709.79l-9.25-10.92s-6.72,5.32-12.32,0c-3.41-3.24-8.69-4.4-12.29-4.81,3.16-7.9,7.9-17.33,7.43-24.67,5.13,1.6,14.51,5,18.86,9.32,6.16,6.16,10.36,7.47,10.64,12.79S416.83,709.79,416.83,709.79Z"/><rect class="cls-2" x="335.08" y="862.35" width="150.61" height="8.12" rx="4"/><polygon class="cls-1" points="356.82 862.35 361.3 853.11 374.74 853.11 372.87 862.35 356.82 862.35"/><polygon class="cls-1" points="464.69 862.35 460.22 853.11 446.78 853.11 448.64 862.35 464.69 862.35"/><rect class="cls-8" x="383.13" y="857.73" width="52.44" height="4.62" rx="2"/><path class="cls-22" d="M500.08,837.08l-1.24,8.43c-.64,4.35-4.92,7.6-10,7.6H337.92c-5,0-9.25-3.17-10-7.45l-15.56-92.89a6.82,6.82,0,0,1-.1-1.35c9.68,35.63,36.4,85.66,110.1,85.66Z"/><rect class="cls-2" x="71.51" y="870.5" width="944.03" height="14.34" rx="4.12"/><rect class="cls-2" x="155.84" y="897.34" width="491.26" height="10.67" rx="5.33"/><rect class="cls-2" x="684.69" y="897.34" width="228.24" height="10.67" rx="5.33"/><path class="cls-1" d="M1015.54,874.62v2.85h-944v-2.85a4.12,4.12,0,0,1,4.12-4.12h935.8A4.12,4.12,0,0,1,1015.54,874.62Z"/><path class="cls-2" d="M900.22,606.12c-3.37,19.35-22.3,70.24-21.88,96.74s15.93,79.64,17.29,111.81c.73,17.31.67,32.16.47,42.18-.18,8.61-.47,13.65-.47,13.65H711.52s2.83-80.44,8.51-118.28c.36-2.41.75-4.7,1.15-6.89,4.38-24,10.85-36,12.47-49.07a48.59,48.59,0,0,0-.37-14.65A125.18,125.18,0,0,0,730,668.15c-.45-1.56-.91-3.14-1.36-4.72h0c-4.37-15.39-8.1-32.32,2.75-61.56a215.57,215.57,0,0,1,10.14-23.05c16.52-32.19,41.86-61.15,70.69-63.49.64-.06,1.29-.09,1.93-.12,36.47-1.44,64.19-3.39,64.19-3.39a37.29,37.29,0,0,1,6.8,1.13c8.21,2.06,21.48,7.88,26,24.08C917.88,561.12,903.58,586.77,900.22,606.12Z"/><path class="cls-13" d="M922.19,369.56c-17.77-3.33-26.4,8.63-29.51,14.53,1.74-6.78,6.18-22.21,11.64-27.12a62,62,0,0,1,13.41-9.38.64.64,0,0,0,.3-.84.62.62,0,0,0-.84-.3A62,62,0,0,0,903.47,356c-6.06,5.45-10.71,22.43-12.26,28.7-.47-9.87-4.33-46.62-35.9-59.68-33.25-13.76-45.92,5.22-48,8.79a26.39,26.39,0,0,0-31.58,0c-16.89,11.9-6.17,48.55-5.7,50.11a.63.63,0,0,0,.6.45h.1a73.92,73.92,0,0,0,3.39,13.94c-2.14,10.48-3.63,25.33,1.07,37.62,5.83,15.23,16.94,17.53,23.13,17.53a20.89,20.89,0,0,0,4.43-.43.64.64,0,0,0,.46-.77.63.63,0,0,0-.77-.45c-.18,0-18.16,4.35-26.07-16.34-4.3-11.25-3.29-24.74-1.41-34.88A66.68,66.68,0,0,0,785.3,419l69.07,37.8s15.14-1.47,24-8.1c4.91-3.68,8.26-10.39,10.38-16.38-.23,5.13.65,11.21,4.57,16.45,8.38,11.16,10.59,12.39,10.81,12.49a.62.62,0,0,0,.26.06.63.63,0,0,0,.56-.35.64.64,0,0,0-.27-.84c-.08-.05-2.24-1.31-10.35-12.12-6.9-9.21-3.73-21.64-2.52-25.42l.15.2c-.72,3.7-1.22,11,4.51,16a.65.65,0,0,0,.41.15.63.63,0,0,0,.42-1.1c-4.73-4.09-4.82-10-4.3-13.65,4.27,5.51,15.14,17.75,27.43,17.74a18.08,18.08,0,0,0,3.49-.33c5.33-1,9-3.36,11-6.87a13.39,13.39,0,0,0,1.51-7.19C949.57,415.72,945.37,373.92,922.19,369.56Zm-151.42-5.92a74.29,74.29,0,0,0-.53,16c-2.3-10-6.7-35.54,6.26-44.67,11.1-7.82,21-5.1,26.18-2.5C791.29,328.79,774.94,334.43,770.77,363.64Zm121.34,57.24-.11-.16a1.32,1.32,0,0,1,.47-.08c0,.12-.09.3-.16.53Zm41.62,13.23c-1.75,3.17-5.14,5.26-10.09,6.24-13.54,2.66-26.49-12.75-30.36-17.87a15.74,15.74,0,0,1,.43-1.56s0-.05,0-.08c7,1.86,29.54,15.89,41.38,7.68A11.73,11.73,0,0,1,933.73,434.11Z"/><path class="cls-14" d="M878.34,511.8s-11.67,2.52-20.5,8.21-14.2,14.5-32.49,16.71-17.67-8.83-17.67-8.83,4.55-6.07,8.3-17.9c.07-.24.15-.47.22-.71,3.79-12.31,2.21-35.19,2.21-35.19s-6.37,1.56-11.08,2.2a15.28,15.28,0,0,1-4.27.18c-3-.63-9.89-12.3-15.25-22.39a41,41,0,0,1-4-11.11,46.77,46.77,0,0,1,.85-20.88c2.84-11.17-.62-18.17-1.26-34.57S803.06,355,803.06,355s7.46,14.52,16.93,28.8,23.65,16.63,30.28,22.31,7.57-.32,13.56,0,11,5.36,11.36,16-14.51,15-10.09,19.37,6,3.47,3.15,8.2,1.58,15.77.63,30.6a40.9,40.9,0,0,0,1.42,12.58A76.93,76.93,0,0,0,878.34,511.8Z"/><path class="cls-10" d="M818.41,474.09s29-8.24,32.49-12.76S855,443.67,855,443.67s3.43,17.35-6.67,31.86S818,499.94,818,499.94Z"/><path class="cls-13" d="M833.13,411.28a.94.94,0,0,1-.9-.65c0-.09-1-2.67-6.24-3.79s-9.64,2.68-9.68,2.72a.95.95,0,1,1-1.27-1.4c.2-.18,5.06-4.51,11.35-3.17s7.59,4.89,7.64,5a1,1,0,0,1-.6,1.2A1,1,0,0,1,833.13,411.28Z"/><path class="cls-13" d="M800.11,409a.82.82,0,0,1-.75-.68h0s-.61-1.79-4.35-3.29-5.1,1.17-5.11,1.2a.73.73,0,0,1-1.09.31,1.06,1.06,0,0,1-.25-1.3c.08-.17,2.08-4,7-2,4.59,1.84,5.29,4.29,5.36,4.57a1,1,0,0,1-.54,1.17A.83.83,0,0,1,800.11,409Z"/><path class="cls-10" d="M805.16,436.88a.63.63,0,0,1-.44-.17c-.15-.14-3.67-3.52-5.41-5.57a1.89,1.89,0,0,1-.49-1.49c.15-1.25,1.58-2.27,3.38-3.56a27.87,27.87,0,0,0,3.62-2.9c2.92-2.92-.07-8-.1-8.06a.64.64,0,0,1,.22-.87.62.62,0,0,1,.86.22c.15.24,3.53,6-.09,9.6a29.9,29.9,0,0,1-3.77,3c-1.37,1-2.78,2-2.87,2.68a.67.67,0,0,0,.21.53c1.69,2,5.28,5.43,5.31,5.47a.63.63,0,0,1-.43,1.08Z"/><path class="cls-13" d="M789.83,395.53a7.47,7.47,0,0,1,3.29-1.7c1.18-.29.68-2.12-.51-1.83a9.58,9.58,0,0,0-4.12,2.19c-.91.81.43,2.14,1.34,1.34Z"/><path class="cls-13" d="M822.09,394.93a23.23,23.23,0,0,1,6.3,2.63,1,1,0,0,0,1-1.64,25.88,25.88,0,0,0-6.76-2.82,1,1,0,0,0-.5,1.83Z"/><g class="cls-15"><path class="cls-16" d="M906.52,564.86s-17.55,40-50.92,72-77.84,47-84.47,44.71-24.6-37.74-24.6-37.74Z"/></g><path class="cls-9" d="M746.53,713.37s35,14.51,50.61,13.25,28.67-7.57,29.39,6.31-.36,64.64-17.49,72.7-61.2,6.62-62.51-2.44S737.74,714,746.53,713.37Z"/><path class="cls-14" d="M794.75,484.88c-1.63,4.06-3.33,7.68-3.33,7.68l-22-11.36s.56-.95,1.37-2.5C779.38,478.4,789.85,480.92,794.75,484.88Z"/><path class="cls-17" d="M904,574.62C896.75,599,797.49,655,786.41,661.92s-37.06,9.12-45.58-23,13.21-145.07,17-154.63c1.47-3.66,6.71-5.35,12.91-5.57,8.6-.3,19.07,2.22,24,6.18a9.27,9.27,0,0,1,1.89,2c5.54,8.25-12.78,109.46-13.08,115.1s33.1-18.24,48.29-30,50.42-39.22,50.42-39.22C913.79,518.76,911.24,550.29,904,574.62Z"/><path class="cls-17" d="M885.14,512.93c-22.12,0-32.51,20.48-41.71,29.68-10.93,10.94-40,27.34-47.1,17.67s15.89-45,15.89-45A32.68,32.68,0,0,1,816,510c-.59,1.88-1.21,3.62-1.83,5.2a57.37,57.37,0,0,1-6.47,12.7s-.63,11,17.67,8.83,23.66-11,32.49-16.72,20.5-8.2,20.5-8.2A37.29,37.29,0,0,1,885.14,512.93Z"/><path class="cls-17" d="M755.8,787.86l66.08,7.85-1.58,11-65.7-10.09a4.44,4.44,0,0,1-3.24-6.5h0A4.44,4.44,0,0,1,755.8,787.86Z"/><g class="cls-15"><path class="cls-16" d="M896.1,856.85c-.18,8.6-.47,13.65-.47,13.65H711.51s2.85-80.43,8.52-118.28c.36-2.41.75-4.7,1.15-6.88,4.38-24,10.85-36,12.48-49.08a48.86,48.86,0,0,0-.38-14.64A124.21,124.21,0,0,0,730,668.15c-.45-1.56-.91-3.14-1.36-4.72.3.59,10.11,19.92,37.73,36.07,28,16.4,31.28,20.18,22.73,20.81S743.17,697,755.32,709s34.94,50.22,31,53.18-37.88,14.45-39.82,48.77c-.9,15.86,24,46.54,57.28,54.26l15.71-57.62,76.38,14.51-11.29,34.67C888.76,856.87,892.62,856.91,896.1,856.85Z"/></g><path class="cls-9" d="M922.87,808.72a27.07,27.07,0,0,1-21.81,13.17c-19.56,1-73.82-2.21-79.18-3.79-2-.58-2.5-5.08-2.36-10.55a174.53,174.53,0,0,1,2.36-21.62s100.63,11.35,103.46,12.93C926.6,799.56,925.82,804,922.87,808.72Z"/><path class="cls-2" d="M922.87,808.71h0a27.07,27.07,0,0,1-21.81,13.17c-19.56,1-73.82-2.21-79.18-3.79-2-.58-2.5-5.08-2.36-10.55,28.26,4.94,76,11.27,98.89,2.69C920,809.65,921.46,809.15,922.87,808.71Z"/><path class="cls-14" d="M810.21,810.22c-4.74-.64-18.3.63-24.61-5.68S772.67,789.71,773,783.72c.19-3.43-3.45-8.61-6.6-12.42,5.12-4.28,11.51-10,14.75-15.18,1.84,3.09,4.42,7.28,5.76,9,2.24,2.84,4.39,4.1,8.17,6.62s10.41,12.62,11.68,18.3S814.94,810.85,810.21,810.22Z"/><path class="cls-17" d="M783,748.7c-1.7-5.3-31.56-34.37-49.34-52.44-2.78-2.82-5.26-5.38-7.3-7.53h0s-3.48-6.32,0-9.67a63.18,63.18,0,0,1,5.36-4.72l-1.7-6.19h0c-4.82-16.76-10.6-34,1.38-66.3a215.57,215.57,0,0,1,10.14-23.05l1.57-13.94s-43.93,87.32-52.76,108.77-13.82,29-6.91,35.33c3.37,3.08,20.38,20.24,37.75,36.37,18.25,17,36.89,32.78,40.45,29.87,1.3-1.06,2.94-2.39,4.75-3.9,5.12-4.28,11.51-10,14.75-15.18C782.84,753.4,783.67,750.83,783,748.7Z"/><path class="cls-23" d="M816.82,455.16c-.5,4.13-5.76,14.31-9.49,21.13a15.28,15.28,0,0,1-4.27.18c-3-.63-9.89-12.3-15.25-22.39a41,41,0,0,1-4-11.11s5.41-13.32,16-7.37,13.49,9.17,12.42,11S817.59,448.7,816.82,455.16Z"/><path class="cls-14" d="M806.42,467.54c-5.68,3.36-8.2,3.57-8.83,8.41a45.41,45.41,0,0,1-2.84,8.93c-4.9-4-15.37-6.48-24-6.18a72.63,72.63,0,0,0,5.15-12.21c2.1-7.16-.95-5.24,3.36-14.94s9.52-17.24,15.38-15.77,10.91,4,12,7.89-1.14,15,1.74,11.76,4.57-6.19,5-2.61S812.1,464.17,806.42,467.54Z"/><rect class="cls-17" x="722.6" y="859.83" width="257.17" height="10.67" rx="4"/><rect class="cls-11" x="759.18" y="844.44" width="11.48" height="15.4" rx="3"/><rect class="cls-12" x="774.87" y="844.44" width="11.48" height="15.4" rx="3"/><rect class="cls-10" x="790.13" y="844.44" width="11.48" height="15.4" rx="3"/><rect class="cls-10" x="805.39" y="844.44" width="11.48" height="15.4" rx="3"/><rect class="cls-10" x="820.64" y="844.44" width="11.48" height="15.4" rx="3"/><rect class="cls-10" x="857.96" y="844.44" width="91.58" height="15.4" rx="3"/><path class="cls-7" d="M655.62,821.28s-26.37-62.66-3.35-91.2,42.36-19.74,42.36-19.74-29.38,4.51-35.66,25.07,10.47,53.74,10.47,53.74-5.86-21.87,2.93-38.2a88.49,88.49,0,0,1,20.51-25.54s-15.49,11.46-15.07,29,20.51,64.49,20.51,64.49Z"/><path class="cls-11" d="M640.55,823.79S569,701.55,595.34,690.25s89.59,125.92,89.59,125.92Z"/><path class="cls-12" d="M607.27,738.26s3.77-25.41,6.91-21.43S608.32,757.38,607.27,738.26Z"/><path class="cls-12" d="M619.64,757.26s3.76-25.41,6.9-21.43S620.68,776.38,619.64,757.26Z"/><path class="cls-12" d="M631.78,776.23s3.76-25.41,6.9-21.43S632.82,795.35,631.78,776.23Z"/><path class="cls-12" d="M642.87,795.27s3.77-25.4,6.91-21.42S643.92,814.4,642.87,795.27Z"/><path class="cls-4" d="M726.66,791.85a10.31,10.31,0,0,0-8.62,4.64c-.23-.08-.45-.15-.68-.21a10.79,10.79,0,0,0,2-6.26h0a13,13,0,0,0,7.26-11.36c0-5.93-4.37-10.94-10.38-12.61-.46-6-6.08-10.72-13-10.72a13.51,13.51,0,0,0-10.88,5.2,15.84,15.84,0,0,0-20.17,7.82c-3.2,1.47-5.37,4.22-5.42,7.38A12.53,12.53,0,0,0,660,795c-4.61,1.85-7.75,5.52-7.75,9.75,0,5.94,6.21,10.78,14,11a11.15,11.15,0,0,0,7.58,3.06c6,0,11-5.09,12.13-11.82a17.48,17.48,0,0,0,11.19,4,17.79,17.79,0,0,0,8.56-2.16,13.67,13.67,0,0,0,7.63,2.16,14.38,14.38,0,0,0,6.2-1.34,10.33,10.33,0,1,0,7.12-17.81Z"/><path class="cls-5" d="M677.42,808.5a8.09,8.09,0,0,1,6.66,3.4c.17,0,.35-.11.53-.15a7.59,7.59,0,0,1-1.58-4.59h0a9.49,9.49,0,0,1-5.61-8.33c0-4.34,3.37-8,8-9.24.35-4.39,4.7-7.86,10-7.86a10.6,10.6,0,0,1,8.4,3.81,12.72,12.72,0,0,1,4.55-.83,12.32,12.32,0,0,1,11,6.57c2.47,1.07,4.15,3.08,4.18,5.4a9.3,9.3,0,0,1,7.06,8.85,8.84,8.84,0,0,1-1.79,5.31c3.56,1.36,6,4,6,7.15,0,4.35-4.79,7.9-10.8,8.07a8.88,8.88,0,0,1-5.86,2.25c-4.66,0-8.54-3.73-9.37-8.67a14,14,0,0,1-8.64,2.9,14.25,14.25,0,0,1-6.61-1.59,11,11,0,0,1-5.9,1.59,11.63,11.63,0,0,1-4.79-1,8.18,8.18,0,0,1-5.5,2.09,7.59,7.59,0,1,1,0-15.15Z"/><path class="cls-7" d="M665.22,810.81s-8.76-21.66-43.51-38.25-46.05-2.35-46.05-2.35,23.1-8,39.18,5.43S641,799,641,799s-26.45-13.42-39.81-11.89-21.52,14.23-21.52,14.23,19.08-13.32,40-2.34,17.58,19,17.58,19Z"/><path class="cls-21" d="M741.84,812.1l-18.42,50.29-1.46,4a6.29,6.29,0,0,1-5.9,4.12l-50.84,0-50.84,0a6.29,6.29,0,0,1-5.9-4.12L588.6,812.1a6.28,6.28,0,0,1,5.89-8.44H736A6.27,6.27,0,0,1,741.84,812.1Z"/><path class="cls-11" d="M723.42,862.39l-1.46,4a6.29,6.29,0,0,1-5.9,4.12l-50.84,0-50.84,0a6.29,6.29,0,0,1-5.9-4.12L588.6,812.1a6.28,6.28,0,0,1,4-8.14c9.1,22.59,37.22,58.39,123.88,58.39C718.87,862.35,721.19,862.37,723.42,862.39Z"/><ellipse class="cls-8" cx="304.78" cy="258.32" rx="26.87" ry="22.64"/><path class="cls-1" d="M381.72,274.52a5,5,0,0,0,4.86-6.36c-8.68-32.28-42.25-56.34-82.35-56.34s-73.67,24.06-82.35,56.34a5,5,0,0,0,4.86,6.36Z"/><rect class="cls-2" x="280.89" y="200.25" width="47.78" height="16.61" rx="7"/><rect class="cls-1" x="301.98" y="181.4" width="5.23" height="18.85"/><path class="cls-2" d="M349.1,181.4H261.39a2.71,2.71,0,0,1-2.71-2.71h0a2.72,2.72,0,0,1,2.71-2.71H349.1a2.71,2.71,0,0,1,2.71,2.71h0A2.71,2.71,0,0,1,349.1,181.4Z"/><path class="cls-1" d="M975.94,579.77a12.39,12.39,0,0,1-1.38,1.53L972,578.61c2.27-2.11,2.9-5,1.86-8.62-2-7-9.67-14.35-14.33-15.26-1.66-.32-6.09.45-11.12,14.67a4.21,4.21,0,0,1-.55,1.26L945,568.45a1.75,1.75,0,0,0-.19.32l.22-.6c4.4-12.44,9.55-18.18,15.3-17S975,560.47,977.45,569C978.65,573.17,978.12,576.87,975.94,579.77Z"/><path class="cls-1" d="M937.57,563.78h27.2a7,7,0,0,1,7,7V594a17,17,0,0,1-17,17h-7.2a17,17,0,0,1-17-17V570.78A7,7,0,0,1,937.57,563.78Z" transform="translate(-89.78 995.01) rotate(-53.08)"/><path class="cls-9" d="M305,868.72a3.29,3.29,0,0,1-2.9,1.78H275.7a3.46,3.46,0,0,1-3.3-4l4.43-31.19a3.41,3.41,0,0,1,3.3-3h17.55a3.38,3.38,0,0,1,3.27,2.83.86.86,0,0,1,0,.17l4.43,31.19A3.57,3.57,0,0,1,305,868.72Z"/><path class="cls-24" d="M292.81,832.28H285a2.64,2.64,0,0,1-2.64-2.63h0A2.64,2.64,0,0,1,285,827h7.8a2.64,2.64,0,0,1,2.64,2.64h0A2.64,2.64,0,0,1,292.81,832.28Z"/><path class="cls-25" d="M277.26,865.44l-.2,0a1.23,1.23,0,0,1-1-1.41l4.17-26.33a1.25,1.25,0,0,1,1.43-1,1.23,1.23,0,0,1,1.05,1.4l-4.18,26.33A1.25,1.25,0,0,1,277.26,865.44Z"/><path class="cls-25" d="M288.91,865.44a1.26,1.26,0,0,1-1.26-1.24V837.87a1.26,1.26,0,0,1,2.51,0V864.2A1.25,1.25,0,0,1,288.91,865.44Z"/><path class="cls-25" d="M300.9,865.44a1.24,1.24,0,0,1-1.22-1l-5.05-26.33a1.24,1.24,0,0,1,1-1.44,1.26,1.26,0,0,1,1.46,1L302.14,864a1.24,1.24,0,0,1-1,1.44Z"/><path class="cls-9" d="M559.63,868.72a3.29,3.29,0,0,1-2.9,1.78H530.32a3.46,3.46,0,0,1-3.3-4l4.43-31.19a3.41,3.41,0,0,1,3.3-3H552.3a3.38,3.38,0,0,1,3.27,2.83.86.86,0,0,1,0,.17L560,866.47A3.57,3.57,0,0,1,559.63,868.72Z"/><path class="cls-24" d="M547.43,832.28h-7.8a2.64,2.64,0,0,1-2.64-2.63h0a2.64,2.64,0,0,1,2.64-2.64h7.8a2.64,2.64,0,0,1,2.64,2.64h0A2.64,2.64,0,0,1,547.43,832.28Z"/><path class="cls-25" d="M531.88,865.44l-.2,0a1.23,1.23,0,0,1-1-1.41l4.17-26.33a1.25,1.25,0,0,1,1.43-1,1.23,1.23,0,0,1,1,1.4l-4.18,26.33A1.25,1.25,0,0,1,531.88,865.44Z"/><path class="cls-25" d="M543.53,865.44a1.25,1.25,0,0,1-1.25-1.24V837.87a1.25,1.25,0,0,1,2.5,0V864.2A1.25,1.25,0,0,1,543.53,865.44Z"/><path class="cls-25" d="M555.53,865.44a1.25,1.25,0,0,1-1.23-1l-5-26.33a1.24,1.24,0,0,1,1-1.44,1.25,1.25,0,0,1,1.46,1l5,26.32a1.24,1.24,0,0,1-1,1.44Z"/></g></svg>