<svg xmlns="http://www.w3.org/2000/svg" xmlns:xlink="http://www.w3.org/1999/xlink" viewBox="0 0 229.42511 234.3462"><defs><style>.cls-1,.cls-5{fill:none;}.cls-2{isolation:isolate;}.cls-3{clip-path:url(#clip-path);}.cls-4{fill:#9ebedb;}.cls-5{stroke:#3164b7;stroke-linecap:round;stroke-linejoin:round;stroke-width:2.44582px;}.cls-6{fill:#cff1f7;}.cls-7{fill:#e2fdff;}.cls-8{fill:#a4dbe0;}.cls-9{fill:#de8c73;}.cls-10{fill:#fcd0c3;}.cls-11{fill:#fbc0ae;}.cls-12{fill:#c27a64;}.cls-13{fill:#dea897;}.cls-14{fill:#3164b7;}.cls-15{fill:url(#linear-gradient);}.cls-16{fill:#3a76d9;}.cls-17{fill:#ff8630;}.cls-18{opacity:0.5;mix-blend-mode:screen;fill:url(#White_Black);}.cls-19{fill:#fff;}</style><clipPath id="clip-path" transform="translate(-14.75733 -34.48245)"><ellipse class="cls-1" cx="129.46958" cy="130.92074" rx="129.46958" ry="130.92074"/></clipPath><linearGradient id="linear-gradient" x1="167.7129" y1="135.85088" x2="208.224" y2="177.18874" gradientUnits="userSpaceOnUse"><stop offset="0" stop-color="#314cb7"/><stop offset="1" stop-color="#689aed"/></linearGradient><linearGradient id="White_Black" x1="143.36824" y1="40.70442" x2="102.62073" y2="95.93245" gradientUnits="userSpaceOnUse"><stop offset="0" stop-color="#fff"/><stop offset="1"/></linearGradient></defs><title>资源 17</title><g class="cls-2"><g id="图层_2" data-name="图层 2"><g id="Layer_1" data-name="Layer 1"><g class="cls-3"><rect class="cls-4" y="179.03571" width="229.42511" height="55.31049"/><line class="cls-5" x1="31.10954" y1="179.03571" x2="50.43219" y2="179.03571"/><line class="cls-5" x1="57.873" y1="179.03571" x2="69.75763" y2="179.03571"/><line class="cls-5" x1="155.8866" y1="179.03571" x2="172.4588" y2="179.03571"/><line class="cls-5" x1="178.67172" y1="179.03571" x2="195.3074" y2="179.03571"/><circle class="cls-6" cx="110.44703" cy="88.48683" r="88.46302"/><path class="cls-7" d="M55.56735,156.07523A88.47648,88.47648,0,0,1,139.96107,35.74741a88.465,88.465,0,1,0-16.63056,175.67116A88.40522,88.40522,0,0,1,55.56735,156.07523Z" transform="translate(-14.75733 -34.48245)"/><circle class="cls-8" cx="164.1727" cy="47.14897" r="47.12516"/><path class="cls-9" d="M151.6032,189.84844s-32.3185,15.21037-37.64695,11.0781,2.17488-14.13672,2.17488-14.13672l12.41061-5.84348,4.11848-1.55111,8.26454,2.82734Z" transform="translate(-14.75733 -34.48245)"/><path class="cls-10" d="M152.00763,191.77372a4.78533,4.78533,0,0,1-8.04252,3.50655l-15.42233-14.335,12.72007,12.72329a4.78614,4.78614,0,0,1-.40542,7.12891,4.86788,4.86788,0,0,1-6.45005-.45361l-12.704-12.70079-.13831.14479,9.89231,10.82847a4.46459,4.46459,0,0,1-.67882,6.627,4.53683,4.53683,0,0,1-5.99011-.69489l-8.98187-9.828a.59629.59629,0,1,0-.8268.85578l7.02276,5.98037a2.31574,2.31574,0,0,1,.70451,1.34154,3.759,3.759,0,0,1-1.72749,3.973,3.919,3.919,0,0,1-4.2883-.01607c-.01288-.00966-.029-.01928-.045-.02894l-8.89186-7.92032c-3.89575-2.921-12.78117-9.84078-15.21969-13.965C89.707,182.00366,84.51466,180.27,84.51466,180.27l.46653.05441V150.78478s7.85922,4.39545,11.90294,3.27271c0,0,7.66616.32812,17.28821-4.729,4.07923-1.3061,8.64737,3.26206,8.64737,3.26206s-1.72114,11.607,4.11135,15.41268c.85891.55976,1.70817,1.126,2.53818,1.72754v-.00322l.058.045c.40213.29276.801.58872,1.19028.90076l4.092,3.28457,15.67,14.31248A4.77515,4.77515,0,0,1,152.00763,191.77372Z" transform="translate(-14.75733 -34.48245)"/><path class="cls-11" d="M120.97959,206.87113a3.919,3.919,0,0,1-4.2883-.01607c-.01288-.00966-.029-.01928-.045-.02894l-8.89186-7.92032c-3.89575-2.921-12.78117-9.84078-15.21969-13.965C89.707,182.00366,84.51466,180.27,84.51466,180.27l.46653.05441V172.684l2.3903-1.99775s5.67477,11.17589,17.44584,11.71957h6.08334s-4.32043,3.35856-2.58,3.90865,7.0453,17.285,12.65575,20.55347Z" transform="translate(-14.75733 -34.48245)"/><path class="cls-9" d="M90.90176,180.64578h0a3.6701,3.6701,0,0,1,3.6701,3.6701v3.99635a3.67011,3.67011,0,0,1-3.67011,3.67011h0a3.67011,3.67011,0,0,1-3.67011-3.67011v-3.99635a3.67011,3.67011,0,0,1,3.67011-3.67011Z" transform="translate(143.61127 -44.18952) rotate(45.00005)"/><path class="cls-9" d="M101.31537,181.65863h0a4.58215,4.58215,0,0,1,4.58215,4.58215v7.61252a4.58215,4.58215,0,0,1-4.58215,4.58215h0a4.58216,4.58216,0,0,1-4.58216-4.58216v-7.61251A4.58216,4.58216,0,0,1,101.31537,181.65863Z" transform="translate(149.30085 -50.45973) rotate(45.00001)"/><path class="cls-9" d="M109.176,187.07h0a4.58216,4.58216,0,0,1,4.58216,4.58216v7.61252a4.58215,4.58215,0,0,1-4.58215,4.58215h0a4.58215,4.58215,0,0,1-4.58215-4.58215v-7.61252A4.58215,4.58215,0,0,1,109.176,187.07Z" transform="translate(155.42945 -54.43316) rotate(44.99998)"/><path class="cls-9" d="M164.53661,150.78478c-4.10577,3.7491-13.17238,4.143-13.17238,4.143s-7.28587,1.41366-19.68267-2.82734c-4.56727-.97871-7.61212-2.39237-18.59527,6.63338,0,0-6.03527,3.15357-5.98092,8.482-1.52243,4.40412-5.00224,9.2976,1.57677,8.86262s8.41858-6.47027,9.45617-9.2976c1.69011-.76121,3.73326-.2054,5.59341-3.03878,0,0,1.01269,3.896,6.41148,6.48505,0,0,12.19267,10.60524,15.36907,13.50595,0,0,5.18814,3.95421,6.09088,6.11532,0,0,11.11753-8.839,14.29833-9.16526Z" transform="translate(-14.75733 -34.48245)"/><path class="cls-12" d="M129.52781,169.772a17.94263,17.94263,0,0,0,15.15679,0s-4.99137,4.90114-11.54862,3.06269Z" transform="translate(-14.75733 -34.48245)"/><path class="cls-13" d="M111.9108,168.70458a.9133.9133,0,0,1,.55464.25342.88861.88861,0,0,1-.0395.93781,4.62043,4.62043,0,0,1-1.62523,1.824,9.19754,9.19754,0,0,1-1.64828.77851,3.92024,3.92024,0,0,1-1.2376.33614,1.32753,1.32753,0,0,1-1.14189-.47406,1.586,1.586,0,0,1-.2271-1.01486C106.685,168.49464,109.67871,168.282,111.9108,168.70458Z" transform="translate(-14.75733 -34.48245)"/><path class="cls-14" d="M40.38125,130.80666s-7.59866,39.4362,43.9362,50.96234a2.50667,2.50667,0,0,0,3.0556-2.43778v-27.688a2.48623,2.48623,0,0,0-2.74846-2.48147C76.969,149.98182,55.00508,150.37187,40.38125,130.80666Z" transform="translate(-14.75733 -34.48245)"/><path class="cls-15" d="M210.54053,130.80666s7.59866,39.4362-43.9362,50.96234a2.50667,2.50667,0,0,1-3.0556-2.43778v-27.688a2.48623,2.48623,0,0,1,2.74846-2.48147C173.95281,149.98182,195.9167,150.37187,210.54053,130.80666Z" transform="translate(-14.75733 -34.48245)"/><path class="cls-16" d="M171.76714,130.92074H70.192l18.36816-17.2431a39.09268,39.09268,0,0,1,32.41969-60.92547,39.07315,39.07315,0,0,1,39.08421,39.08429,38.90938,38.90938,0,0,1-6.6651,21.84118Z" transform="translate(-14.75733 -34.48245)"/><path class="cls-17" d="M180.25714,134.06114H78.682L97.05018,116.818a39.09268,39.09268,0,0,1,32.4197-60.92547,39.07316,39.07316,0,0,1,39.08421,39.08429A38.90939,38.90939,0,0,1,161.889,116.818Z" transform="translate(-14.75733 -34.48245)"/><path class="cls-18" d="M134.99716,56.28391v.01224s-33.01861,28.99527-25.88894,61.24344l-12.058-.72155a39.09268,39.09268,0,0,1,32.4197-60.92547A39.348,39.348,0,0,1,134.99716,56.28391Z" transform="translate(-14.75733 -34.48245)"/><path class="cls-19" d="M124.57334,110.98655a4.87764,4.87764,0,0,1-3.45855-1.43251L104.80612,93.246h0a9.78247,9.78247,0,0,1,13.83493-.00076l5.93229,5.932,26.49084-26.49085h0a9.78393,9.78393,0,0,1-.0006,13.836L128.03188,109.554A4.8756,4.8756,0,0,1,124.57334,110.98655Z" transform="translate(-14.75733 -34.48245)"/><path class="cls-9" d="M113.21641,197.34407h0a3.26531,3.26531,0,0,1,3.26531,3.26531v4.24972a3.26531,3.26531,0,0,1-3.26531,3.26531h0a3.2653,3.2653,0,0,1-3.2653-3.2653v-4.24973a3.2653,3.2653,0,0,1,3.2653-3.2653Z" transform="translate(161.75763 -55.15909) rotate(44.99997)"/></g></g></g></g></svg>