<?xml version="1.0" standalone="no"?><!DOCTYPE svg PUBLIC "-//W3C//DTD SVG 1.1//EN" "http://www.w3.org/Graphics/SVG/1.1/DTD/svg11.dtd"><svg t="1638499081671" class="icon" viewBox="0 0 1024 1024" version="1.1" xmlns="http://www.w3.org/2000/svg" p-id="1952" xmlns:xlink="http://www.w3.org/1999/xlink" width="200" height="200"><defs><style type="text/css"></style></defs><path d="M473 200l0 182-26 0L447 200l-78 0 0 182-26 0L343 200l-52 0-26 52 0 182 104 0 0 78-26 0 0 286 27.9 26L447 824l26-26L473 512l-26 0 0-78 104 0L551 252l-26-52L473 200zM688.4 200 629 278l0 286 78 0 0 260 52 0L759 200 688.4 200z" p-id="1953" fill="#1D1E22"></path></svg>