<svg xmlns="http://www.w3.org/2000/svg" viewBox="0 0 342.71 309.96"><defs><style>.cls-1{fill:#419931;}.cls-2{fill:#f5ff92;}.cls-3{fill:#bc6940;}.cls-4{fill:none;stroke:#282828;stroke-linecap:round;stroke-linejoin:round;stroke-width:4px;}.cls-5{fill:#ba4a1e;}.cls-6{fill:#ffe8e1;}.cls-7{fill:#e86a3d;}.cls-8{fill:#5bd841;}.cls-9{fill:#ff7752;}.cls-10{fill:#fafff5;}.cls-11{fill:#abea98;}</style></defs><title>资源 13</title><g id="图层_2" data-name="图层 2"><g id="图层_5" data-name="图层 5"><path class="cls-1" d="M3.58,126.77c0,.48,9.79,10.13,9.79,10.13s12.73,11.87,30.57,2.79,36-16.9,36-16.9l5.72-8.6.83,8.26-6,10.85L66.6,141l-14.07,9.69s-9.83,5.85-14.5,6.73-14.35.67-14.35.67L10.25,147.77,4.64,138.3Z"/><path class="cls-2" d="M8.3,96s10.77-15.28,29.25-7.16,25.11,9.66,25.11,9.66,13.63-1.38,18,4.54c5.44,5.55,5.07,8.92,5.07,8.92A9.77,9.77,0,0,1,81,122.22c-6.26,3.59-18,7.3-18,7.3L49.36,137l-15,5.49-12.79-1.31s-9.27-5.15-9.74-5.57-8.31-9.82-8.31-9.82L2.12,111.29S3.23,99.64,8.3,96Z"/><path class="cls-3" d="M26.42,104.64s9.52-6.5,18.12.14,6.91,11,6.91,11l-4.58,9.24-9.24,2.5-7.19-2.5S18.17,119.15,26.42,104.64Z"/><path class="cls-4" d="M39.34,102.4c-5-1.49-11.1-.25-14.22,4-3.68,4.94-2.08,12.47,2.33,16.76S38.57,128.87,44,126.4c4.78-2.16,8.18-7.79,7.35-13.07S44.19,103.84,39.34,102.4Z"/><path class="cls-4" d="M43.11,90.93c-6.49-2.68-13.54-4.83-20.45-3.6A25.08,25.08,0,0,0,6.18,99a29.34,29.34,0,0,0,.3,30.67,29.34,29.34,0,0,0,27.86,12.82c11-1.47,20-9,30.31-13.07,4.4-1.74,9.07-2.86,13.19-5.2s7.71-6.31,8-11c.26-5-3.41-9.6-7.88-11.93-5.39-2.82-11.22-2.57-17-3.65C54.71,96.43,48.9,93.31,43.11,90.93Z"/><path class="cls-4" d="M86.27,110.66c3,5.84.71,13.26-3.58,18.24S72.47,137.11,67,140.72c-7,4.62-13.56,10-21.11,13.74S29.33,160,21.5,156.94c-6.46-2.51-11.39-8.1-14.23-14.42s-3.75-13.34-3.93-20.26"/><path class="cls-5" d="M119.69,270.73c-.29.6.18,7.64.06,8.13s-6.54,13.42-6.54,13.42l-11,9.68-12.31,0s-17.35-8.51-21.55-10.17-34.81-9.5-34.81-9.5-21.3-4.66-25.84-13-4-22-3-25.63-1.11-13.68,2-20.32S13.84,204,34.88,200.06s41.41-1.51,48.84,8.7,14.41,26.86,14.41,26.86l9.25,10.07S126.33,256.94,119.69,270.73Z"/><path class="cls-4" d="M34.22,268.21c-11.47-2.65-21.79-10.6-26.48-21.39s-3.29-24.22,4.19-33.3c5.43-6.58,13.43-10.56,21.58-13.05,9.88-3,20.51-4.16,30.6-1.92s19.58,8.09,25.07,16.84C93.86,222.84,95.5,232,100.83,239c3.51,4.62,8.38,8,12.57,12s7.86,9.22,7.8,15c-.08,7.5-6.4,13.59-13.25,16.67a38.26,38.26,0,0,1-37.58-4.07c-4.42-3.3-7.7-5.92-13.27-7.29C49.6,269.5,41.75,269.94,34.22,268.21Z"/><path class="cls-4" d="M120.62,274a34.32,34.32,0,0,1-8.23,19.22c-4.77,5.23-11.78,8.59-18.85,8.18-6.37-.37-12.15-3.61-17.9-6.39a139.25,139.25,0,0,0-34.83-11.45c-11.33-2.13-24.08-3.45-31.56-12.22s-6.73-22-3.1-33"/><path class="cls-4" d="M79,263.7l18.35-7.64"/><path class="cls-4" d="M46.37,255.51,85.6,238.73H84.29"/><path class="cls-4" d="M35.12,237.65l31.64-14.3"/><path class="cls-6" d="M186.33,288.86s-5-15.78,8.47-15.07,19.65,0,19.65,0l7.17-8,6,9.34,3.68,5.39-8.94,4.14-4.88,6.72-1.92,10.25-5.6,5.88-8.71-2.43-1.77-6.91.69-4.16-8.53,0Z"/><path class="cls-7" d="M227.66,275.21s-8.6-5.1-.15-16.86c11.2-10.72,15.94-17.16,15.94-17.16s9.15-24.63,19.83-29.23,30.21-10.45,41.1,4.06,11.39,28,6.52,35.59-10.49,14.73-20.37,18-29.55-1.15-36.06,3.06-13.06,8.1-13.06,8.1A16.06,16.06,0,0,1,227.66,275.21Z"/><path class="cls-4" d="M228.82,276.48c3.21,3.37,8.11,5.55,12.59,4.27,3.45-1,6-3.75,9.05-5.68,10.79-6.88,25.1-2.23,37.63-4.86,13.36-2.8,24.2-14.91,25.53-28.49s-7-27.56-19.54-32.9-28.39-1.59-37.24,8.8c-5.43,6.38-8.17,14.57-12.35,21.83-4.38,7.61-10.25,13.4-17,18.9C220.6,264,222.84,270.22,228.82,276.48Z"/><path class="cls-4" d="M271.6,254.41a17.83,17.83,0,0,0,23.69-9.06"/><path class="cls-4" d="M297.63,231.06l.34,4.06"/><path class="cls-4" d="M221.42,267c-.76,4.13-5.06,6.78-9.22,7.35s-8.36-.38-12.56-.67-8.79.25-11.81,3.17c-3.7,3.59-3.59,10.18-.13,14s9.55,4.74,14.25,2.6a8.82,8.82,0,0,0,.6,12.93c3.9,3,10.36,1.53,12.63-2.83,1.9-3.67.92-8.22,2.34-12.1,2-5.51,8.1-8.18,13.58-10.26"/><path class="cls-8" d="M230.63,16.92S243.94.23,253.21,2s8,8.21,8,8.21L256.1,22.17s11.27-2.56,12.14,6.89-7.83,11.05-7.83,11.05,10.86,6.85,5.47,16-25.11-5.18-25.11-5.18Z"/><polygon class="cls-9" points="84.8 65.51 111.8 49.68 152.68 30.18 193.7 14.7 218.64 8.93 227.29 14.34 234 28.25 238.64 47.29 239.61 64.93 233.29 75.68 218.91 79.46 173.42 79.33 121.53 76.11 93.01 72.9 86.79 69.97 84.8 65.51"/><path class="cls-4" d="M232.42,23.62a125.68,125.68,0,0,1,7.32,30.87c.66,6.26.66,13.21-3.34,18.07-4.69,5.71-13,6.45-20.39,6.65A837.31,837.31,0,0,1,94.62,73.67c-4-.48-9.28-2.42-8.79-6.45.28-2.36,2.54-3.9,4.58-5.1C128,40,168.68,21.34,210.62,9.14,222.08,5.81,228.51,13.22,232.42,23.62Z"/><path class="cls-4" d="M174.72,21.68A25,25,0,0,1,185.05,44.5"/><path class="cls-4" d="M159.86,27.31a26.79,26.79,0,0,1,9.94,18.52"/><path class="cls-4" d="M144.59,32.23A27.29,27.29,0,0,1,153.78,54"/><path class="cls-4" d="M131.39,40.5a14.51,14.51,0,0,1,5.67,11"/><path class="cls-4" d="M118.22,48.11a14.78,14.78,0,0,1,6.64,13.34"/><path class="cls-4" d="M230.63,16.92A37.11,37.11,0,0,1,246.82,3.5c3.51-1.5,7.81-2.36,11-.2s3.89,6.73,2.72,10.38-3.82,6.61-6.4,9.45a9.61,9.61,0,0,1,11.59,1.13,9.62,9.62,0,0,1,1.44,11.56,9.63,9.63,0,0,1-11,3.94c3.77,1.77,7.53,4.18,9.4,7.91s1.08,9-2.61,11c-2.1,1.12-4.64,1-7,.5a29.45,29.45,0,0,1-14.45-7.55"/><polygon class="cls-8" points="112.05 167.35 120.12 144.97 128.85 128.04 138.83 122.98 153.96 124.37 167.48 119.67 182.14 115.09 194.47 118.37 208.48 132.55 218.31 124.72 236.07 141.07 237.96 148.15 230.76 154.67 235.88 173.83 232.33 197.72 226.84 214.36 213.25 228.39 200.29 237.03 175.78 241.46 154.27 237.6 139.83 228.48 131.15 218.61 117.69 208.99 112 192.62 107.45 181.48 108.28 169.97 112.05 167.35"/><path class="cls-10" d="M234.64,186.37l-1.36-18-4.9-13s6.62-4.92,6.83-5.35.94-10.16.94-10.16L224.6,127.8l-7.2-3.32-4.26,6-3.18,1.7-7.7-11.71s-14.29-8.28-15.16-8.71-8.79,1.45-8.79,1.45l-7.61,2.63-3.22,3.85s7.77-6.17,17.84,3.18,9.43,9.78,9.43,9.78-31.27,6.6-37.38,3-24.93,2.19-29.61,13.12c-4.21,9.84-5.84,13-6.12,13.49.53-1,8.29-15.17,12.89-16.79,4.77-1.68,12.32-7.91,17.18-7s8.13,4.32,14.65,3.71,23.09-3.09,23.09-3.09l9.25-.09s4.18,9.76-10.11,16.75c.06.46.13.88.22,1.27a23.21,23.21,0,0,0-4.18,2.62l-13.41,15.94s-11.8,12.86-34.6,14.9c11.22,3,30.46-5.24,30.46-5.24s16.51-12.64,22.13-23.14c.39-.73.7-1.35.94-1.91a5,5,0,0,0,3.13,2.11l8.47-3,5.52-9.14a11.76,11.76,0,0,1,1.84,2.21l-6,17.84s-9.14,15.79-16.82,21.46c6.94-2,17.16-14.62,20.08-21.9,1.55-3.86,3.44-9,4.87-13,1.22,3.44,2,8.33,1.09,14.95,4.14-8.91,6.69-16.28,6.69-16.28l5.19,10s1.9,17.19-2.43,26.06S207,233,159.83,223.15c51.31,13.67,62.25-22.55,65.69-33.13s2.61-22.19,2.61-22.19Z"/><path class="cls-4" d="M212.06,132.13l3-6.16a71.13,71.13,0,0,0,16.21,22.19c1,.94,2.31,1.92,3.66,1.59a2.94,2.94,0,0,0,2-2.64,7.43,7.43,0,0,0-.72-3.41,35.76,35.76,0,0,0-18.78-19.22"/><path class="cls-4" d="M235.21,150.08a14.87,14.87,0,0,1-7.43,4.31c10.68,18.25,9.61,44-2,61.7s-33.7,27.84-54.69,25.23c-14-1.75-29.2-7.16-38.56-21.27,2.23-5.59,16-11.87,21.66-9.93,2,.68,4,1.91,6.05,1.61,3.67-.52,5.24-5.24,8.67-6.65,2.89-1.18,6.22.36,8.49,2.51s3.92,4.89,6.29,6.92,5.93,3.22,8.6,1.6c5-3,1.87-11.75,5.89-16,3.19-3.42,9.23-2.24,12.77-5.29,2.35-2,3-5.42,2.85-8.52s-.94-6.16-.82-9.25c.17-4.52,2.22-8.72,3.78-13s2.62-9.05.83-13.21"/><path class="cls-4" d="M133.13,217.68c-11.8-3.14-16.06-8.86-22.44-25,5.7.25,10.66-4.14,13.48-9.11s4.17-10.63,6.76-15.72,7-9.85,12.69-10.39c5-.48,9.62,2.38,14.08,4.7s9.93,4.19,14.36,1.81c2.33-1.25,3.95-3.49,5.93-5.25s4.8-3.11,7.24-2.06c2.15.93,3.21,3.37,5.05,4.82,3.32,2.59,8.46,1.25,11.38-1.79s4.15-7.27,5.29-11.33"/><path class="cls-4" d="M168.48,203.84a22.23,22.23,0,0,0,16-13.62c1.47-3.85,1.82-8,2.69-12.07s2.41-8.16,5.62-10.76"/><path class="cls-4" d="M112.08,191.91c-5.11-4.82-5.39-12.86-4.14-19.78,2-11.24,7-21.7,12-32,2-4.15,4-8.34,7-11.9s6.86-6.48,11.4-7.26c5.24-.9,10.56,1.11,15.86.8,9.12-.53,16.75-7.74,25.84-8.63,6.26-.61,12.52,1.92,17.47,5.8s8.76,9,12.22,14.26"/><path class="cls-11" d="M285,169l-9.62-8.05L269,145.69l-3.76-20.06,3.85-13.78,7-7.85,10.58-1.64,12.64,2.69,10.65,7.89s7.39,4.54,8.47,5,11.21,5,11.21,5L336,127.5l4.29,7.74,0,8.45s-1.95,8.08-2.57,9.41-4.36,6.83-4.36,6.83l-7.51,6.76-15.07,2.58L295.07,172Z"/><path class="cls-4" d="M300.39,118a9.84,9.84,0,0,0,9.68,9"/><path class="cls-4" d="M304.82,123.83a26.49,26.49,0,0,1,10-15.71A12.15,12.15,0,0,1,318.9,106a5.88,5.88,0,0,1,4.47.48"/><path class="cls-4" d="M286.62,102.36c-8.26.39-16.33,5.46-19.59,13.06-3.47,8.1-1.36,17.38.8,25.92a79,79,0,0,0,4.78,14.76c2.23,4.68,5.5,9,10,11.65A26.89,26.89,0,0,0,296.42,171c5.71,0,11.34-1.22,16.92-2.42,7.24-1.55,14.94-3.34,20.06-8.69,3.7-3.86,5.56-9.13,6.6-14.37.85-4.3,1.19-8.91-.49-13-2.47-5.94-8.65-9.39-14.62-11.79-7.23-2.92-12.82-5.49-18.47-10.85A27.53,27.53,0,0,0,286.62,102.36Z"/></g></g></svg>