<svg width="147" height="288" viewBox="0 0 147 288" fill="none" xmlns="http://www.w3.org/2000/svg">
<path opacity="0.4" d="M115.163 274.887C132.212 267.728 142.65 253.87 138.478 243.936C134.306 234.001 117.103 231.751 100.055 238.911C83.0068 246.07 72.5686 259.927 76.7407 269.862C80.9127 279.797 98.1151 282.046 115.163 274.887Z" fill="#D6D8E5"/>
<path opacity="0.4" d="M69.9557 266.381C73.7838 256.309 62.8754 242.819 45.5911 236.249C28.3069 229.68 11.192 232.52 7.36394 242.592C3.53588 252.664 14.4443 266.155 31.7285 272.724C49.0127 279.293 66.1277 276.453 69.9557 266.381Z" fill="#D6D8E5"/>
<path opacity="0.4" d="M120.472 222.511C124.3 212.438 113.392 198.948 96.1078 192.379C78.8235 185.81 61.7086 188.65 57.8805 198.722C54.0525 208.794 64.9609 222.284 82.2451 228.853C99.5294 235.422 116.644 232.583 120.472 222.511Z" fill="#D6D8E5"/>
<path d="M110.494 205.908C107.804 208.108 103.834 206.098 103.634 206.298C100.471 209.234 97.1526 211.997 93.6941 214.578C92.0141 215.898 89.4041 217.658 89.8741 220.198C90.7241 224.738 97.9841 223.338 100.724 221.948C103.464 220.558 105.724 218.268 108.294 216.658C110.144 215.508 111.964 214.908 112.294 212.578C112.424 211.168 110.974 205.858 110.494 205.908Z" fill="#2B303F"/>
<path d="M112.215 211.628C111.865 213.868 110.065 214.488 108.215 215.628C105.575 217.258 103.215 219.628 100.515 221.008C97.9846 222.288 91.6745 223.568 89.8945 220.328C90.8945 224.698 97.9946 223.328 100.705 221.948C103.415 220.568 105.705 218.268 108.275 216.658C110.125 215.508 111.945 214.908 112.275 212.578C112.292 212.26 112.272 211.942 112.215 211.628V211.628Z" fill="#3A4151"/>
<path d="M87.1342 197.228C84.4442 199.418 79.7241 197.028 79.5241 197.228C76.7241 200.064 73.7625 202.735 70.6541 205.228C68.9741 206.548 66.3541 208.318 66.8341 210.848C67.6741 215.388 74.9441 213.998 77.6841 212.608C80.4241 211.218 82.6842 208.918 85.2542 207.308C87.1042 206.158 88.9242 205.568 89.2042 203.228C89.3842 201.828 87.6042 197.168 87.1342 197.228Z" fill="#2B303F"/>
<path d="M89.1242 202.618C88.7742 204.858 86.9742 205.468 85.1242 206.618C82.4842 208.258 80.1242 210.618 77.4242 212.008C74.8942 213.288 68.5842 214.558 66.8042 211.318C67.8042 215.698 74.9042 214.318 77.6142 212.948C80.3242 211.578 82.6142 209.258 85.1842 207.648C87.0342 206.498 88.8542 205.908 89.1842 203.568C89.2021 203.25 89.1819 202.932 89.1242 202.618V202.618Z" fill="#3A4151"/>
<path d="M69.1445 48.5084C69.1445 48.5084 69.2245 52.8984 68.6945 63.7584C68.5065 71.8804 68.8707 80.0058 69.7845 88.0784C70.5863 94.4651 72.325 100.699 74.9445 106.578C76.8745 97.2884 74.6345 95.6584 74.6345 95.6584L75.7345 75.9184C75.7345 75.9184 74.6345 56.8584 75.0745 50.0884C75.3445 45.7884 69.1445 48.5084 69.1445 48.5084Z" fill="#FFCEA9"/>
<path d="M110.584 106.488C110.454 110.558 109.184 128.238 108.584 137.608C107.984 146.978 107.884 158.438 107.884 158.438C107.884 158.438 109.504 165.248 110.544 173.268C111.584 181.288 110.544 206.578 110.544 206.578C109.517 207.239 108.321 207.59 107.099 207.59C105.878 207.59 104.682 207.239 103.654 206.578C103.654 206.578 99.3442 186.328 97.3442 177.208C95.3442 168.088 95.0042 162.838 93.9642 157.208C92.7142 150.368 89.9642 118.458 89.9642 118.458L88.8842 118.518L86.0042 154.518C86.8939 157.174 87.5039 159.916 87.8242 162.698C88.6042 168.568 86.9942 198.098 86.9942 198.098C85.8441 198.737 84.5401 199.046 83.2256 198.991C81.9112 198.937 80.6373 198.52 79.5443 197.788C79.5443 197.788 72.3442 158.688 72.3442 152.728C72.3442 148.798 73.0143 96.8984 73.0143 96.8984L110.584 106.488Z" fill="#8C50FF"/>
<path d="M96.1043 51.5084C94.6143 52.1884 91.7543 51.8284 88.9343 50.7484C86.8659 50.0148 84.9628 48.8798 83.3343 47.4084C82.1147 46.3867 81.3402 44.9308 81.1743 43.3484C81.0143 38.9684 82.3343 35.1484 83.7443 33.6584C84.0015 33.3199 84.3697 33.0827 84.7843 32.9884L85.5043 32.8284L85.9443 32.6984C86.0843 32.6984 86.2343 32.6084 86.3943 32.5784C90.5843 31.3284 100.804 27.7784 100.804 27.7784C100.804 27.7784 100.354 36.6684 100.544 37.4484C100.582 37.5686 100.647 37.6782 100.734 37.7684C101.343 38.4004 102.013 38.9699 102.734 39.4684C102.944 39.6384 103.174 39.7984 103.394 39.9684C104.394 40.6884 105.314 41.3784 105.784 41.7684C106.904 42.7184 99.6343 49.8884 96.1043 51.5084Z" fill="#FFCEA9"/>
<path d="M112.495 50.5784C112.495 51.0284 112.495 51.5284 112.425 52.0684C112.095 57.0684 111.045 61.6784 110.085 67.0684C109.905 68.0684 109.735 69.0684 109.565 70.0684C109.395 71.0684 109.245 72.1284 109.105 73.1884C108.906 74.8706 108.833 76.5653 108.885 78.2584C108.885 82.2584 109.345 86.9184 109.835 91.3884C109.995 92.7884 110.155 94.1584 110.315 95.4784C110.375 96.0784 110.445 96.6584 110.525 97.2284C110.915 100.508 111.255 103.378 111.365 105.318C111.155 105.774 110.893 106.204 110.585 106.598C109.276 108.199 107.543 109.398 105.585 110.058C105.095 110.248 104.585 110.428 104.055 110.588C103.235 110.848 102.375 111.078 101.485 111.278C99.4584 111.761 97.3756 111.962 95.2946 111.878C94.4165 111.849 93.5412 111.762 92.6746 111.618C92.1846 111.538 91.6746 111.448 91.1746 111.338C90.6746 111.228 89.8646 111.018 89.1746 110.818C86.6065 110.012 84.1324 108.932 81.7946 107.598C79.4343 106.315 77.3213 104.622 75.5545 102.598C74.551 101.452 73.7098 100.174 73.0545 98.7984C72.7758 98.2146 72.5548 97.6051 72.3945 96.9784C72.3945 96.9784 72.5545 68.2084 72.3945 58.7884C72.3945 56.5084 72.3945 54.4284 72.4745 52.5284C72.4653 52.3885 72.4653 52.2482 72.4745 52.1084C72.5545 50.4884 72.6745 48.9884 72.8445 47.5884C73.1846 44.4935 73.8379 41.4412 74.7946 38.4784C75.9135 35.3493 78.1552 32.7476 81.0845 31.1784V31.1784C81.368 31.1263 81.6569 31.1095 81.9445 31.1284C83.3263 31.2939 84.6455 31.7989 85.7845 32.5984C85.8514 32.6324 85.915 32.6726 85.9745 32.7184C86.6645 33.1384 87.1245 33.5084 87.2145 33.5684C86.7488 33.963 86.3443 34.4247 86.0146 34.9384C83.3946 38.9384 83.8746 47.0184 86.3846 49.4884C95.3746 48.5984 101.785 38.9884 101.785 38.9884C101.785 38.9884 102.065 39.1284 102.685 39.4784L103.385 39.9084C104.385 40.5284 105.965 41.5284 108.145 43.0784C108.305 43.1984 108.465 43.3084 108.625 43.4084C110.925 44.9984 112.165 45.4884 112.415 48.5184C112.415 48.5684 112.415 48.6084 112.415 48.6584C112.505 49.2184 112.515 49.8384 112.495 50.5784Z" fill="#DD7A7A"/>
<path d="M105.424 110.348C106.754 108.858 109.064 100.558 110.424 95.3485C111.699 89.4353 111.956 83.348 111.184 77.3485C109.994 70.1885 106.724 60.2885 105.784 56.1885C104.844 52.0885 106.074 50.3485 107.904 48.6885C110.044 46.7485 113.224 47.3285 115.284 53.0285C117.974 60.9203 119.775 69.0874 120.654 77.3785C121.137 83.5476 120.6 89.7541 119.064 95.7485C117.684 101.308 115.674 105.378 113.064 110.498C112.364 111.888 110.764 115.778 109.734 118.598C108.704 121.418 104.194 111.718 105.424 110.348Z" fill="#FFCEA9"/>
<path d="M103.414 39.9184C103.414 39.9184 103.414 39.9184 103.414 39.9884C101.804 42.0984 96.2444 48.8584 88.9744 50.7484C88.1947 50.9613 87.3986 51.1084 86.5944 51.1884L85.8043 51.2684L85.2344 50.7084C84.3556 49.7758 83.7172 48.6432 83.3744 47.4084C82.7662 45.3702 82.5125 43.2426 82.6244 41.1184C82.67 38.7059 83.3124 36.3422 84.4944 34.2384C84.7931 33.7333 85.1524 33.2665 85.5644 32.8484C85.6427 32.7603 85.7262 32.6768 85.8144 32.5984C85.9316 32.478 86.0587 32.3676 86.1944 32.2684L86.4544 32.5984L87.2444 33.5984L88.3144 34.9284C88.1763 35.0399 88.0521 35.1674 87.9444 35.3084C86.8644 36.4784 86.1444 38.7184 86.0244 41.3084C85.8403 43.4972 86.2298 45.6961 87.1544 47.6884C93.9644 46.4584 99.5544 39.4484 100.784 37.8084C101.393 38.4404 102.063 39.0099 102.784 39.5084L103.414 39.9184Z" fill="#D5D7E2"/>
<path d="M80.7845 14.5684C81.7845 7.67838 86.7845 2.45838 93.8645 2.84838C96.7406 2.97406 99.5035 4.00519 101.759 5.79454C104.014 7.5839 105.646 10.04 106.422 12.8122C107.199 15.5844 107.079 18.531 106.081 21.2313C105.083 23.9315 103.257 26.2475 100.865 27.8484C100.616 28.8877 100.247 29.8945 99.7646 30.8484C97.2546 33.7884 89.6545 35.6084 87.4645 35.2984C84.6645 34.8984 83.1445 33.7284 81.8145 30.6584C79.4145 25.2084 80.1545 17.9884 80.7845 14.5684Z" fill="#FFCEA9"/>
<path d="M100.785 27.7984L100.135 21.7984C100.135 21.7984 105.045 9.0784 93.4445 11.5184C85.7745 13.1384 83.8545 13.8384 81.5245 8.6984C79.1945 3.5584 87.4145 -1.0716 97.1745 0.218402C100.538 0.568904 103.647 2.17102 105.885 4.70691C108.123 7.2428 109.325 10.5272 109.255 13.9084C109.035 17.6784 108.035 25.3284 100.785 27.7984Z" fill="#3A4151"/>
<path d="M120.694 62.3084C120.694 62.3084 114.354 68.6084 106.864 66.7984C105.794 66.0684 103.224 51.3384 103.224 51.3384C103.224 51.3384 103.224 43.1784 109.474 43.3984C115.724 43.6184 120.694 62.3084 120.694 62.3084Z" fill="#DD7A7A"/>
<path d="M81.1543 31.2384C79.0866 33.1099 77.2984 35.2686 75.8443 37.6484C73.8443 41.0784 73.0143 47.4784 72.7143 51.1784C72.5743 52.9084 72.5443 54.0384 72.5443 54.0384C72.5443 54.0384 68.3143 54.5484 66.9443 52.6184C67.0699 51.6017 67.284 50.5978 67.5843 49.6184C69.2843 43.6484 74.1843 31.9884 81.1543 31.2384Z" fill="#DD7A7A"/>
<path d="M10.4443 99.8284C10.0343 103.378 5.7943 118.708 6.7043 123.958C7.6143 129.208 22.0943 137.958 22.0943 137.958L24.0943 128.958L16.0943 121.098L18.2643 106.208L10.4443 99.8284Z" fill="#FFCEA9"/>
<path d="M21.6442 84.7185C20.2349 84.0681 18.6361 83.9573 17.1505 84.407C15.665 84.8567 14.3961 85.8357 13.5842 87.1585C11.4542 90.6885 9.23418 102.788 9.03418 104.858C9.03418 104.858 12.0342 108.988 16.5142 108.298L21.6442 84.7185Z" fill="#EDEDED"/>
<path d="M38.1842 255.618C41.3346 256.488 44.7008 256.082 47.5542 254.488C49.8142 254.558 62.0642 249.308 63.7342 253.708C65.1942 257.568 59.8842 261.148 57.0442 261.828C50.8542 263.328 46.2742 266.418 43.7942 266.938C41.9442 267.328 39.5442 267.588 38.0642 266.128C36.2942 264.388 36.4542 257.918 38.1842 255.618Z" fill="#2B303F"/>
<path d="M43.7841 265.868C46.2641 265.348 50.8441 262.258 57.0341 260.758C59.4141 260.188 63.5042 257.588 63.9242 254.488C64.4742 258.038 59.6841 261.188 57.0341 261.828C50.8441 263.328 46.2641 266.418 43.7841 266.938C41.9341 267.328 39.5341 267.588 38.0541 266.128C37.6723 265.705 37.3949 265.198 37.2441 264.648C38.1641 265.347 39.2344 265.821 40.3698 266.032C41.5051 266.244 42.6743 266.188 43.7841 265.868V265.868Z" fill="#3A4151"/>
<path d="M18.3044 246.698C21.4585 247.562 24.8256 247.157 27.6844 245.568C29.9344 245.628 42.1944 240.388 43.8544 244.788C45.3144 248.648 40.0144 252.218 37.1744 252.908C30.9844 254.408 26.4044 257.488 23.9144 258.018C22.0644 258.408 19.6644 258.658 18.1944 257.208C16.4244 255.458 16.5744 248.988 18.3044 246.698Z" fill="#2B303F"/>
<path d="M23.9143 256.988C26.4043 256.458 30.9843 253.378 37.1743 251.878C39.5443 251.298 43.6443 248.698 44.0543 245.608C44.6043 249.158 39.8143 252.308 37.1743 252.948C30.9843 254.448 26.4043 257.528 23.9143 258.058C22.0643 258.448 19.6643 258.698 18.1943 257.248C17.8124 256.825 17.535 256.318 17.3843 255.768C18.3023 256.467 19.3709 256.94 20.5047 257.152C21.6384 257.364 22.8061 257.308 23.9143 256.988Z" fill="#3A4151"/>
<path d="M23.6843 84.9884C26.6043 85.1284 28.7843 85.8784 29.1543 84.9884C29.4544 83.4688 29.6648 81.9328 29.7843 80.3884C29.4443 79.5384 29.1543 78.6284 29.1543 78.6284C25.4743 76.3684 24.3143 72.3884 23.8343 67.7584C23.0043 59.8484 27.2843 52.9284 35.1943 52.0984C42.6243 51.3284 48.0943 56.5484 49.5543 63.7284C50.3443 67.2684 51.9143 73.9684 49.7943 79.7984C48.6143 83.0484 47.0843 85.6384 45.5643 86.1384C44.0911 86.1053 42.6214 85.9784 41.1643 85.7584V85.7584C41.1643 85.7584 40.7743 87.9584 40.5043 89.3684C40.2343 90.7784 40.3343 91.5184 43.1443 93.2484C45.9543 94.9784 38.8943 98.5384 34.2843 98.1884C29.6743 97.8384 24.4943 95.0584 23.0743 92.0784C21.5343 88.7484 21.6743 84.8384 23.6843 84.9884Z" fill="#FFCEA9"/>
<path d="M27.9143 85.3684C27.1043 87.3684 29.1643 89.8684 34.6643 91.5884C40.1643 93.3084 40.6643 91.0984 40.6643 91.0984C40.6643 91.0984 48.7243 94.7684 51.3443 96.6084C54.6543 98.9084 56.1143 105.608 56.5543 116.858C57.0743 129.858 57.1143 149.258 56.6843 152.598C56.6843 152.598 50.5143 158.748 42.6243 158.098C34.7343 157.448 21.4443 150.458 18.2243 145.098C18.3143 133.658 19.6443 131.798 17.7943 125.208C13.5643 110.128 11.3243 103.948 13.3843 93.9284C15.0843 85.6684 17.4643 84.6384 20.7343 84.7184C23.1375 84.807 25.5343 85.024 27.9143 85.3684V85.3684Z" fill="#F4F4F4"/>
<path d="M68.9645 127.648C62.4945 129.278 60.9645 125.198 60.1145 121.808C58.0545 113.618 56.9445 106.228 55.4045 101.578C53.6045 96.0984 51.7045 95.2284 49.0345 94.1584C45.9145 92.8984 43.2245 95.5484 44.2645 102.518C45.4945 110.778 47.1145 116.518 50.1945 126.338C51.0045 128.888 52.8145 133.418 55.5145 135.608C58.8545 138.308 63.8945 138.198 71.5145 136.298C74.7545 135.488 78.3245 133.548 84.4645 130.688C86.1145 129.918 87.3945 129.398 90.5645 127.928C93.7422 126.5 96.5279 124.325 98.6845 121.588C100.344 119.188 100.564 118.058 100.224 117.508C99.8845 116.958 99.0445 116.978 98.1645 117.988C96.8835 119.694 95.3048 121.154 93.5045 122.298C93.5045 122.298 95.5045 120.188 96.6545 118.808C97.6479 117.592 98.4721 116.246 99.1045 114.808C99.6945 113.408 98.4845 111.508 97.5745 112.498C96.6645 113.488 96.2145 114.498 94.5745 116.498C93.6949 117.571 92.6874 118.531 91.5745 119.358C92.6177 117.953 93.5441 116.465 94.3445 114.908C95.049 113.696 95.3957 112.309 95.3445 110.908C95.3445 110.178 94.2645 109.308 93.3445 110.698C92.3845 111.988 91.7845 113.898 89.7845 115.988C88.3045 117.528 87.0445 118.408 87.0045 117.988C86.9645 117.568 87.9045 116.718 88.4345 114.928C88.9645 113.138 88.4345 111.248 87.4345 111.038C86.4345 110.828 86.6345 110.888 85.8445 112.568C85.0545 114.248 83.8445 115.478 82.8945 117.918C82.3963 119.64 81.4829 121.213 80.2345 122.498C78.6545 124.218 75.1245 126.098 68.9645 127.648Z" fill="#FFCEA9"/>
<path d="M46.6443 93.0384C50.9643 92.3984 54.0243 94.3484 55.9343 100.898C57.8443 107.448 59.1843 112.838 59.1843 112.838C57.4685 115.307 54.8754 117.027 51.9343 117.648C46.7543 118.898 44.9343 116.428 44.9343 116.428C44.9343 116.428 43.5043 109.558 42.6043 104.878C41.7043 100.198 41.2843 93.8284 46.6443 93.0384Z" fill="#EDEDED"/>
<path d="M49.3443 62.6784C49.3443 62.6784 56.1843 52.2884 41.3443 50.1784C30.6943 48.6484 23.7843 55.5084 23.0343 62.9884C22.2743 70.0984 26.6543 77.4884 29.8243 80.4184C31.3643 80.9684 34.6843 81.2884 39.0543 79.3084C39.226 77.3701 39.2927 75.424 39.2543 73.4784C39.2543 73.4784 34.0543 62.4984 49.3443 62.6784Z" fill="#3A4151"/>
<path d="M137.784 102.988C137.784 102.988 136.634 120.248 134.374 122.728C132.114 125.208 124.454 126.908 124.454 126.908L118.564 136.608C118.564 136.608 123.944 105.758 125.114 105.018C126.284 104.278 137.784 102.988 137.784 102.988Z" fill="#FFCEA9"/>
<path d="M126.435 83.8185C127.869 83.1537 129.498 83.0391 131.011 83.4963C132.525 83.9535 133.818 84.9507 134.645 86.2985C136.815 89.8885 139.065 102.218 139.275 104.298C139.275 104.298 136.225 108.498 131.665 107.798L126.435 83.8185Z" fill="#434B5B"/>
<path d="M108.964 256.038C105.754 256.928 102.322 256.514 99.4141 254.888C97.1141 254.958 84.6341 249.618 82.9341 254.098C81.4541 258.028 86.8541 261.668 89.7441 262.368C96.0541 263.898 100.744 267.038 103.244 267.568C105.134 267.968 107.574 268.228 109.074 266.748C110.884 264.988 110.724 258.388 108.964 256.038Z" fill="#38226D"/>
<path d="M103.245 266.478C100.715 265.948 96.0545 262.808 89.7445 261.278C87.3245 260.688 83.1545 258.048 82.7445 254.888C82.1845 258.508 87.0645 261.718 89.7445 262.368C96.0545 263.898 100.745 267.038 103.245 267.568C105.135 267.968 107.575 268.228 109.075 266.748C109.469 266.319 109.754 265.801 109.905 265.238C108.969 265.952 107.879 266.436 106.722 266.651C105.565 266.866 104.374 266.807 103.245 266.478V266.478Z" fill="#9C73FF"/>
<path d="M128.394 249.988C125.187 250.877 121.759 250.464 118.854 248.838C116.554 248.908 104.074 243.568 102.374 248.048C100.884 251.978 106.294 255.618 109.184 256.318C115.484 257.848 120.184 260.988 122.684 261.518C124.564 261.918 127.014 262.178 128.514 260.698C130.314 258.908 130.164 252.328 128.394 249.988Z" fill="#38226D"/>
<path d="M122.684 260.428C120.144 259.888 115.484 256.748 109.184 255.218C106.764 254.638 102.594 251.988 102.184 248.828C101.624 252.448 106.504 255.658 109.184 256.308C115.484 257.838 120.184 260.978 122.684 261.508C124.564 261.908 127.014 262.168 128.514 260.688C128.905 260.257 129.189 259.74 129.344 259.178C128.408 259.89 127.318 260.373 126.162 260.59C125.006 260.807 123.815 260.752 122.684 260.428Z" fill="#9C73FF"/>
<path d="M129.784 214.878C129.25 210.242 128.285 205.666 126.904 201.208C126.904 201.208 127.764 189.418 128.194 178.208C128.684 165.518 133.084 154.348 129.614 144.208L90.9541 152.808C90.9541 152.808 92.8241 203.518 93.3441 209.648C93.6328 214.417 94.2206 219.163 95.1041 223.858C96.8841 233.678 98.8341 255.668 98.8341 255.668C102.974 258.068 109.044 256.088 109.044 256.088C109.044 256.088 109.044 228.568 108.804 221.488C108.474 212.848 108.214 213.488 108.214 213.488L109.514 191.958L110.354 181.248C110.354 181.248 111.444 189.108 112.144 196.128C112.764 202.248 114.244 207.788 115.894 219.178C117.324 229.068 118.794 249.178 118.794 249.178C122.944 251.578 128.514 249.928 128.514 249.928C128.514 249.928 130.894 223.458 129.784 214.878Z" fill="#C1C4D3"/>
<path d="M124.354 83.9884C121.354 84.1384 119.154 84.8984 118.784 83.9884C118.462 82.4505 118.235 80.8942 118.104 79.3284C118.444 78.4684 118.744 77.5384 118.744 77.5384C122.484 75.2284 123.674 71.1784 124.164 66.4684C125.004 58.4084 120.654 51.3584 112.594 50.5184C105.014 49.7284 99.4442 55.0484 97.9542 62.3584C97.1542 65.9684 95.5642 72.7884 97.7142 78.7284C98.9242 82.0384 100.474 84.7284 102.024 85.1884C103.528 85.1518 105.027 85.0216 106.514 84.7984C106.514 84.7984 106.914 87.0384 107.194 88.4784C107.474 89.9184 107.364 90.6684 104.504 92.4784C101.644 94.2884 108.824 97.8684 113.504 97.4784C118.184 97.0884 123.504 94.2884 124.924 91.2584C126.544 87.9184 126.404 83.9284 124.354 83.9884Z" fill="#FFCEA9"/>
<path d="M120.044 84.4685C120.864 86.5285 118.774 89.0484 113.164 90.8084C107.554 92.5684 107.064 90.3084 107.064 90.3084C107.064 90.3084 98.8544 94.0484 96.1744 95.9184C92.8144 98.2684 91.3244 105.068 90.8744 116.548C90.3444 129.838 90.3044 149.548 90.7444 152.948C90.7444 152.948 97.0244 159.208 105.064 158.548C113.104 157.888 126.634 150.778 129.914 145.278C129.824 133.628 128.464 131.738 130.354 125.018C134.664 109.658 136.944 103.368 134.844 93.1584C133.114 84.7384 130.684 83.6985 127.364 83.7785C124.914 83.8773 122.47 84.1077 120.044 84.4685V84.4685Z" fill="#434B5B"/>
<path d="M97.7843 163.178L101.874 116.908L93.2543 112.338L89.8843 115.158L90.8843 156.718V157.858L90.9443 159.318C90.9443 159.318 90.7443 162.818 97.3443 166.998C97.3443 166.998 97.4543 165.908 97.5443 164.878L97.6943 163.158L97.7843 163.178Z" fill="#FFCEA9"/>
<path d="M98.8344 93.0584C94.3844 92.9684 91.5444 95.3284 90.4644 102.198C89.3844 109.068 88.7144 114.678 88.7144 114.678C90.7653 116.955 93.6098 118.362 96.6644 118.608C102.054 119.208 103.614 116.468 103.614 116.468C103.614 116.468 104.184 109.338 104.484 104.468C104.784 99.5984 104.344 93.1684 98.8344 93.0584Z" fill="#434B5B"/>
<path d="M98.2142 61.3684C98.2142 61.3684 91.2142 50.7784 106.334 48.6284C117.214 47.0684 124.204 54.0584 125.014 61.6284C125.784 68.8684 121.324 76.3984 118.104 79.3784C116.534 79.9384 113.104 80.2684 108.704 78.2484C108.526 76.2737 108.455 74.2907 108.494 72.3084C108.494 72.3084 113.784 61.1784 98.2142 61.3684Z" fill="#3A2C6D"/>
<path d="M18.0644 213.398C18.5949 208.851 19.5422 204.362 20.8944 199.988C20.8944 199.988 20.0544 188.408 19.6244 177.428C19.1444 164.968 14.8244 153.998 18.2344 144.058L56.6844 152.608C56.6844 152.608 54.3544 202.288 53.8444 208.298C53.5606 212.98 52.9828 217.639 52.1144 222.248C50.3644 231.898 47.5144 254.838 47.5144 254.838C43.4444 257.198 38.1044 255.838 38.1044 255.838C38.1044 255.838 38.4044 226.838 38.6644 219.838C38.9844 211.348 39.2444 211.998 39.2444 211.998L37.9744 190.988L37.1344 180.468C37.1344 180.468 36.0744 188.188 35.3844 195.078C34.7844 201.078 33.3244 206.528 31.7044 217.708C30.3044 227.418 28.0244 246.918 28.0244 246.918C23.9544 249.278 18.4344 247.318 18.4344 247.318C18.4344 247.318 16.9644 221.818 18.0644 213.398Z" fill="#916F5D"/>
<path d="M72.7143 51.1784C72.5743 52.9084 72.5443 54.0384 72.5443 54.0384C72.5443 54.0384 68.3143 54.5484 66.9443 52.6184C67.0699 51.6017 67.284 50.5979 67.5843 49.6184C68.2949 50.2028 69.1138 50.6414 69.994 50.9091C70.8743 51.1767 71.7987 51.2683 72.7143 51.1784V51.1784Z" fill="#D5D7E2"/>
</svg>
