<svg id="图层_1" data-name="图层 1" xmlns="http://www.w3.org/2000/svg" viewBox="0 0 566.93 566.93"><defs><style>.cls-1{opacity:0.37;}.cls-2{fill:#7c7b7c;}.cls-3{fill:#686868;}.cls-4{fill:#8c8b8b;}.cls-5{fill:#727272;}.cls-6{fill:#c0bfbf;}.cls-7{fill:#ddd;}.cls-8{fill:#fff;}</style></defs><title>错误页面</title><g class="cls-1"><polygon class="cls-2" points="376.45 199.88 382.82 191.27 386.19 391.9 376.45 387.07 376.45 199.88"/><polygon class="cls-3" points="180.6 191.27 189.27 199.88 376.45 199.88 382.82 191.27 180.6 191.27"/><path class="cls-4" d="M241,391.9H386.19l-9.74-4.83H239C239.75,388.65,240.41,390.26,241,391.9Z"/><path class="cls-5" d="M175.42,117.23l4.82,68.92a5.51,5.51,0,0,0,5.5,5.12h192a5.51,5.51,0,0,0,5.5-5.11l5.06-68.91a5.52,5.52,0,0,0-5.5-5.92H180.92A5.51,5.51,0,0,0,175.42,117.23Z"/><path class="cls-5" d="M111.24,388.29a70.17,70.17,0,0,1,64.17-41.79A71,71,0,0,1,184,347l-3.25-150.42a6.36,6.36,0,0,0-5.4-6.16l-60.72-9.33a6.37,6.37,0,0,0-7.34,6.41l3.36,198.09A6.2,6.2,0,0,0,111.24,388.29Z"/><path class="cls-2" d="M189.27,347.88v-148l-8.67-8.62L184,347C185.75,347.26,187.52,347.53,189.27,347.88Z"/><path class="cls-6" d="M239,387.07H376.45V199.89H189.27v148A70.25,70.25,0,0,1,239,387.07Z"/><path class="cls-5" d="M245.11,408.82a70.16,70.16,0,0,1,80.76,46.24A70.13,70.13,0,0,1,387,416.68l-.56-17a8,8,0,0,0-8-7.78H241A70.08,70.08,0,0,1,245.11,408.82Z"/><path class="cls-5" d="M383.64,391.84l51.18-1.43a69.87,69.87,0,0,1,33-16.39l-3.27-191.39a2.24,2.24,0,0,0-2.64-2.17c-12.27,2.25-64.33,11.73-76.64,13a2.23,2.23,0,0,1-2.47-2.23l-1.48,198.31A2.24,2.24,0,0,0,383.64,391.84Z"/></g><path class="cls-7" d="M417.7,162.71c-.12-3.69-4.23-6.66-9.28-6.65s-9.15,3-9.26,6.67c-4,.77-6.94,3.43-6.94,6.6,0,3.77,4.17,6.81,9.29,6.8A11.69,11.69,0,0,0,406.6,175a4.13,4.13,0,0,1,3.63,0,11.69,11.69,0,0,0,5.09,1.12c5.13,0,9.27-3.07,9.27-6.83C424.58,166.12,421.66,163.48,417.7,162.71Z"/><path class="cls-7" d="M156.52,141.06c.14-6-6.3-11.22-14.54-11.65-6.23-.32-11.72,2.18-14.23,6-2.56-3.08-7-5.25-12.24-5.52-8.23-.42-15.16,4.06-15.66,10.07-6.58.89-11.62,5-11.88,10.15-.32,6.13,6.19,11.45,14.54,11.88a19.09,19.09,0,0,0,8.39-1.4,6.75,6.75,0,0,1,5.91.3,19.12,19.12,0,0,0,8.21,2.27,18.38,18.38,0,0,0,10.25-2.35,17.28,17.28,0,0,0,2.1-.72,6.71,6.71,0,0,1,5.91.3,19.07,19.07,0,0,0,8.2,2.26c8.35.43,15.38-4.19,15.69-10.32C167.44,147.21,162.9,142.66,156.52,141.06Z"/><rect class="cls-6" x="252.11" y="262.56" width="29" height="1.75"/><rect class="cls-6" x="281.11" y="262.95" width="75.15" height="0.98"/><circle class="cls-6" cx="217.79" cy="236.66" r="23.24"/><path class="cls-8" d="M214.1,225.23h7.49l-.83,14.58h-5.83Zm3.74,25.2a11,11,0,0,1-1.94-.14,1.79,1.79,0,0,1-1.59-1.62,12.53,12.53,0,0,1-.1-1.8,12.84,12.84,0,0,1,.1-1.82,1.94,1.94,0,0,1,.49-1.08,2.06,2.06,0,0,1,1.1-.52,12.69,12.69,0,0,1,3.89,0,2,2,0,0,1,1.09.52,1.82,1.82,0,0,1,.49,1.08,12.63,12.63,0,0,1,.11,1.82,12.32,12.32,0,0,1-.11,1.8,1.94,1.94,0,0,1-.49,1.08,2,2,0,0,1-1.09.54A11,11,0,0,1,217.84,250.43Z"/><path class="cls-6" d="M277.17,233.36h-2.35v4.23H271v-4.23h-1.56c0,.49-.08.94-.13,1.34a9.43,9.43,0,0,1-.21,1.15,8.58,8.58,0,0,1-.34,1.09,12,12,0,0,1-.51,1.12l-3.8-.9a3.91,3.91,0,0,0,.18-.35l.16-.33-2.3.07v1.17h-4v-1q-1.59,0-3,.12l-2.37.11-.1-3.06,2.55-.07,2.92-.09v-1.19h-4.36V230q.28-.39.6-.87c.22-.32.43-.64.64-1h-1.67v-2.85h3.2l.37-.87,4,.1-.4.77h3.94v2.85h-5.6c-.21.36-.43.7-.65,1l-.65,1h1.48v-1.32h3v1h2.14v2.72h-2.14v1.06l1.27,0,1.14-.06,0,2.86a11.66,11.66,0,0,0,.49-1.26,9.71,9.71,0,0,0,.32-1.36c.08-.49.13-1,.17-1.68s.05-1.35.05-2.18V225.3c1.94-.06,3.75-.14,5.42-.26s3.19-.24,4.55-.38l1,3.52-1.61.15q-.9.09-1.86.15l-2,.12-1.91.08v1.5h7.69Zm-21.52,5h19.14v10.28H255.65Zm4.15,2.43v1.3h10.65v-1.3Zm10.65,5.13v-1.38H259.8v1.38Z"/><path class="cls-6" d="M303.44,241.84c0,.62,0,1.2-.08,1.76s-.11,1.09-.18,1.6a3.46,3.46,0,0,1-1.18,2.44,5.36,5.36,0,0,1-3,.81c-1.57.05-3.12.05-4.68,0a4.3,4.3,0,0,1-2.81-.94,3.87,3.87,0,0,1-1-3v-3.12a19.07,19.07,0,0,1-3.33,3.91,43.73,43.73,0,0,1-5,3.86l-3.33-4c1.21-.7,2.28-1.38,3.21-2a23.71,23.71,0,0,0,2.44-2,11.74,11.74,0,0,0,1.77-2,11.35,11.35,0,0,0,1.19-2.23h-7.35v-4.26h8.25c0-.45.07-.93.09-1.42s0-1,0-1.56h-7.29v-4.21h20.32v4.21h-8.3v0c0,.53,0,1,0,1.54s-.05,1-.08,1.42h9.46v4.26H292.42c-.07.23-.14.45-.2.67s-.14.44-.22.65l2.9.08V243a1.21,1.21,0,0,0,.32.91,1.45,1.45,0,0,0,.87.36,8.66,8.66,0,0,0,1.61,0,1.75,1.75,0,0,0,.91-.31,1.45,1.45,0,0,0,.44-1c.05-.38.09-.76.12-1.12s.05-.75.07-1.17Z"/><path class="cls-6" d="M326.12,241.13a21,21,0,0,0,1.78,1.94c.66.64,1.39,1.3,2.18,2l-2.35,3.88c-.74-.7-1.43-1.41-2.08-2.12s-1.24-1.44-1.81-2.18a26.15,26.15,0,0,1-2,2.22c-.74.72-1.59,1.47-2.52,2.24l-1.53-2-.93,1.66-1.85-1.1c-.63-.37-1.28-.74-1.93-1.09-.77.42-1.64.83-2.6,1.24s-2.07.82-3.32,1.24l-2-3.27,2.18-.64c.69-.21,1.34-.42,1.94-.63-.42-.21-.84-.42-1.26-.61l-1.22-.58c.21-.37.41-.74.59-1.1s.37-.72.54-1.07H306v-3h3.1q.12-.32.21-.63l.15-.64,4,.37-.12.44c0,.15-.09.3-.14.46h5v2.88a12,12,0,0,1-.84,1.64,9.61,9.61,0,0,1-1.11,1.45c.3.14.59.28.88.4s.58.26.86.4a18.35,18.35,0,0,0,3.7-3.78c-.35-.67-.67-1.34-1-2a15.41,15.41,0,0,1-.73-2l-.66.89-.77-2.24-1.42,1.74c-.39-.35-.85-.75-1.39-1.19s-1-.81-1.42-1.11v1.32h-3.51v-1.48a13.32,13.32,0,0,1-3.67,2.59l-1.64-3a17.47,17.47,0,0,0,2.23-1,15.14,15.14,0,0,0,1.89-1.27H306V229.1h1.53c-.09-.23-.19-.5-.32-.8s-.25-.62-.38-.93-.26-.6-.37-.87a6.93,6.93,0,0,0-.31-.65l2.88-1.08c.11.17.23.42.38.72l.43,1,.45,1,.38.85-1.87.79h2v-4.57l3.51.1v3.26c.15-.23.31-.5.48-.8l.53-.9.49-.83c.15-.25.26-.45.33-.59l2.91,1.32c-.08.14-.17.33-.31.58a8.3,8.3,0,0,1-.46.78c-.18.27-.35.55-.53.85s-.33.55-.47.8h1.32v3.28h-4.29v2l1.54-1.8.95.7,1.16.86-.05-.19a19.68,19.68,0,0,0,2.06-4.61,34.47,34.47,0,0,0,1.11-4.87l3.81.34c-.09.49-.18,1-.28,1.43s-.2.9-.3,1.32h5V232h-.76a38.88,38.88,0,0,1-.84,5A19,19,0,0,1,326.12,241.13Zm-14.28.05-.6,1,.86.4.83.37a5.52,5.52,0,0,0,.67-.77,11.18,11.18,0,0,0,.65-1Zm2.43-12.08h1.19l-1.19-.66Zm8.23,3.75a19.6,19.6,0,0,0,1.21,4.29,18.24,18.24,0,0,0,.74-2.48q.29-1.28.48-2.7h-2Z"/><path class="cls-6" d="M351.25,238.27v1.32h3.57v9.07H343.9v-7.24a25.48,25.48,0,0,1-.92,4.16,18.77,18.77,0,0,1-1.51,3.5l-3.49-2.4a3.24,3.24,0,0,1-.29,1.12,1.58,1.58,0,0,1-.63.65,3.46,3.46,0,0,1-1.1.36c-.45.07-1,.15-1.65.22l-1.27.13-1.14-4.23.85-.13.6-.1a1.33,1.33,0,0,0,.42-.18.7.7,0,0,0,.25-.33,1.75,1.75,0,0,0,.08-.58v-3l-1.32.28c-.41.08-.76.16-1.06.25l-.32-4.36,2.7-.51v-3.72h-1.91v-4.13h1.91v-3.85l3.91.1v3.75h1.74v4.13H338v3l1.67-.37,0,4.31-.77.17-.92.2v6.5a21.61,21.61,0,0,0,1.2-2.69,16.78,16.78,0,0,0,.78-2.9,31.89,31.89,0,0,0,.43-3.56c.08-1.33.13-2.9.13-4.7v-7.26h14.53v8.16h-3.83v1.4h4.57v3.49Zm-3.75,0h-3.28c0,.23,0,.46,0,.68a4.48,4.48,0,0,1-.07.64h3.39Zm-3.12-9.46v1.43h6.82v-1.43Zm3.12,4.57h-3.12v1.4h3.12ZM351,242.9H347.6v2.27H351Z"/><path class="cls-6" d="M250.41,276l-.65.3-.78.33v3.67a2,2,0,0,1,0,.47.62.62,0,0,1-.18.28.84.84,0,0,1-.34.17,3.12,3.12,0,0,1-.52.07l-.71.06-.12-.4.74-.06a3.14,3.14,0,0,0,.39,0,.67.67,0,0,0,.24-.11.56.56,0,0,0,.12-.2,1.58,1.58,0,0,0,0-.34v-3.4l-1.71.71-.1-.39.79-.33,1-.43v-2.63H247v-.42h1.54v-2.34l.4,0v2.31h1.54v.42H249v2.46l.73-.32.6-.27.05.2Zm-.31-1.14a13.41,13.41,0,0,0,1.24-1.89,13.17,13.17,0,0,0,.92-2.09l.38.13c-.09.26-.18.51-.29.76s-.21.5-.33.75h4.44l-.1,5.56a1.86,1.86,0,0,1-.1.6.74.74,0,0,1-.26.38,1.06,1.06,0,0,1-.48.21,5.8,5.8,0,0,1-.73.09l-.84.07-.12-.45.9-.05a5.81,5.81,0,0,0,.61-.07.76.76,0,0,0,.35-.15.49.49,0,0,0,.18-.28,2.58,2.58,0,0,0,.06-.47c0-.08,0-.25,0-.5s0-.55,0-.89,0-.7,0-1.09,0-.75,0-1.1,0-.65,0-.91,0-.45,0-.55h-4.22a15.46,15.46,0,0,1-1.42,2.21Zm7.24,4.13a1.88,1.88,0,0,1,0,.19l0,.33,0,.36a1.78,1.78,0,0,0,0,.28,2.3,2.3,0,0,1-.13.57.9.9,0,0,1-.25.35,1.16,1.16,0,0,1-.42.19,3.22,3.22,0,0,1-.62.07,32.32,32.32,0,0,1-3.41,0,3.92,3.92,0,0,1-.69-.1,1,1,0,0,1-.46-.23.91.91,0,0,1-.26-.42,2.35,2.35,0,0,1-.08-.65v-5.19h3.36v3.17h-3v1.91a2,2,0,0,0,.06.53.69.69,0,0,0,.19.32.87.87,0,0,0,.36.18,2.75,2.75,0,0,0,.56.07,25.8,25.8,0,0,0,3.29,0,2.84,2.84,0,0,0,.49-.06.83.83,0,0,0,.3-.14.73.73,0,0,0,.17-.27,2.84,2.84,0,0,0,.11-.46c0-.06,0-.15,0-.26l0-.36c0-.13,0-.24,0-.34v-.18Zm-6-3.84v2.35h2.58V275.1Z"/><path class="cls-6" d="M264.2,280.19l-.35-.36-.48-.45-.49-.45c-.16-.15-.3-.26-.4-.34v3.09h-.36v-3.81h-1.27v3.81h-.36v-3.06a6.84,6.84,0,0,1-.84,1.25,12.89,12.89,0,0,1-1.09,1.15l-.23-.33a9.6,9.6,0,0,0,1.25-1.31,6.35,6.35,0,0,0,.9-1.51h-1.61v-.36h1.62V276.2h-2v-.36h2v-1.3h-1.6v-.35h1.6v-1.43H258.8v-.35h3.32c.08-.1.17-.23.26-.37s.19-.29.29-.44l.25-.45.22-.41.34.17c-.11.2-.25.45-.42.73s-.33.55-.48.77h2.05v.35h-2.15v1.43h1.61v1.65h1.07v.36h-1.07v1.67h-1.61v.63l.19-.23.38.32.52.46.51.47.37.38Zm-3.58-7.89c-.13-.2-.27-.42-.44-.66l-.51-.66.31-.2c.17.2.34.42.51.65a8,8,0,0,1,.45.68Zm.23,1.89h1.27v-1.43h-1.27Zm0,1.65h1.27v-1.3h-1.27Zm1.27,1.67V276.2h-1.27v1.31Zm.36-3v1.3h1.26v-1.3Zm1.26,1.66h-1.26v1.31h1.26Zm2.87-1a8.32,8.32,0,0,0,.71,3.47,7.45,7.45,0,0,0,1.92,2.57l-.26.32a8.24,8.24,0,0,1-1.6-1.95,7.88,7.88,0,0,1-.9-2.47,8.72,8.72,0,0,1-.31,1.29,6.46,6.46,0,0,1-.5,1.14,7.16,7.16,0,0,1-.74,1.05,13.59,13.59,0,0,1-1,1l-.27-.3a10.92,10.92,0,0,0,1.21-1.3,5.83,5.83,0,0,0,.81-1.35,6.8,6.8,0,0,0,.44-1.55,15.1,15.1,0,0,0,.14-1.91c0-.14,0-.28,0-.42V274l.35,0v.42c0,.12,0,.25,0,.39Zm-2.05,0a17.77,17.77,0,0,0,.85-2.15,19.88,19.88,0,0,0,.55-2.18l.36.07c-.06.33-.14.65-.22,1s-.17.65-.27,1h2.85v.38l-.87,2.35-.35-.09.84-2.26h-2.59c-.11.35-.24.7-.37,1.05s-.29.69-.45,1Z"/><path class="cls-6" d="M271.83,282.1a8.47,8.47,0,0,0,.83-1.51,3.51,3.51,0,0,0,.31-1.39h.54a2.77,2.77,0,0,1-.12.8,5.16,5.16,0,0,1-.28.78c-.12.24-.25.48-.39.71s-.29.43-.42.61Z"/><path class="cls-6" d="M285.39,275.92l-1.6.12-1.32.1v-.36l1.33-.09,1.6-.12v-1.2h-2.21v-.31a8.82,8.82,0,0,0,.5-.75c.18-.29.35-.6.52-.92h-1.5v-.34h1.67c.11-.22.21-.44.3-.64s.17-.39.24-.56l.37.11c-.13.33-.29.69-.48,1.09h2.94v.34h-3.11c-.16.3-.32.6-.49.89s-.33.54-.48.75h1.73V272.9l.38,0V274h1.78v.34h-1.78v1.17l1-.07.84-.07v.35l-.84.06-1,.08v1.19h-.38Zm-1.19,1.41h6.92v4.26h-.43v-.66h-6.08v.69h-.41Zm.41.35V279h6.08v-1.31Zm6.08,2.9v-1.26h-6.08v1.26Zm2.25-6.24h-1.8v2.55h-.39v-2.55H288.6a5.7,5.7,0,0,1-.08.77,3.28,3.28,0,0,1-.19.66,3.38,3.38,0,0,1-.36.63,7.6,7.6,0,0,1-.58.69l-.3-.23a6.52,6.52,0,0,0,.6-.74,2.93,2.93,0,0,0,.35-.68,3.34,3.34,0,0,0,.16-.74c0-.26,0-.58,0-.94v-1.71a17.32,17.32,0,0,0,1.9-.3c.65-.13,1.31-.3,1.95-.49l.12.37c-.61.19-1.23.34-1.84.48s-1.2.23-1.74.29V274h4.32Z"/><path class="cls-6" d="M294.93,272h3.19v8.49h-3.19Zm.38.43V276h2.43v-3.58Zm2.43,7.62v-3.62h-2.43V280Zm7.14-6.14H303V280a2.34,2.34,0,0,1-.07.65.72.72,0,0,1-.24.39,1.17,1.17,0,0,1-.49.2,4.82,4.82,0,0,1-.78.08l-1.13.06-.12-.42,1.16,0a4.57,4.57,0,0,0,.66-.08.79.79,0,0,0,.37-.15.51.51,0,0,0,.18-.3,1.6,1.6,0,0,0,.05-.48v-6h-4.09v-.43h4.09v-2.62l.41,0v2.59h1.84ZM301,278.1l-.38-.68c-.16-.28-.33-.57-.51-.86s-.34-.56-.51-.82-.3-.47-.4-.62l.34-.19c.11.15.25.35.42.61s.34.53.51.83.35.57.51.85.28.5.38.68Z"/><path class="cls-6" d="M308.4,276l-.52-.43c-.2-.16-.41-.33-.63-.49l-.63-.48c-.2-.16-.38-.28-.52-.38l.24-.33c.14.09.32.2.52.35l.63.48c.22.16.43.33.63.49s.38.31.52.44Zm.21,1.44c-.1.26-.22.56-.37.92s-.3.72-.47,1.09-.34.73-.51,1.08-.32.64-.45.88l-.39-.17c.14-.24.29-.54.47-.89s.34-.71.51-1.08.32-.73.47-1.09.27-.65.37-.91l.21.1Zm.45-4.13c-.12-.12-.29-.26-.48-.42l-.6-.5-.6-.48-.48-.35.24-.34.47.36.59.47.6.5.48.41Zm7.43,8.32a22.42,22.42,0,0,1-2.21-.91,13.53,13.53,0,0,1-1.77-1,17.37,17.37,0,0,1-4.14,2l-.21-.39a16.53,16.53,0,0,0,4-1.87,6,6,0,0,1-2.2-2.84l.37-.18a5.64,5.64,0,0,0,.81,1.48,6.86,6.86,0,0,0,1.37,1.3,7.87,7.87,0,0,0,1.44-1.36,5.47,5.47,0,0,0,.84-1.53h-5.44v-.4h5.9v.39a5.7,5.7,0,0,1-.9,1.68,7.11,7.11,0,0,1-1.48,1.47,12.86,12.86,0,0,0,1.7.95,18.74,18.74,0,0,0,2.12.84Zm-7.32-6.41a4.15,4.15,0,0,0,.79-.54,2.52,2.52,0,0,0,.47-.54,1.8,1.8,0,0,0,.23-.58,3.55,3.55,0,0,0,.06-.67v-1.22h3.76v2.13a.76.76,0,0,0,.15.54.9.9,0,0,0,.6.15h1.19l0,.42h-1.24a1.37,1.37,0,0,1-.84-.21.92.92,0,0,1-.27-.76v-1.88h-2.87V273a3.82,3.82,0,0,1-.06.68,2.06,2.06,0,0,1-.26.64,2.9,2.9,0,0,1-.52.62,4.91,4.91,0,0,1-.86.61Z"/><path class="cls-6" d="M321.77,272.87q-.24.45-.51.87c-.19.27-.38.55-.58.82h6v5.68a1.83,1.83,0,0,1-.06.51.63.63,0,0,1-.21.33.84.84,0,0,1-.39.19,3.22,3.22,0,0,1-.62.07l-1.15.06-.12-.4,1.17,0a3,3,0,0,0,.51-.06.85.85,0,0,0,.3-.12.47.47,0,0,0,.13-.24,2.06,2.06,0,0,0,0-.39v-1h-5.74v2.32h-.39v-6.32c-.35.41-.71.8-1.1,1.18s-.8.74-1.24,1.1l-.21-.39a19.09,19.09,0,0,0,2.05-1.95,13.34,13.34,0,0,0,1.61-2.25h-3.18v-.4h3.41q.21-.39.39-.81c.12-.27.24-.56.35-.84l.42.1c-.1.28-.21.54-.33.8s-.23.5-.36.75h6.27v.4Zm4.54,2.09h-5.74v1.72h5.74Zm0,3.84v-1.74h-5.74v1.74Z"/><path class="cls-6" d="M334.2,281l-.7-.39-.86-.43a6.85,6.85,0,0,1-1.33.75,17.91,17.91,0,0,1-1.88.72l-.15-.36a16.68,16.68,0,0,0,1.74-.63,9.53,9.53,0,0,0,1.25-.67l-1-.49-.94-.43c.12-.19.23-.38.34-.59s.23-.41.34-.61h-1.48v-.36h1.66a9.61,9.61,0,0,0,.42-1l.37.12c-.05.14-.11.28-.17.42s-.13.29-.2.44h2.78v.34a5.67,5.67,0,0,1-.56,1.13,4.33,4.33,0,0,1-.84.94l.74.37.68.35Zm-4.84-4.53a9.8,9.8,0,0,0,1.61-1.11,7.49,7.49,0,0,0,1.16-1.23H329.6v-.36h2.61V271l.39,0v2.72h2.31v.36H332.6v2.34h-.39v-1.92a7,7,0,0,1-1.12,1.18,12.86,12.86,0,0,1-1.55,1.08Zm1.86-3.22-.29-.4c-.1-.15-.21-.3-.33-.46l-.33-.43a4.4,4.4,0,0,0-.27-.35l.27-.2.27.35.33.44c.12.15.23.31.34.46l.28.39Zm-.38,5.66c.24.1.52.22.83.37l1,.46a3.7,3.7,0,0,0,.8-.84,6.67,6.67,0,0,0,.55-1h-2.55c-.09.18-.19.36-.29.54A5.09,5.09,0,0,1,330.84,278.88Zm3.83-2.34c-.12-.12-.26-.26-.43-.41l-.52-.45a6.47,6.47,0,0,0-.51-.43l-.41-.32.23-.29.41.33.51.43.52.45.43.39Zm.16-5c-.08.12-.18.24-.29.39s-.23.29-.34.45l-.34.45c-.12.14-.22.27-.3.38l-.28-.21c.09-.12.19-.25.31-.39l.34-.45.34-.45c.11-.14.2-.27.27-.37Zm2.53,7.08a9,9,0,0,0,1.13,1.36,17.15,17.15,0,0,0,1.51,1.31l-.24.33a14,14,0,0,1-1.49-1.3,11.12,11.12,0,0,1-1.15-1.35,8.89,8.89,0,0,1-1.21,1.35,16.88,16.88,0,0,1-1.66,1.33l-.24-.35a16,16,0,0,0,1.67-1.33,8.48,8.48,0,0,0,1.2-1.36,8.07,8.07,0,0,1-.88-1.85,9.87,9.87,0,0,1-.46-2.18c-.11.19-.21.38-.3.55l-.3.51-.32-.28a8.49,8.49,0,0,0,.57-1c.19-.37.37-.76.53-1.16s.31-.8.45-1.19a9.54,9.54,0,0,0,.3-1.13l.39.09c-.07.32-.16.66-.27,1s-.25.72-.38,1.09h3.73v.43H338.8c-.06.57-.12,1.09-.2,1.57a10.34,10.34,0,0,1-.29,1.35,10,10,0,0,1-.4,1.17A7.23,7.23,0,0,1,337.36,278.66ZM335.82,274a11.74,11.74,0,0,0,.44,2.34,8,8,0,0,0,.85,1.94,8,8,0,0,0,.86-2.07,15.34,15.34,0,0,0,.43-2.68H336a1.46,1.46,0,0,0-.1.23A2.56,2.56,0,0,1,335.82,274Z"/><path class="cls-6" d="M345,275.77l-.65.31-.77.38v3.84a2.11,2.11,0,0,1-.05.49.51.51,0,0,1-.18.3,1,1,0,0,1-.37.15,5,5,0,0,1-.59.09l-.63.06-.11-.4.68-.05a3.82,3.82,0,0,0,.45-.05.57.57,0,0,0,.26-.1.38.38,0,0,0,.13-.21,1.83,1.83,0,0,0,0-.37v-3.57l-1,.47-.78.37-.1-.4.82-.38,1.08-.5v-2.46h-1.6v-.39h1.6V271l.38,0v2.35h1.33v.39h-1.33V276l.71-.33q.33-.18.6-.3l.06.21Zm4.08.51V278h2v3.66h-.39v-.71H347v.73h-.4V278h2v-1.69h-2.8c0,.59-.06,1.12-.12,1.58a7.3,7.3,0,0,1-.26,1.3,7.06,7.06,0,0,1-.43,1.14,12.29,12.29,0,0,1-.64,1.14l-.36-.22a8.56,8.56,0,0,0,.7-1.27,6.51,6.51,0,0,0,.43-1.29,9.58,9.58,0,0,0,.23-1.55q.06-.84.06-2v-3.41h5.8v2.57h-5.4v1.27c0,.13,0,.25,0,.37h2.8v-1.33l.41,0v1.3h3v.38Zm-3.2-4.19v1.8h5v-1.8Zm4.79,6.25H347v2.2h3.59Z"/><path class="cls-6" d="M355.8,281.63a1.51,1.51,0,0,1-1-.34,1.41,1.41,0,0,1,0-2,1.63,1.63,0,0,1,2,0,1.2,1.2,0,0,1,.42,1,1.35,1.35,0,0,1-.12.59,1,1,0,0,1-.31.42,1.24,1.24,0,0,1-.45.25A1.53,1.53,0,0,1,355.8,281.63Zm0-.37a1.08,1.08,0,0,0,.71-.25.91.91,0,0,0,.29-.73.89.89,0,0,0-.29-.72,1,1,0,0,0-.71-.25,1,1,0,0,0-.7.25.86.86,0,0,0-.29.72.88.88,0,0,0,.29.73A1.05,1.05,0,0,0,355.8,281.26Z"/><path class="cls-6" d="M259.57,291.74l-.39,0-.36,0-.29-.06-.19-.06v-.29l.22.08.29.06.34,0,.38,0a1.41,1.41,0,0,0,.84-.21.77.77,0,0,0,.29-.68,1,1,0,0,0-.06-.38.64.64,0,0,0-.18-.27,1.52,1.52,0,0,0-.34-.19c-.14-.05-.3-.1-.5-.15a4,4,0,0,1-.54-.16,1,1,0,0,1-.36-.2.69.69,0,0,1-.2-.3,1.27,1.27,0,0,1-.06-.43,1,1,0,0,1,.31-.78,1.45,1.45,0,0,1,1-.28H260l.28,0,.26.05.2.06v.27a2.47,2.47,0,0,0-.47-.12,3.28,3.28,0,0,0-.56,0,1.3,1.3,0,0,0-.75.18.69.69,0,0,0-.26.62.93.93,0,0,0,0,.31.44.44,0,0,0,.14.22,1,1,0,0,0,.3.17,2.58,2.58,0,0,0,.48.14,4.3,4.3,0,0,1,.57.18,1.28,1.28,0,0,1,.4.23.76.76,0,0,1,.24.34,1.37,1.37,0,0,1,.07.49,1,1,0,0,1-.36.88A1.77,1.77,0,0,1,259.57,291.74Z"/><path class="cls-6" d="M263,291.74a2,2,0,0,1-.63-.09,1,1,0,0,1-.43-.28,1.2,1.2,0,0,1-.24-.52,3.5,3.5,0,0,1-.08-.79,3.59,3.59,0,0,1,.08-.8,1.32,1.32,0,0,1,.24-.52,1,1,0,0,1,.43-.28,2.3,2.3,0,0,1,.63-.08,2.25,2.25,0,0,1,.63.08,1,1,0,0,1,.44.28,1.33,1.33,0,0,1,.25.52,3.59,3.59,0,0,1,.08.8,3.5,3.5,0,0,1-.08.79,1.2,1.2,0,0,1-.25.52.93.93,0,0,1-.44.28A1.91,1.91,0,0,1,263,291.74Zm0-.25a1.65,1.65,0,0,0,.54-.07.66.66,0,0,0,.34-.25,1.19,1.19,0,0,0,.18-.44,3.21,3.21,0,0,0,.05-.67,3.31,3.31,0,0,0-.05-.68,1.19,1.19,0,0,0-.18-.44.73.73,0,0,0-.35-.24,1.56,1.56,0,0,0-.53-.08,1.6,1.6,0,0,0-.53.08.76.76,0,0,0-.34.24,1,1,0,0,0-.17.44,3.31,3.31,0,0,0-.05.68,3.21,3.21,0,0,0,.05.67,1,1,0,0,0,.17.44.71.71,0,0,0,.34.25A1.62,1.62,0,0,0,263,291.49Z"/><path class="cls-6" d="M266.74,288.38v.24h-.07a1.55,1.55,0,0,0-.31,0,.81.81,0,0,0-.29.12.89.89,0,0,0-.25.23,1.42,1.42,0,0,0-.18.37v2.31h-.27v-3.24h.27V289a1.29,1.29,0,0,1,.18-.33,1,1,0,0,1,.27-.19,1,1,0,0,1,.3-.1,1.51,1.51,0,0,1,.3,0Z"/><path class="cls-6" d="M268.77,288.38v.24h-.07a1.55,1.55,0,0,0-.31,0,.74.74,0,0,0-.29.12.89.89,0,0,0-.25.23,1.42,1.42,0,0,0-.18.37v2.31h-.27v-3.24h.27V289a.88.88,0,0,1,.18-.33,1.15,1.15,0,0,1,.26-.19,1.18,1.18,0,0,1,.3-.1,1.62,1.62,0,0,1,.3,0Z"/><path class="cls-6" d="M269.26,292.64a1.23,1.23,0,0,0,.35-.05.74.74,0,0,0,.27-.16,1,1,0,0,0,.21-.3,3.79,3.79,0,0,0,.19-.47L269,288.44h.28l1.14,2.88h0l1.05-2.88h.28l-1.21,3.25a3.31,3.31,0,0,1-.2.49,1.79,1.79,0,0,1-.25.38,1,1,0,0,1-.35.23,1.24,1.24,0,0,1-.5.09Z"/><path class="cls-6" d="M271.38,292.49a4,4,0,0,0,.42-.75,1.87,1.87,0,0,0,.15-.69h.27a1.44,1.44,0,0,1-.06.4,2.46,2.46,0,0,1-.14.38,2.08,2.08,0,0,1-.2.36l-.21.3Z"/><path class="cls-6" d="M275.51,291.47h.23l.2,0v.25l-.21,0h-.21a2.09,2.09,0,0,1-.38,0,.53.53,0,0,1-.25-.15.7.7,0,0,1-.14-.3,2.55,2.55,0,0,1,0-.52v-2h-.52v-.24h.52v-.77H275v.77h.89v.24H275v2a3.21,3.21,0,0,0,0,.36.55.55,0,0,0,.09.23.28.28,0,0,0,.16.12A.68.68,0,0,0,275.51,291.47Z"/><path class="cls-6" d="M277.89,288.38a1.56,1.56,0,0,1,.52.07.8.8,0,0,1,.32.2.74.74,0,0,1,.17.33,1.81,1.81,0,0,1,.05.43v2.27h-.27v-2.1a1.89,1.89,0,0,0,0-.44.68.68,0,0,0-.12-.3.49.49,0,0,0-.25-.16,1.16,1.16,0,0,0-.4-.06l-.33,0a.88.88,0,0,0-.32.12.8.8,0,0,0-.26.23,1.34,1.34,0,0,0-.16.4v2.28h-.27v-4.56h.27V289a.59.59,0,0,1,.16-.29.86.86,0,0,1,.26-.2,1.59,1.59,0,0,1,.33-.1A2,2,0,0,1,277.89,288.38Z"/><path class="cls-6" d="M282.41,289.7v.14c0,.05,0,.1,0,.17l-2.29.16a2.68,2.68,0,0,0,.06.61,1,1,0,0,0,.19.41.83.83,0,0,0,.36.23,1.75,1.75,0,0,0,.55.07,3.5,3.5,0,0,0,.54-.05,1.51,1.51,0,0,0,.48-.15v.26l-.18.06a1,1,0,0,1-.25.06l-.3.05-.3,0a2,2,0,0,1-.65-.09.88.88,0,0,1-.44-.28,1.23,1.23,0,0,1-.26-.51,3.59,3.59,0,0,1-.08-.8,3.53,3.53,0,0,1,.08-.8,1.2,1.2,0,0,1,.25-.52.92.92,0,0,1,.43-.28,2.32,2.32,0,0,1,.64-.08,1.39,1.39,0,0,1,.63.12.85.85,0,0,1,.36.31,1.06,1.06,0,0,1,.15.42A2.56,2.56,0,0,1,282.41,289.7Zm-.26.09a3.43,3.43,0,0,0,0-.48,1,1,0,0,0-.12-.37.7.7,0,0,0-.29-.24,1.34,1.34,0,0,0-.5-.08,1.87,1.87,0,0,0-.52.07.71.71,0,0,0-.34.24.91.91,0,0,0-.18.41,2.64,2.64,0,0,0-.06.6Z"/><path class="cls-6" d="M284.74,288.38l0,.24h-.07a1.63,1.63,0,0,0-.31,0,.81.81,0,0,0-.29.12.75.75,0,0,0-.24.23,1,1,0,0,0-.18.37v2.31h-.27v-3.24h.27V289a.88.88,0,0,1,.18-.33,1,1,0,0,1,.26-.19,1.06,1.06,0,0,1,.3-.1,1.51,1.51,0,0,1,.3,0Z"/><path class="cls-6" d="M287.63,289.7v.14c0,.05,0,.1,0,.17l-2.29.16a2.68,2.68,0,0,0,.06.61,1,1,0,0,0,.19.41.83.83,0,0,0,.36.23,1.75,1.75,0,0,0,.55.07,3.5,3.5,0,0,0,.54-.05,1.51,1.51,0,0,0,.48-.15v.26l-.18.06a1,1,0,0,1-.25.06l-.3.05-.31,0a2,2,0,0,1-.64-.09.88.88,0,0,1-.44-.28,1.23,1.23,0,0,1-.26-.51,3.59,3.59,0,0,1-.08-.8,3.53,3.53,0,0,1,.08-.8,1.1,1.1,0,0,1,.25-.52.92.92,0,0,1,.43-.28,2.32,2.32,0,0,1,.64-.08,1.39,1.39,0,0,1,.63.12.85.85,0,0,1,.36.31,1.06,1.06,0,0,1,.15.42A2.56,2.56,0,0,1,287.63,289.7Zm-.26.09a3.43,3.43,0,0,0,0-.48,1,1,0,0,0-.12-.37.7.7,0,0,0-.29-.24,1.34,1.34,0,0,0-.5-.08,1.87,1.87,0,0,0-.52.07.66.66,0,0,0-.34.24.91.91,0,0,0-.18.41,2.64,2.64,0,0,0-.06.6Z"/><path class="cls-6" d="M290.15,287.72a.21.21,0,0,1-.15,0s0-.07,0-.16,0-.14,0-.17a.28.28,0,0,1,.15,0,.24.24,0,0,1,.14,0,.3.3,0,0,1,0,.17.24.24,0,0,1,0,.16A.18.18,0,0,1,290.15,287.72Zm-.14.72h.27v3.24H290Z"/><path class="cls-6" d="M292.13,291.71a4.1,4.1,0,0,1-.5,0,3.87,3.87,0,0,1-.43-.07v-.26a3.51,3.51,0,0,0,.42.08,4.12,4.12,0,0,0,.51,0,1,1,0,0,0,.64-.16.55.55,0,0,0,.21-.48.9.9,0,0,0,0-.25.5.5,0,0,0-.13-.19.89.89,0,0,0-.24-.14,2.09,2.09,0,0,0-.38-.13l-.43-.12a1.3,1.3,0,0,1-.29-.16.63.63,0,0,1-.16-.24.88.88,0,0,1-.06-.35.77.77,0,0,1,.29-.66,1.27,1.27,0,0,1,.76-.21,3.79,3.79,0,0,1,.49,0l.35.07,0,.27a1.67,1.67,0,0,0-.37-.09,2.28,2.28,0,0,0-.45,0,1,1,0,0,0-.56.14.54.54,0,0,0-.22.49.67.67,0,0,0,.05.26.46.46,0,0,0,.13.18l.22.11.31.08c.18.05.33.09.46.14a1.15,1.15,0,0,1,.31.18.68.68,0,0,1,.18.26,1,1,0,0,1,.06.37.81.81,0,0,1-.27.64A1.23,1.23,0,0,1,292.13,291.71Z"/><path class="cls-6" d="M296.91,288.38a1.56,1.56,0,0,1,.52.07.8.8,0,0,1,.32.2.74.74,0,0,1,.17.33,1.81,1.81,0,0,1,.05.43v2.27h-.27v-2.1a1.89,1.89,0,0,0,0-.44.68.68,0,0,0-.12-.3.49.49,0,0,0-.25-.16,1.16,1.16,0,0,0-.4-.06l-.33,0a.88.88,0,0,0-.32.12.8.8,0,0,0-.26.23,1.12,1.12,0,0,0-.16.4v2.28h-.27v-3.24h.27V289a.59.59,0,0,1,.16-.29.86.86,0,0,1,.26-.2,1.59,1.59,0,0,1,.33-.1A2,2,0,0,1,296.91,288.38Z"/><path class="cls-6" d="M300.26,291.74a1.91,1.91,0,0,1-.63-.09.9.9,0,0,1-.43-.28,1.2,1.2,0,0,1-.24-.52,3.5,3.5,0,0,1-.08-.79,3.59,3.59,0,0,1,.08-.8,1.32,1.32,0,0,1,.24-.52,1,1,0,0,1,.43-.28,2.52,2.52,0,0,1,1.26,0,1,1,0,0,1,.44.28,1.48,1.48,0,0,1,.25.52,3.66,3.66,0,0,1,.07.8,3.56,3.56,0,0,1-.07.79,1.33,1.33,0,0,1-.25.52.93.93,0,0,1-.44.28A1.91,1.91,0,0,1,300.26,291.74Zm0-.25a1.65,1.65,0,0,0,.54-.07.66.66,0,0,0,.34-.25,1.19,1.19,0,0,0,.18-.44,4.08,4.08,0,0,0,.05-.67,4.21,4.21,0,0,0-.05-.68,1.19,1.19,0,0,0-.18-.44.73.73,0,0,0-.35-.24,1.8,1.8,0,0,0-1.06,0,.76.76,0,0,0-.34.24,1,1,0,0,0-.17.44,3.31,3.31,0,0,0-.05.68,3.21,3.21,0,0,0,.05.67,1,1,0,0,0,.17.44.71.71,0,0,0,.34.25A1.62,1.62,0,0,0,300.26,291.49Z"/><path class="cls-6" d="M306.53,287.12v4.56h-.22l0-.73a1,1,0,0,1-.13.32.82.82,0,0,1-.24.25,1.07,1.07,0,0,1-.34.16,1.68,1.68,0,0,1-.47.06,1.5,1.5,0,0,1-.6-.11.87.87,0,0,1-.39-.32,1.45,1.45,0,0,1-.2-.52,3.23,3.23,0,0,1-.07-.73,2.93,2.93,0,0,1,.07-.69,1.5,1.5,0,0,1,.2-.53,1,1,0,0,1,.39-.34,1.34,1.34,0,0,1,.6-.12,2,2,0,0,1,.46.05,1.19,1.19,0,0,1,.34.16,1,1,0,0,1,.23.23,1,1,0,0,1,.14.3v-2Zm-1.39,4.37a1.11,1.11,0,0,0,.54-.11.84.84,0,0,0,.35-.29,1.27,1.27,0,0,0,.19-.46,2.57,2.57,0,0,0,0-.57,2.52,2.52,0,0,0,0-.57A1.27,1.27,0,0,0,306,289a.79.79,0,0,0-.35-.3,1.24,1.24,0,0,0-.54-.11,1.3,1.3,0,0,0-.52.1.78.78,0,0,0-.31.29,1.14,1.14,0,0,0-.15.45,3.69,3.69,0,0,0,0,1.21,1.14,1.14,0,0,0,.16.45.7.7,0,0,0,.31.28A1.23,1.23,0,0,0,305.14,291.49Z"/><path class="cls-6" d="M308.9,288.38a1.65,1.65,0,0,1,.59.08.86.86,0,0,1,.35.21.76.76,0,0,1,.17.32,1.7,1.7,0,0,1,0,.4v2.29h-.22l-.05-.58a1,1,0,0,1-.48.47,1.83,1.83,0,0,1-.79.17,1.13,1.13,0,0,1-.83-.25.92.92,0,0,1-.26-.69,1.08,1.08,0,0,1,.1-.51.91.91,0,0,1,.27-.31,1.19,1.19,0,0,1,.4-.15,2.74,2.74,0,0,1,.5,0h1.09v-.36a1.18,1.18,0,0,0,0-.34.55.55,0,0,0-.13-.25.69.69,0,0,0-.28-.16,1.87,1.87,0,0,0-.45-.05,2.18,2.18,0,0,0-.35,0,2.5,2.5,0,0,0-.38.06v-.27l.38-.05Zm-.39,3.1a1.63,1.63,0,0,0,.82-.19.94.94,0,0,0,.45-.56V290h-1a3,3,0,0,0-.45,0,.81.81,0,0,0-.32.11.5.5,0,0,0-.2.23.9.9,0,0,0-.07.4C307.69,291.26,308,291.48,308.51,291.48Z"/><path class="cls-6" d="M312,291.47h.22l.21,0v.25l-.21,0H312a2,2,0,0,1-.38,0,.48.48,0,0,1-.25-.15.6.6,0,0,1-.14-.3,2.55,2.55,0,0,1,0-.52v-2h-.53v-.24h.53v-.77h.27v.77h.89v.24h-.89v2a1.84,1.84,0,0,0,0,.36.56.56,0,0,0,.08.23.3.3,0,0,0,.17.12A.68.68,0,0,0,312,291.47Z"/><path class="cls-6" d="M314.24,288.38a1.61,1.61,0,0,1,.59.08.8.8,0,0,1,.35.21.67.67,0,0,1,.17.32,1.29,1.29,0,0,1,0,.4v2.29h-.23l0-.58a1,1,0,0,1-.49.47,1.79,1.79,0,0,1-.78.17,1.16,1.16,0,0,1-.84-.25.91.91,0,0,1-.25-.69,1.23,1.23,0,0,1,.09-.51.84.84,0,0,1,.28-.31,1.11,1.11,0,0,1,.4-.15,2.67,2.67,0,0,1,.5,0h1.09v-.36a1.18,1.18,0,0,0,0-.34.56.56,0,0,0-.14-.25.59.59,0,0,0-.27-.16,1.89,1.89,0,0,0-.46-.05,2.06,2.06,0,0,0-.34,0,2.32,2.32,0,0,0-.38.06v-.27l.37-.05Zm-.39,3.1a1.63,1.63,0,0,0,.82-.19.92.92,0,0,0,.46-.56V290h-1.06a2.94,2.94,0,0,0-.44,0,.71.71,0,0,0-.32.11.52.52,0,0,0-.21.23,1.09,1.09,0,0,0-.06.4C313,291.26,313.31,291.48,313.85,291.48Z"/><path class="cls-6" d="M319.19,288.38a1.61,1.61,0,0,1,.59.08.8.8,0,0,1,.35.21.78.78,0,0,1,.18.32,1.7,1.7,0,0,1,0,.4v2.29h-.23l0-.58a1,1,0,0,1-.49.47,1.79,1.79,0,0,1-.78.17,1.16,1.16,0,0,1-.84-.25.91.91,0,0,1-.25-.69,1.23,1.23,0,0,1,.09-.51.84.84,0,0,1,.28-.31,1.11,1.11,0,0,1,.4-.15,2.67,2.67,0,0,1,.5,0h1.09v-.36a1.18,1.18,0,0,0,0-.34.56.56,0,0,0-.14-.25.59.59,0,0,0-.27-.16,1.89,1.89,0,0,0-.46-.05,2.06,2.06,0,0,0-.34,0,2.32,2.32,0,0,0-.38.06v-.27l.37-.05Zm-.39,3.1a1.63,1.63,0,0,0,.82-.19.92.92,0,0,0,.46-.56V290H319a2.94,2.94,0,0,0-.44,0,.71.71,0,0,0-.32.11.45.45,0,0,0-.2.23.9.9,0,0,0-.07.4C318,291.26,318.26,291.48,318.8,291.48Z"/><path class="cls-6" d="M322.28,291.47h.22l.2,0v.25l-.2,0h-.22a2.09,2.09,0,0,1-.38,0,.58.58,0,0,1-.25-.15.7.7,0,0,1-.14-.3,3.55,3.55,0,0,1,0-.52v-2H321v-.24h.52v-.77h.27v.77h.9v.24h-.9v2a1.73,1.73,0,0,0,0,.36.44.44,0,0,0,.08.23.31.31,0,0,0,.16.12A.73.73,0,0,0,322.28,291.47Z"/><path class="cls-6" d="M325.52,291.47h.22l.2,0v.25l-.2,0h-.22a2.09,2.09,0,0,1-.38,0,.58.58,0,0,1-.25-.15.7.7,0,0,1-.14-.3,3.55,3.55,0,0,1,0-.52v-2h-.52v-.24h.52v-.77H325v.77h.9v.24H325v2a1.73,1.73,0,0,0,0,.36.44.44,0,0,0,.08.23.3.3,0,0,0,.17.12A.65.65,0,0,0,325.52,291.47Z"/><path class="cls-6" d="M327.9,288.38a1.53,1.53,0,0,1,.51.07.73.73,0,0,1,.32.2.74.74,0,0,1,.17.33,1.4,1.4,0,0,1,.06.43v2.27h-.28v-2.1a2.76,2.76,0,0,0,0-.44.69.69,0,0,0-.13-.3.49.49,0,0,0-.25-.16,1.12,1.12,0,0,0-.4-.06l-.33,0a1,1,0,0,0-.32.12.77.77,0,0,0-.25.23,1,1,0,0,0-.16.4v2.28h-.27v-4.56h.27V289a.67.67,0,0,1,.15-.29.86.86,0,0,1,.26-.2,1.8,1.8,0,0,1,.33-.1A2.07,2.07,0,0,1,327.9,288.38Z"/><path class="cls-6" d="M332.41,289.7v.14a1.09,1.09,0,0,1,0,.17l-2.29.16a3.31,3.31,0,0,0,.07.61.87.87,0,0,0,.19.41.86.86,0,0,0,.35.23,1.82,1.82,0,0,0,.56.07,3.49,3.49,0,0,0,.53-.05,1.51,1.51,0,0,0,.48-.15v.26l-.18.06a1,1,0,0,1-.25.06l-.3.05-.3,0a2.08,2.08,0,0,1-.65-.09.88.88,0,0,1-.44-.28,1.22,1.22,0,0,1-.25-.51,3.08,3.08,0,0,1-.08-.8,3.6,3.6,0,0,1,.07-.8,1.33,1.33,0,0,1,.25-.52,1,1,0,0,1,.43-.28,2.38,2.38,0,0,1,.64-.08,1.36,1.36,0,0,1,.63.12.85.85,0,0,1,.36.31,1.08,1.08,0,0,1,.16.42A3.83,3.83,0,0,1,332.41,289.7Zm-.26.09c0-.18,0-.34,0-.48a.81.81,0,0,0-.13-.37.7.7,0,0,0-.29-.24,1.32,1.32,0,0,0-.49-.08,1.89,1.89,0,0,0-.53.07.76.76,0,0,0-.34.24,1,1,0,0,0-.18.41,4.67,4.67,0,0,0-.06.6Z"/><path class="cls-6" d="M338,288.38a1.29,1.29,0,0,1,.47.07.79.79,0,0,1,.3.2,1,1,0,0,1,.16.33,1.85,1.85,0,0,1,0,.43v2.27h-.27v-2.1a2.76,2.76,0,0,0,0-.44.82.82,0,0,0-.11-.3.44.44,0,0,0-.23-.16,1,1,0,0,0-.37-.06,1.55,1.55,0,0,0-.31,0,.81.81,0,0,0-.29.12.72.72,0,0,0-.23.23,1.34,1.34,0,0,0-.14.4h0v2.27h-.27v-2.1a2.76,2.76,0,0,0,0-.44.82.82,0,0,0-.11-.3.48.48,0,0,0-.23-.16.9.9,0,0,0-.36-.06,1.66,1.66,0,0,0-.32,0,1,1,0,0,0-.28.11,1,1,0,0,0-.23.23,1.21,1.21,0,0,0-.14.38v2.31h-.27v-3.24h.27V289a.61.61,0,0,1,.14-.29.84.84,0,0,1,.23-.18,1,1,0,0,1,.3-.1,1.84,1.84,0,0,1,.33,0,1.08,1.08,0,0,1,.65.16.78.78,0,0,1,.28.47.71.71,0,0,1,.15-.3.88.88,0,0,1,.24-.19,1.1,1.1,0,0,1,.32-.11A1.87,1.87,0,0,1,338,288.38Z"/><path class="cls-6" d="M341.3,291.74a1.91,1.91,0,0,1-.63-.09.9.9,0,0,1-.43-.28,1.2,1.2,0,0,1-.24-.52,3.5,3.5,0,0,1-.08-.79,3.59,3.59,0,0,1,.08-.8,1.32,1.32,0,0,1,.24-.52,1,1,0,0,1,.43-.28,2.52,2.52,0,0,1,1.26,0,1,1,0,0,1,.44.28,1.48,1.48,0,0,1,.25.52,3.66,3.66,0,0,1,.07.8,3.56,3.56,0,0,1-.07.79,1.33,1.33,0,0,1-.25.52.93.93,0,0,1-.44.28A1.91,1.91,0,0,1,341.3,291.74Zm0-.25a1.65,1.65,0,0,0,.54-.07.71.71,0,0,0,.34-.25,1.19,1.19,0,0,0,.18-.44,4.08,4.08,0,0,0,.05-.67,4.21,4.21,0,0,0-.05-.68,1.19,1.19,0,0,0-.18-.44.79.79,0,0,0-.35-.24,1.8,1.8,0,0,0-1.06,0,.76.76,0,0,0-.34.24,1,1,0,0,0-.17.44,3.23,3.23,0,0,0-.06.68,3.13,3.13,0,0,0,.06.67,1,1,0,0,0,.17.44.71.71,0,0,0,.34.25A1.62,1.62,0,0,0,341.3,291.49Z"/><path class="cls-6" d="M346.89,288.38a1.29,1.29,0,0,1,.47.07.79.79,0,0,1,.3.2.85.85,0,0,1,.16.33,1.85,1.85,0,0,1,0,.43v2.27h-.27v-2.1a2.76,2.76,0,0,0,0-.44.82.82,0,0,0-.11-.3.44.44,0,0,0-.23-.16,1,1,0,0,0-.37-.06,1.55,1.55,0,0,0-.31,0,.81.81,0,0,0-.29.12.72.72,0,0,0-.23.23,1.34,1.34,0,0,0-.14.4h0v2.27h-.27v-2.1a2.76,2.76,0,0,0,0-.44.82.82,0,0,0-.11-.3.44.44,0,0,0-.23-.16.9.9,0,0,0-.36-.06,1.73,1.73,0,0,0-.32,0,1,1,0,0,0-.28.11,1,1,0,0,0-.23.23,1.21,1.21,0,0,0-.14.38v2.31h-.27v-3.24h.27V289a.61.61,0,0,1,.14-.29.84.84,0,0,1,.23-.18,1,1,0,0,1,.3-.1,1.84,1.84,0,0,1,.33,0,1.08,1.08,0,0,1,.65.16.84.84,0,0,1,.29.47.6.6,0,0,1,.14-.3.88.88,0,0,1,.24-.19,1.1,1.1,0,0,1,.32-.11A1.87,1.87,0,0,1,346.89,288.38Z"/><path class="cls-6" d="M351.32,289.7v.14c0,.05,0,.1,0,.17l-2.29.16a2.68,2.68,0,0,0,.06.61,1,1,0,0,0,.19.41.83.83,0,0,0,.36.23,1.75,1.75,0,0,0,.55.07,3.5,3.5,0,0,0,.54-.05,1.69,1.69,0,0,0,.48-.15v.26l-.18.06a1,1,0,0,1-.26.06l-.29.05-.31,0a2,2,0,0,1-.64-.09.88.88,0,0,1-.44-.28,1.23,1.23,0,0,1-.26-.51,3.59,3.59,0,0,1-.08-.8,3.53,3.53,0,0,1,.08-.8,1.1,1.1,0,0,1,.25-.52.92.92,0,0,1,.43-.28,2.38,2.38,0,0,1,.64-.08,1.41,1.41,0,0,1,.63.12.85.85,0,0,1,.36.31,1.06,1.06,0,0,1,.15.42A2.56,2.56,0,0,1,351.32,289.7Zm-.26.09a3.43,3.43,0,0,0,0-.48,1,1,0,0,0-.12-.37.76.76,0,0,0-.29-.24,1.34,1.34,0,0,0-.5-.08,1.81,1.81,0,0,0-.52.07.66.66,0,0,0-.34.24.91.91,0,0,0-.18.41,2.64,2.64,0,0,0-.06.6Z"/><path class="cls-6" d="M353.63,288.38a1.46,1.46,0,0,1,.51.07.77.77,0,0,1,.33.2.86.86,0,0,1,.17.33,1.81,1.81,0,0,1,.05.43v2.27h-.27v-2.1a1.89,1.89,0,0,0,0-.44.68.68,0,0,0-.12-.3.54.54,0,0,0-.25-.16,1.18,1.18,0,0,0-.41-.06l-.33,0a.91.91,0,0,0-.31.12.71.71,0,0,0-.26.23,1.12,1.12,0,0,0-.16.4v2.28h-.27v-3.24h.27V289a.67.67,0,0,1,.15-.29,1.05,1.05,0,0,1,.27-.2,1.7,1.7,0,0,1,.32-.1Z"/><path class="cls-6" d="M356.58,291.47h.23l.2,0v.25l-.21,0h-.21a2.09,2.09,0,0,1-.38,0,.53.53,0,0,1-.25-.15.7.7,0,0,1-.14-.3,2.55,2.55,0,0,1,0-.52v-2h-.52v-.24h.52v-.77h.27v.77h.89v.24h-.89v2a3.21,3.21,0,0,0,0,.36.55.55,0,0,0,.09.23.28.28,0,0,0,.16.12A.68.68,0,0,0,356.58,291.47Z"/><path class="cls-6" d="M357.81,291.74a.34.34,0,0,1-.2-.05.33.33,0,0,1-.05-.22.32.32,0,0,1,.05-.21.34.34,0,0,1,.2-.05.32.32,0,0,1,.2.05.32.32,0,0,1,.05.21.33.33,0,0,1-.05.22A.32.32,0,0,1,357.81,291.74Z"/><path class="cls-6" d="M299.48,305.93a22.94,22.94,0,1,0,32.15,4.39A22.94,22.94,0,0,0,299.48,305.93Zm25,32.9A18.37,18.37,0,1,1,328,313.08,18.38,18.38,0,0,1,324.47,338.83Z"/><rect class="cls-6" x="325.37" y="338.78" width="8.28" height="13.36" rx="3.36" transform="translate(-141.84 269.66) rotate(-37.22)"/><rect class="cls-6" x="341.01" y="353.6" width="8.28" height="24.91" rx="4.14" transform="translate(-151.11 283.32) rotate(-37.22)"/><rect class="cls-6" x="336.04" y="342.38" width="5.25" height="30.29" rx="2.63" transform="translate(-147.27 277.66) rotate(-37.22)"/></svg>