<?xml version="1.0" standalone="no"?><!DOCTYPE svg PUBLIC "-//W3C//DTD SVG 1.1//EN" "http://www.w3.org/Graphics/SVG/1.1/DTD/svg11.dtd"><svg t="1648263691884" class="icon" viewBox="0 0 1024 1024" version="1.1" xmlns="http://www.w3.org/2000/svg" p-id="2394" xmlns:xlink="http://www.w3.org/1999/xlink" width="200" height="200"><defs><style type="text/css">@font-face { font-family: feedback-iconfont; src: url("//at.alicdn.com/t/font_1031158_u69w8yhxdu.woff2?t=1630033759944") format("woff2"), url("//at.alicdn.com/t/font_1031158_u69w8yhxdu.woff?t=1630033759944") format("woff"), url("//at.alicdn.com/t/font_1031158_u69w8yhxdu.ttf?t=1630033759944") format("truetype"); }
</style></defs><path d="M700.652276 341.830665c2.163992 0.135999 4.347983 0.211999 6.551975 0.211999 65.571744 0 118.723536-59.527767 118.723536-132.951481 0-73.427713-53.151792-132.955481-118.723536-132.95548-12.571951 0-24.659904 2.203991-36.01586 6.247975C628.340559 43.895829 568.704792 19.999922 502.729049 19.999922c-64.579748 0-123.071519 22.887911-165.699352 59.939766a106.959582 106.959582 0 0 0-28.21589-3.807985c-65.571744 0-118.719536 59.527767-118.719536 132.95548 0 71.947719 51.043801 130.51149 114.779551 132.839481" fill="#F0F0FF" p-id="2395"></path><path d="M707.204251 350.042633c-2.371991 0-4.723982-0.08-7.055973-0.227999l1.007996-15.967938c1.995992 0.128 4.011984 0.195999 6.047977 0.195999 61.051762 0 110.723567-56.051781 110.723567-124.951512s-49.671806-124.955512-110.723567-124.955512c-11.343956 0-22.555912 1.943992-33.33187 5.783978l-4.483983 1.595994-3.547986-3.183988C622.528582 49.427807 564.596808 27.999891 502.729049 27.999891c-60.451764 0-117.435541 20.58792-160.451373 57.979773l-3.227987 2.803989-4.123984-1.123995a99.199613 99.199613 0 0 0-26.107898-3.523987c-61.051762 0-110.719568 56.055781-110.719568 124.955512 0 67.815735 47.031816 122.651521 107.071582 124.843513l-0.583998 15.987937c-68.683732-2.50799-122.487522-64.371749-122.487521-140.83145 0-77.723696 56.843778-140.955449 126.719505-140.955449 8.759966 0 17.543931 1.019996 26.167898 3.035988C380.509527 32.983871 439.901295 11.999953 502.729049 11.999953c64.171749 0 124.447514 21.747915 170.295335 61.339761a114.819551 114.819551 0 0 1 34.179867-5.20398c69.875727 0 126.723505 63.231753 126.723505 140.955449-0.004 77.719696-56.847778 140.951449-126.723505 140.95145z" fill="#6E6E96" p-id="2396"></path><path d="M894.34352 1023.996v-54.711786c0-22.291913-16.459936-82.899676-65.263745-101.539604-72.627716-36.663857-164.687357-34.343866-216.543154-101.259604-21.111918-7.175972-18.243929 7.539971-40.543842 7.53997l-121.527525 0.004c-22.299913 0-19.435924-14.723942-40.559842-7.54397-67.111738 85.931664-133.707478 59.259769-207.795188 97.16362C135.254485 898.58849 128.130513 946.996301 128.130513 969.292214V1023.996" fill="#F0F0FF" p-id="2397"></path><path d="M902.343488 1023.996h-15.999937v-54.711786c0-18.223929-14.799942-76.7557-60.119765-94.067633l-0.751997-0.331999c-25.147902-12.69595-53.415791-20.795919-80.751685-28.635888-50.123804-14.371944-101.927602-29.227886-136.943465-72.883715-6.247976-1.803993-8.187968-0.627998-12.291952 1.863993-4.719982 2.867989-11.179956 6.791973-23.487908 6.791973l-121.527525 0.004c-12.303952 0-18.767927-3.923985-23.491909-6.791973-4.111984-2.49999-6.047976-3.671986-12.307952-1.867993-44.331827 55.655783-89.735649 65.007746-133.655477 74.063711-24.395905 5.02798-49.619806 10.22796-75.255706 23.339909C148.222434 900.840481 136.130482 940.948324 136.130482 969.292214V1023.996h-15.999938v-54.703786c0-26.823895 10.16796-77.139699 78.275694-112.73556 27.631892-14.135945 53.935789-19.559924 79.37569-24.799903 43.51583-8.967965 84.615669-17.435932 125.823509-70.199726l1.467994-1.879992 2.259991-0.767997c13.999945-4.767981 20.679919-1.763993 27.947891 2.647989 3.947985 2.399991 7.359971 4.467983 15.183941 4.467983l121.527525-0.004c7.827969 0 11.235956-2.071992 15.183941-4.463983 7.259972-4.415983 13.935946-7.407971 27.931891-2.647989l2.275991 0.771996 1.471994 1.903993c31.815876 41.05584 79.639689 54.763786 130.267491 69.283729 27.923891 8.003969 56.791778 16.279936 83.191675 29.551885 52.383795 20.279921 70.023726 83.199675 70.023727 108.863575V1023.996z" fill="#6E6E96" p-id="2398"></path><path d="M267.16597 523.325956s-7.099972-4.115984-15.779939-9.123965c-8.679966-5.01998-17.459932-27.295893-19.507923-49.507806l-4.715982-51.027801c-2.047992-22.211913 6.107976-38.099851 18.139929-35.319862 12.027953 2.791989 21.867915 5.06798 21.867915 5.06798" fill="#FFEAD6" p-id="2399"></path><path d="M263.153985 530.245929l-15.767938-9.115965c-12.587951-7.279972-21.487916-34.131867-23.475908-55.703782l-4.715982-51.023801c-1.603994-17.435932 2.423991-32.199874 10.779958-39.499845 4.855981-4.235983 10.939957-5.783977 17.127933-4.351983l21.867915 5.06798-3.603986 15.587939-21.875915-5.07198c-0.999996-0.231999-1.855993-0.175999-2.991988 0.819996-3.459986 3.019988-6.619974 12.439951-5.371979 25.975899l4.715981 51.023801c2.039992 22.135914 10.571959 40.439842 15.54794 43.31983l15.787938 9.127965-8.023969 13.843946z" fill="#6E6E96" p-id="2400"></path><path d="M267.16597 523.325956s-7.099972-4.115984-15.779939-9.123965c-8.679966-5.01998-17.459932-27.295893-19.507923-49.507806l-4.715982-51.027801c-2.047992-22.211913 6.107976-38.099851 18.139929-35.319862 12.027953 2.791989 21.867915 5.06798 21.867915 5.06798" fill="#FFEAD6" p-id="2401"></path><path d="M263.153985 530.245929l-15.767938-9.115965c-12.587951-7.279972-21.487916-34.131867-23.475908-55.703782l-4.715982-51.023801c-1.603994-17.435932 2.423991-32.199874 10.779958-39.499845 4.855981-4.235983 10.939957-5.783977 17.127933-4.351983l21.867915 5.06798-3.603986 15.587939-21.875915-5.07198c-0.999996-0.231999-1.855993-0.175999-2.991988 0.819996-3.459986 3.019988-6.619974 12.439951-5.371979 25.975899l4.715981 51.023801c2.039992 22.135914 10.571959 40.439842 15.54794 43.31983l15.787938 9.127965-8.023969 13.843946z" fill="#6E6E96" p-id="2402"></path><path d="M612.536621 766.485006c0 44.611826-36.499857 81.111683-81.103684 81.111683H491.021095c-44.603826 0-81.107683-36.499857-81.107683-81.111683v-148.027422c0-44.599826 36.495857-81.099683 81.107683-81.099683h40.411842c44.595826 0 81.103683 36.495857 81.103684 81.099683v148.027422z" fill="#FFEAD6" p-id="2403"></path><path d="M531.428937 855.596658H491.021095c-49.135808 0-89.107652-39.975844-89.107652-89.111652v-148.027422c0-49.127808 39.975844-89.099652 89.107652-89.099652h40.411842c49.131808 0 89.103652 39.971844 89.103652 89.099652v148.027422c0 49.135808-39.971844 89.111652-89.107652 89.111652z m-40.407842-310.238788c-40.311843 0-73.107714 32.791872-73.107714 73.099714v148.027422c0 40.315843 32.795872 73.111714 73.107714 73.111714h40.411842c40.307843 0 73.103714-32.795872 73.103715-73.111714v-148.027422c0-40.307843-32.795872-73.099714-73.103715-73.099714H491.021095z" fill="#6E6E96" p-id="2404"></path><path d="M612.536621 785.060933c0 44.599826-36.499857 77.103699-81.103684 77.103699H491.021095c-44.603826 0-81.107683-32.495873-81.107683-77.103699v-166.587349c0-44.603826 36.495857-81.103683 81.107683-81.103683h40.411842c44.595826 0 81.103683 36.495857 81.103684 81.103683v166.587349z" fill="#FFEAD6" p-id="2405"></path><path d="M531.428937 870.164601H491.021095c-49.967805 0-89.107652-37.383854-89.107652-85.103668v-166.587349c0-49.131808 39.975844-89.103652 89.107652-89.103652h40.411842c49.131808 0 89.103652 39.971844 89.103652 89.103652v166.587349c0 47.719814-39.139847 85.103668-89.107652 85.103668z m-40.407842-324.798731c-40.311843 0-73.107714 32.795872-73.107714 73.103714v166.587349c0 39.399846 31.427877 69.10373 73.107714 69.10373h40.411842c41.675837 0 73.103714-29.707884 73.103715-69.10373v-166.587349c0-40.307843-32.795872-73.103714-73.103715-73.103714H491.021095z" fill="#6E6E96" p-id="2406"></path><path d="M612.536621 618.457584c0-0.771997-0.088-1.539994-0.104-2.315991H468.097185l-58.183773 35.291862v115.051551c0 16.439936 4.987981 31.759876 13.479947 44.583826 11.495955-12.89595 37.871852-18.103929 96.927622-18.10393 47.159816 0 69.411729 3.915985 79.671689 16.583936 7.903969-12.499951 12.543951-27.243894 12.543951-43.047832v-148.043422z" fill="#D59758" opacity=".15" p-id="2407"></path><path d="M756.05606 523.325956s7.091972-4.115984 15.775938-9.123965c8.691966-5.01998 17.463932-27.295893 19.515924-49.507806l4.715982-51.027801c2.055992-22.211913-6.103976-38.099851-18.139929-35.319862l-21.867915 5.06798" fill="#FFEAD6" p-id="2408"></path><path d="M760.072044 530.245929l-8.031968-13.835946s7.099972-4.123984 15.795938-9.135965c4.967981-2.871989 13.499947-21.171917 15.547939-43.31583l4.715982-51.027801c1.247995-13.527947-1.907993-22.94791-5.367979-25.971899-1.135996-0.991996-1.991992-1.047996-3.007989-0.819996l-21.863914 5.06798-3.607986-15.587939 21.863915-5.06798c6.211976-1.427994 12.287952 0.116 17.143933 4.355983 8.355967 7.299971 12.383952 22.063914 10.767958 39.491845l-4.715982 51.027801c-2.039992 22.119914-10.759958 48.355811-23.479908 55.695782-8.675966 5.01198-15.759938 9.123964-15.759939 9.123965z" fill="#6E6E96" p-id="2409"></path><path d="M756.05606 523.325956s7.091972-4.115984 15.775938-9.123965c8.691966-5.01998 17.463932-27.295893 19.515924-49.507806l4.715982-51.027801c2.055992-22.211913-6.103976-38.099851-18.139929-35.319862l-21.867915 5.06798" fill="#FFEAD6" p-id="2410"></path><path d="M760.072044 530.245929l-8.031968-13.835946s7.099972-4.123984 15.795938-9.135965c4.967981-2.871989 13.499947-21.171917 15.547939-43.31583l4.715982-51.027801c1.247995-13.527947-1.907993-22.94791-5.367979-25.971899-1.135996-0.991996-1.991992-1.047996-3.007989-0.819996l-21.863914 5.06798-3.607986-15.587939 21.863915-5.06798c6.211976-1.427994 12.287952 0.116 17.143933 4.355983 8.355967 7.299971 12.383952 22.063914 10.767958 39.491845l-4.715982 51.027801c-2.039992 22.119914-10.759958 48.355811-23.479908 55.695782-8.675966 5.01198-15.759938 9.123964-15.759939 9.123965z" fill="#6E6E96" p-id="2411"></path><path d="M755.288063 600.081656c0 25.327901-16.911934 58.031773-37.575853 72.679716l-130.55549 92.555638c-20.663919 14.651943-54.839786 18.523928-75.939704 18.523928-21.095918 0-55.271784-3.871985-75.927703-18.523928l-130.55949-92.555638c-20.667919-14.647943-37.575853-47.351815-37.575853-72.679716v-292.598857c0-25.323901 20.727919-46.04382 46.04782-46.04382h396.030453c25.323901 0 46.05182 20.723919 46.05182 46.04382l0.004 292.598857z" fill="#FFEAD6" p-id="2412"></path><path d="M511.221016 791.840907c-12.283952 0-54.399788-1.439994-80.559685-19.999922l-130.55549-92.551638c-22.95991-16.271936-40.94784-51.067801-40.94784-79.207691v-292.598857c0-29.799884 24.247905-54.043789 54.047789-54.043789h396.030453c29.803884 0 54.051789 24.243905 54.051789 54.043789l0.004 292.598857c0 28.13589-17.98793 62.927754-40.94784 79.207691l-130.55549 92.555638c-26.171898 18.555928-68.283733 19.995922-80.567686 19.995922zM313.20579 269.438948c-20.979918 0-38.047851 17.067933-38.047852 38.043851v292.598857c0 22.719911 15.663939 53.011793 34.199867 66.151742l130.55949 92.555638c17.723931 12.571951 48.451811 17.051933 71.303721 17.051933 22.851911 0 53.583791-4.479983 71.311722-17.051933l130.55949-92.555638c18.539928-13.139949 34.199866-43.43183 34.199866-66.151742l-0.004-292.598857c0-20.979918-17.071933-38.043851-38.051851-38.043851H313.20579z" fill="#6E6E96" p-id="2413"></path><path d="M717.71621 624.74956l-130.55549 92.555638c-20.663919 14.639943-54.839786 18.527928-75.939704 18.527928-21.091918 0-55.271784-3.887985-75.931703-18.527928l-130.55549-92.555638c-37.575853-24.663904-37.575853-107.835579-37.575853-133.16748v108.499576c0 25.327901 16.907934 58.031773 37.575853 72.679716L435.289313 765.31701c20.667919 14.651943 54.835786 18.523928 75.931703 18.523928s55.275784-3.871985 75.939704-18.523928l130.55549-92.555638c20.663919-14.647943 37.571853-47.351815 37.571853-72.679716v-90.499647c-0.004 25.331901-0.004 90.499646-37.571853 115.167551z" fill="#D59758" opacity=".15" p-id="2414"></path><path d="M230.794112 453.02223s7.323971 38.555849 36.371858 38.55585v31.747876s-36.371858-11.479955-36.371858-70.303726z" fill="#D59758" opacity=".15" p-id="2415"></path><path d="M275.165938 534.241913l-10.407959-3.283987c-1.711993-0.539998-41.963836-13.979945-41.963836-77.931696l15.859938-1.491994c0.06 0.299999 6.499975 32.047875 28.511889 32.047875h7.999968v50.659802z m-27.623892-40.051843c3.615986 6.871973 7.839969 11.683954 11.623955 14.983941v-10.387959a36.227858 36.227858 0 0 1-11.623955-4.595982z" fill="#6E6E96" opacity=".15" p-id="2416"></path><path d="M792.767917 453.02223s-7.323971 38.555849-36.387858 38.55585v31.747876c0.004 0 36.387858-11.479955 36.387858-70.303726z" fill="#D59758" opacity=".15" p-id="2417"></path><path d="M748.38409 534.241913v-50.663802h7.999969c22.027914 0 28.467889-31.747876 28.531888-32.067875l15.855938 1.511994c0 63.95175-40.263843 77.395698-41.979836 77.931696l-10.407959 3.287987z m15.999937-35.455861v10.391959c3.787985-3.299987 8.015969-8.111968 11.635955-14.991941a36.079859 36.079859 0 0 1-11.635955 4.599982z" fill="#6E6E96" opacity=".15" p-id="2418"></path><path d="M746.200098 1023.996v-185.639275l-74.727708-25.943898v149.043417H363.329594v-149.043417l-74.723708 25.943898v185.639275" fill="#BAD9C6" p-id="2419"></path><path d="M754.200067 1023.996h-15.999937v-179.947297l-58.727771-20.39192v145.79943H355.329625v-145.79943l-58.72377 20.39192V1023.996h-15.999938v-191.331253l90.723646-31.499877v152.291406h292.142859v-152.291406l90.727645 31.499877z" fill="#6E6E96" p-id="2420"></path><path d="M409.913412 766.481006a250.87902 250.87902 0 0 1-6.131976 7.54397l46.611818-0.004c-22.215913-0.032-19.387924-14.711943-40.479842-7.53997z m419.166363 101.267604c-72.627716-36.663857-164.687357-34.343866-216.543154-101.255604 51.855797 66.915739 40.531842 64.591748 113.163558 101.255604 48.807809 18.639927 65.263745 79.24769 65.263745 101.543604V1023.996h103.379596v-54.711786c0-22.291913-16.459936-82.895676-65.263745-101.535604z m-228.983106-103.047597c5.311979 0.255999 9.603962 0.819997 12.435952 1.779993-5.483979-1.867993-9.323964-2.235991-12.435952-1.779993z" fill="#666666" opacity=".1" p-id="2421"></path><path d="M258.974002 241.335057v117.74754S267.16197 399.918438 509.709022 399.918438c216.535154 0 250.735021-40.83584 250.735021-40.835841V241.335057" fill="#F0F0FF" p-id="2422"></path><path d="M509.709022 407.918407c-101.407604 0-174.999316-6.995973-218.727145-20.787919-33.27987-10.499959-38.955848-22.011914-39.847845-26.475897l-0.155999-1.571994V241.335057h15.999937V357.118605c3.935985 4.819981 36.807856 34.799864 242.735052 34.799864 181.431291 0 232.719091-29.163886 242.735052-36.495857V241.335057h15.999938v120.655529l-1.867993 2.227991c-3.751985 4.471983-42.783833 43.699829-256.870997 43.69983z" fill="#6E6E96" p-id="2423"></path><path d="M484.013123 961.468244h-15.999938v-75.615704l6.591974-1.175996c68.051734-12.155953 112.399561-54.035789 112.83556-54.455787l11.087956 11.535955c-1.871993 1.799993-45.327823 43.003832-114.519552 57.399776v62.311756z" fill="#6E6E96" p-id="2424"></path><path d="M352.797635 510.594005a7.999969 7.999969 0 0 1-5.367979-13.931945c32.067875-29.027887 72.375717-28.863887 100.299608 0.411998a8.003969 8.003969 0 0 1-11.579954 11.043957c-21.827915-22.883911-52.435795-22.715911-77.983696 0.411999a8.003969 8.003969 0 0 1-5.367979 2.063991zM654.500457 510.594005c-2.759989 0-5.447979-1.431994-6.927973-3.995984-4.283983-7.399971-18.919926-15.623939-35.99586-16.583935-9.671962-0.555998-27.687892 0.987996-39.783844 17.331932a7.999969 7.999969 0 1 1-12.85995-9.515963c12.275952-16.591935 31.299878-25.075902 53.543791-23.791907 21.135917 1.183995 41.259839 11.275956 48.939809 24.539904a7.995969 7.995969 0 0 1-2.915989 10.931958c-1.259995 0.735997-2.63999 1.083996-3.999984 1.083995z" fill="#6E6E96" p-id="2425"></path><path d="M707.200251 76.131703c-12.571951 0-24.659904 2.203991-36.01586 6.247975C628.340559 43.895829 568.704792 19.999922 502.733049 19.999922c-18.835926 0-37.127855 1.999992-54.691786 5.679978 43.955828 9.199964 83.187675 29.191886 113.807556 56.699778a107.015582 107.015582 0 0 1 36.015859-6.247975c65.571744 0 118.719536 59.527767 118.719536 132.95548 0 132.499482-65.479744 66.911739-65.479744 148.45942-35.187863 4.551982-81.247683 7.70397-141.399448 7.70397-242.547053 0-250.735021-40.83584-250.73502-40.83584v34.667864S267.15797 399.918438 509.705022 399.918438c69.915727 0 120.791528-4.259983 157.679384-10.023961l0.028-0.004c51.567799-8.063969 75.727704-19.063926 86.083664-25.5039a63.479752 63.479752 0 0 0 2.735989-1.799993 39.079847 39.079847 0 0 0 1.927993-1.439995l0.055999-0.044a21.755915 21.755915 0 0 0 0.703998-0.579997c0.215999-0.179999 0.403998-0.343999 0.567998-0.491998l0.031999-0.028a69.799727 69.799727 0 0 1 0.435999-0.403999l0.267999-0.271999c0.076-0.072 0.112-0.124 0.151999-0.163999l0.036-0.036 0.04-0.04V327.918719c38.827848-21.859915 65.483744-66.843739 65.483744-118.827536-0.016-73.431713-53.167792-132.959481-118.735536-132.95948z" fill="#666666" opacity=".1" p-id="2426"></path><path d="M323.573749 138.719458c0-72.191718 81.079683-130.719489 181.083293-130.719489s181.083293 58.523771 181.083293 130.719489" fill="#F0F0FF" p-id="2427"></path><path d="M685.740335 146.719427a7.999969 7.999969 0 0 1-7.999969-7.999969c0-67.667736-77.643697-122.719521-173.083324-122.71952S331.573718 71.051722 331.573718 138.719458a7.999969 7.999969 0 0 1-15.999937 0C315.573781 62.227757 400.397449 0 504.657042 0s189.083261 62.231757 189.083261 138.719458a7.999969 7.999969 0 0 1-7.999968 7.999969z" fill="#6E6E96" p-id="2428"></path><path d="M237.486086 315.302768V242.667052l21.487916-1.331995v83.079676z" fill="#666666" opacity=".1" p-id="2429"></path><path d="M509.705022 394.442459c-242.547053 0-250.735021-40.83584-250.73502-40.83584v31.475877s8.187968 40.83584 250.73502 40.83584c216.535154 0 250.735021-40.83584 250.735021-40.83584v-31.475877c-0.004 0-34.199866 40.83584-250.735021 40.83584z" fill="#3F3F3F" opacity=".1" p-id="2430"></path><path d="M488.349106 273.430932c-64.979746 0-112.75556-31.423877-113.467557-31.903875a7.999969 7.999969 0 0 1 8.935965-13.271949c4.143984 2.771989 100.023609 65.355745 203.247206-0.119999a7.999969 7.999969 0 0 1 8.571967 13.511947c-37.571853 23.831907-74.611709 31.783876-107.287581 31.783876z" fill="#6E6E96" opacity=".1" p-id="2431"></path><path d="M352.733635 522.593959a7.999969 7.999969 0 0 1-5.367979-13.931946c32.067875-29.031887 72.375717-28.859887 100.299609 0.411998a7.999969 7.999969 0 0 1-11.579955 11.043957c-21.827915-22.883911-52.435795-22.715911-77.983696 0.411999a7.975969 7.975969 0 0 1-5.367979 2.063992zM654.444457 522.593959c-2.759989 0-5.443979-1.427994-6.927973-3.991985-4.287983-7.399971-18.923926-15.627939-36.003859-16.583935-9.627962-0.539998-27.683892 0.987996-39.779845 17.331932a7.999969 7.999969 0 1 1-12.85995-9.515963c12.271952-16.587935 31.311878-25.039902 53.535791-23.791907 21.139917 1.183995 41.267839 11.275956 48.951809 24.539905a7.995969 7.995969 0 0 1-6.915973 12.011953z" fill="#D59758" opacity=".2" p-id="2432"></path><path d="M524.908963 862.164632s-27.999891 17.83193-63.99975 17.831931v81.459681h23.999906v-72.583716s67.923735-23.687907 78.395694-30.64788l-38.39585 3.939984z" fill="#666666" opacity=".1" p-id="2433"></path><path d="M505.457039 695.577283c-16.943934 0-34.547865-2.703989-52.615795-8.967965-45.947821-15.927938-72.559717-47.263815-73.667712-48.58781a7.999969 7.999969 0 0 1 12.255952-10.27996c4.015984 4.759981 99.971609 115.383549 240.77506-1.019996a7.987969 7.987969 0 0 1 11.259956 1.067996 7.991969 7.991969 0 0 1-1.067996 11.259956c-33.687868 27.851891-81.779681 56.527779-136.939465 56.527779z" fill="#6E6E96" p-id="2434"></path></svg>