<?xml version="1.0" encoding="UTF-8"?>
<svg width="1240px" height="699px" viewBox="0 0 1240 699" version="1.1" xmlns="http://www.w3.org/2000/svg" xmlns:xlink="http://www.w3.org/1999/xlink">
    <title>做菜教程</title>
    <g id="Page-1" stroke="none" stroke-width="1" fill="none" fill-rule="evenodd">
        <g id="30-Startup-Story-Illustrations" transform="translate(-1730.000000, -1435.000000)">
            <g id="做菜教程" transform="translate(1736.000000, 1435.000000)">
                <g id="BG" transform="translate(0.000000, 0.287119)">
                    <path d="M360.256533,243.237668 L343.196036,243.237668 C341.151296,243.237668 339.547413,241.481339 339.731454,239.442791 L342.459874,209.288262 C342.622221,207.494817 344.124637,206.121546 345.924456,206.121546 L357.528113,206.121546 C359.327233,206.121546 360.829648,207.494817 360.991995,209.288262 L363.720415,239.442791 C363.905156,241.481339 362.301273,243.237668 360.256533,243.237668" id="Fill-2" fill="#D6EEFF"></path>
                    <path d="M352.027397,218.592048 L351.424892,218.592048 C349.581686,218.592048 348.087668,217.096926 348.087668,215.25236 L348.087668,136.185307 C348.087668,134.34074 349.581686,132.845619 351.424892,132.845619 L352.027397,132.845619 C353.870603,132.845619 355.365321,134.34074 355.365321,136.185307 L355.365321,215.25236 C355.365321,217.096926 353.870603,218.592048 352.027397,218.592048" id="Fill-4" fill="#D6EEFF"></path>
                    <polygon id="Fill-6" fill="#D6EEFF" points="992.773955 297.438369 948.857521 297.438369 956.538944 200.263892 980.856799 200.263892"></polygon>
                    <path d="M976.692093,214.043588 L907.155524,214.043588 L908.74821,205.544156 C909.322725,202.482484 911.994463,200.263962 915.107059,200.263962 L976.692093,200.263962 L976.692093,214.043588 Z" id="Fill-8" fill="#D6EEFF"></path>
                    <path d="M963.779088,280.364715 L963.779088,297.44061 L894.234822,297.44061 L896.022045,285.663817 C896.484596,282.616851 899.101752,280.364715 902.182158,280.364715 L963.779088,280.364715 Z" id="Fill-10" fill="#D6EEFF"></path>
                    <path d="M948.081332,237.404525 C948.081332,252.351535 946.035892,266.024016 942.625192,276.626422 L906.890519,276.626422 C903.486117,266.024016 901.434379,252.351535 901.434379,237.404525" id="Fill-12" fill="#D6EEFF"></path>
                    <path d="M522.385833,266.762333 C522.385833,279.330455 518.89116,290.826432 513.062041,299.741136 L451.99554,299.741136 C446.179016,290.826432 442.671047,279.330455 442.671047,266.762333" id="Fill-14" fill="#D6EEFF"></path>
                    <path d="M1052.92242,260.767842 C1052.92242,274.279256 1051.48299,286.639392 1049.08206,296.223575 L1023.93007,296.223575 C1021.53475,286.639392 1020.08971,274.279256 1020.08971,260.767842" id="Fill-16" fill="#D6EEFF"></path>
                    <polygon id="Fill-18" fill="#D6EEFF" points="906.958397 280.364995 942.555914 280.364995 942.555914 276.626842 906.958397 276.626842"></polygon>
                    <polygon id="Fill-20" fill="#D6EEFF" points="914.101693 220.434793 935.507788 220.434793 935.507788 214.043238 914.101693 214.043238"></polygon>
                    <polygon id="Fill-21" fill="#D6EEFF" points="922.926546 240.606675 926.549278 240.606675 926.549278 220.435494 922.926546 220.435494"></polygon>
                    <path d="M659.102481,229.835359 C660.667876,245.470056 655.346792,258.804997 655.346792,258.804997 C655.346792,258.804997 647.487628,246.791505 645.922932,231.156809 C644.357537,215.522112 649.678621,202.187171 649.678621,202.187171 C649.678621,202.187171 657.537786,214.200663 659.102481,229.835359" id="Fill-22" fill="#C3E4FF"></path>
                    <path d="M655.636429,242.362935 C662.636271,256.427579 662.382953,270.784244 662.382953,270.784244 C662.382953,270.784244 650.779995,262.337334 643.780153,248.27269 C636.780312,234.207346 637.03363,219.851381 637.03363,219.851381 C637.03363,219.851381 648.636587,228.298291 655.636429,242.362935" id="Fill-23" fill="#C3E4FF"></path>
                    <path d="M665.600725,231.535806 C663.741424,247.138289 655.657632,259.001919 655.657632,259.001919 C655.657632,259.001919 650.589167,245.568937 652.447767,229.966454 C654.307068,214.363971 662.39086,202.500341 662.39086,202.500341 C662.39086,202.500341 667.460025,215.933323 665.600725,231.535806" id="Fill-24" fill="#C3E4FF"></path>
                    <path d="M671.429914,242.838572 C665.572104,257.41723 654.678718,266.762613 654.678718,266.762613 C654.678718,266.762613 653.282668,252.471075 659.140479,237.893118 C664.998989,223.31516 675.892375,213.969077 675.892375,213.969077 C675.892375,213.969077 677.288424,228.260615 671.429914,242.838572" id="Fill-25" fill="#C3E4FF"></path>
                    <polygon id="Fill-26" fill="#C3E4FF" points="581.973571 236.434762 624.266528 236.434762 619.801269 270.926894 586.438831 270.926894"></polygon>
                    <polygon id="Fill-27" fill="#C3E4FF" points="638.421562 244.024795 672.725196 244.024795 669.103165 270.927174 642.043594 270.927174"></polygon>
                    <polygon id="Fill-28" fill="#E8F6FF" points="832.726343 273.692623 847.36842 273.692623 847.36842 7.0029098 832.726343 7.0029098"></polygon>
                    <polygon id="Fill-29" fill="#AAD5FF" points="544.204515 280.283761 548.941287 280.283761 548.941287 0.411070805 544.204515 0.411070805"></polygon>
                    <path d="M548.941287,280.283761 L858.564808,280.283761 L858.564808,0.411771096 L548.941287,0.411771096 L548.941287,280.283761 Z M560.837449,268.378815 L846.668646,268.378815 L846.668646,12.3167177 L560.837449,12.3167177 L560.837449,268.378815 Z" id="Fill-30" fill="#D6EEFF"></path>
                    <line x1="703.752767" y1="0.411420951" x2="703.752767" y2="280.284112" id="Stroke-31" stroke="#D6EEFF" stroke-width="7"></line>
                    <line x1="548.941357" y1="140.347486" x2="840.047451" y2="140.347486" id="Stroke-32" stroke="#D6EEFF" stroke-width="7"></line>
                    <path d="M749.322208,272.423485 C749.322208,277.735192 745.019296,282.041982 739.710808,282.041982 C734.40302,282.041982 730.099409,277.735192 730.099409,272.423485 C730.099409,267.111778 734.40302,262.804989 739.710808,262.804989 C745.019296,262.804989 749.322208,267.111778 749.322208,272.423485" id="Fill-33" fill="#C3E4FF"></path>
                    <polygon id="Fill-34" fill="#AAD5FF" points="188.216749 323.971414 243.060858 323.971414 243.060858 295.85193 188.216749 295.85193"></polygon>
                    <polygon id="Fill-35" fill="#C3E4FF" points="880.669278 323.972114 1087.3756 323.972114 1087.3756 295.848429 880.669278 295.848429"></polygon>
                    <polygon id="Fill-36" fill="#AAD5FF" points="207.302393 616.403123 254.12219 616.403123 254.12219 323.971414 207.302393 323.971414"></polygon>
                    <polygon id="Fill-37" fill="#AAD5FF" points="632.315892 295.848429 679.135688 295.848429 679.135688 290.463191 632.315892 290.463191"></polygon>
                    <polygon id="Fill-38" fill="#C3E4FF" points="739.710528 290.463191 726.454704 290.463191 727.854253 260.781358 738.31098 260.781358"></polygon>
                    <polygon id="Fill-39" fill="#C3E4FF" points="773.059391 221.888597 780.286659 221.888597 780.286659 209.21123 773.059391 209.21123"></polygon>
                    <polygon id="Fill-40" fill="#C3E4FF" points="759.794889 258.094201 745.828095 270.367501 742.86735 266.992799 756.834144 254.719499"></polygon>
                    <polygon id="Fill-41" fill="#D6EEFF" points="254.12219 616.403123 1060.17817 616.403123 1060.17817 323.971414 254.12219 323.971414"></polygon>
                    <polygon id="Fill-42" fill="#AAD5FF" points="544.128239 389.440217 552.246321 389.440217 552.246321 335.823839 544.128239 335.823839"></polygon>
                    <polygon id="Fill-43" fill="#C3E4FF" points="552.246321 389.440217 643.352032 389.440217 643.352032 335.823839 552.246321 335.823839"></polygon>
                    <polygon id="Fill-44" fill="#AAD5FF" points="529.459571 607.10536 538.958307 607.10536 538.958307 400.838854 529.459571 400.838854"></polygon>
                    <path d="M610.327445,362.632448 C610.327445,369.556926 604.718054,375.170458 597.799386,375.170458 C590.880018,375.170458 585.270628,369.556926 585.270628,362.632448 C585.270628,355.707971 590.880018,350.094439 597.799386,350.094439 C604.718054,350.094439 610.327445,355.707971 610.327445,362.632448" id="Fill-45" fill="#E8F6FF"></path>
                    <polygon id="Fill-46" fill="#C3E4FF" points="538.958307 607.10536 658.280316 607.10536 658.280316 400.838854 538.958307 400.838854"></polygon>
                    <polygon id="Fill-47" fill="#E8F6FF" points="566.690361 509.075827 630.548262 509.075827 630.548262 499.469936 566.690361 499.469936"></polygon>
                    <polygon id="Fill-48" fill="#E8F6FF" points="566.690361 422.25025 630.548262 422.25025 630.548262 412.645059 566.690361 412.645059"></polygon>
                    <line x1="538.958307" y1="487.717163" x2="658.280316" y2="487.717163" id="Stroke-49" stroke="#AAD5FF" stroke-width="2.8"></line>
                    <polygon id="Fill-50" fill="#AAD5FF" points="904.431512 389.440217 914.511761 389.440217 914.511761 335.823839 904.431512 335.823839"></polygon>
                    <polygon id="Fill-51" fill="#C3E4FF" points="914.511761 389.440217 1027.65476 389.440217 1027.65476 335.823839 914.511761 335.823839"></polygon>
                    <polygon id="Fill-52" fill="#AAD5FF" points="886.214989 607.10536 898.010384 607.10536 898.010384 400.838854 886.214989 400.838854"></polygon>
                    <polygon id="Fill-53" fill="#C3E4FF" points="898.010384 607.10536 1046.19388 607.10536 1046.19388 400.838854 898.010384 400.838854"></polygon>
                    <polygon id="Fill-54" fill="#E8F6FF" points="932.450474 509.075827 1011.75379 509.075827 1011.75379 499.469936 932.450474 499.469936"></polygon>
                    <polygon id="Fill-55" fill="#E8F6FF" points="932.450474 422.25025 1011.75379 422.25025 1011.75379 412.645059 932.450474 412.645059"></polygon>
                    <line x1="898.010524" y1="487.717163" x2="1046.19402" y2="487.717163" id="Stroke-56" stroke="#AAD5FF" stroke-width="2.8"></line>
                    <polygon id="Fill-57" fill="#AAD5FF" points="284.196388 389.440217 292.31447 389.440217 292.31447 335.823839 284.196388 335.823839"></polygon>
                    <polygon id="Fill-58" fill="#C3E4FF" points="292.31447 389.440217 488.426907 389.440217 488.426907 335.823839 292.31447 335.823839"></polygon>
                    <polygon id="Fill-59" fill="#AAD5FF" points="269.65088 607.10536 279.149616 607.10536 279.149616 400.838854 269.65088 400.838854"></polygon>
                    <path d="M402.899027,362.632448 C402.899027,369.556926 397.289637,375.170458 390.370269,375.170458 C383.450901,375.170458 377.84151,369.556926 377.84151,362.632448 C377.84151,355.707971 383.450901,350.094439 390.370269,350.094439 C397.289637,350.094439 402.899027,355.707971 402.899027,362.632448" id="Fill-60" fill="#E8F6FF"></path>
                    <polygon id="Fill-61" fill="#C3E4FF" points="280.212573 607.10536 502.208262 607.10536 502.208262 400.838854 280.212573 400.838854"></polygon>
                    <polygon id="Fill-62" fill="#E8F6FF" points="372.154515 536.281432 384.212325 536.281432 384.212325 471.662782 372.154515 471.662782"></polygon>
                    <polygon id="Fill-63" fill="#E8F6FF" points="398.20851 536.281432 410.265621 536.281432 410.265621 471.662782 398.20851 471.662782"></polygon>
                    <line x1="391.210278" y1="607.10515" x2="391.210278" y2="400.838643" id="Stroke-64" stroke="#AAD5FF" stroke-width="2.8"></line>
                    <polygon id="Fill-65" fill="#AAD5FF" points="685.533025 607.10536 695.031061 607.10536 695.031061 400.838854 685.533025 400.838854"></polygon>
                    <path d="M983.61195,362.632448 C983.61195,369.556926 978.00256,375.170458 971.083892,375.170458 C964.163824,375.170458 958.554433,369.556926 958.554433,362.632448 C958.554433,355.707971 964.163824,350.094439 971.083892,350.094439 C978.00256,350.094439 983.61195,355.707971 983.61195,362.632448" id="Fill-66" fill="#E8F6FF"></path>
                    <polygon id="Fill-67" fill="#C3E4FF" points="695.031061 607.10536 860.008442 607.10536 860.008442 400.838854 695.031061 400.838854"></polygon>
                    <polygon id="Fill-68" fill="#E8F6FF" points="758.464898 536.281432 770.522009 536.281432 770.522009 471.662782 758.464898 471.662782"></polygon>
                    <polygon id="Fill-69" fill="#E8F6FF" points="784.517494 536.281432 796.574605 536.281432 796.574605 471.662782 784.517494 471.662782"></polygon>
                    <line x1="777.519542" y1="607.10515" x2="777.519542" y2="400.838643" id="Stroke-70" stroke="#AAD5FF" stroke-width="2.8"></line>
                    <path d="M880.669278,297.277653 L880.669278,362.081179 C880.669278,365.844543 877.621061,368.895711 873.859774,368.895711 L665.215779,368.895711 L665.215779,290.463121 L873.859774,290.463121 C877.621061,290.463121 880.669278,293.514289 880.669278,297.277653" id="Fill-71" fill="#E8F6FF"></path>
                    <polygon id="Fill-72" fill="#AAD5FF" points="665.215779 368.895781 679.135688 368.895781 679.135688 290.463191 665.215779 290.463191"></polygon>
                    <polygon id="Fill-73" fill="#C3E4FF" points="243.062957 323.972114 672.175734 323.972114 672.175734 295.848429 243.062957 295.848429"></polygon>
                    <path d="M733.082476,260.781498 L733.082476,203.513803 C733.082476,191.467397 742.840129,181.70254 754.877646,181.70254 C766.915163,181.70254 776.672815,191.467397 776.672815,203.513803 L776.672815,221.780893" id="Stroke-74" stroke="#C3E4FF" stroke-width="5.6"></path>
                    <path d="M1051.67794,266.705259 C1057.3811,267.832028 1061.09201,273.37273 1059.96607,279.080101 C1058.83943,284.788173 1053.30352,288.501816 1047.60036,287.374348" id="Stroke-75" stroke="#D6EEFF" stroke-width="5.6"></path>
                    <path d="M273.55695,235.041393 C264.771984,234.657633 257.277402,242.876248 256.81835,253.39812 C256.359298,263.919992 263.108621,272.761166 271.893587,273.145625" id="Stroke-76" stroke="#D6EEFF" stroke-width="5.6"></path>
                    <path d="M596.482971,213.772785 C600.693512,228.910275 597.72647,242.958812 597.72647,242.958812 C597.72647,242.958812 587.932429,232.464952 583.722587,217.327462 C579.512045,202.189972 582.478388,188.141435 582.478388,188.141435 C582.478388,188.141435 592.271729,198.635295 596.482971,213.772785" id="Fill-77" fill="#C3E4FF"></path>
                    <path d="M595.205743,226.70863 C604.502944,239.370591 606.703734,253.559187 606.703734,253.559187 C606.703734,253.559187 593.829287,247.220153 584.532086,234.557492 C575.234185,221.89553 573.034095,207.706935 573.034095,207.706935 C573.034095,207.706935 585.907842,214.046669 595.205743,226.70863" id="Fill-78" fill="#C3E4FF"></path>
                    <path d="M603.175262,214.33729 C604.005894,230.02801 598.06621,243.098941 598.06621,243.098941 C598.06621,243.098941 590.778761,230.729701 589.948828,215.038981 C589.117497,199.348262 595.057181,186.277331 595.057181,186.277331 C595.057181,186.277331 602.34463,198.64657 603.175262,214.33729" id="Fill-79" fill="#C3E4FF"></path>
                    <path d="M610.848147,224.477853 C607.564806,239.842938 598.425754,250.913138 598.425754,250.913138 C598.425754,250.913138 594.611984,237.070486 597.895325,221.705401 C601.180065,206.340317 610.317718,195.270117 610.317718,195.270117 C610.317718,195.270117 614.132187,209.112769 610.848147,224.477853" id="Fill-80" fill="#C3E4FF"></path>
                    <path d="M622.624718,221.623677 C616.91456,236.260459 606.114944,245.715088 606.114944,245.715088 C606.114944,245.715088 604.57544,231.438956 610.286298,216.802174 C615.997156,202.165392 626.796072,192.710764 626.796072,192.710764 C626.796072,192.710764 628.335576,206.986896 622.624718,221.623677" id="Fill-81" fill="#C3E4FF"></path>
                    <path d="M619.112201,237.140165 C609.78351,249.779016 596.894368,256.087938 596.894368,256.087938 C596.894368,256.087938 599.128747,241.904244 608.457438,229.264692 C617.785429,216.625841 630.675271,210.31762 630.675271,210.31762 C630.675271,210.31762 628.440192,224.501313 619.112201,237.140165" id="Fill-82" fill="#C3E4FF"></path>
                    <path d="M417.186668,147.488913 L284.193169,147.488913 C281.894411,147.488913 280.030212,145.624039 280.030212,143.322882 L280.030212,142.57147 C280.030212,140.270314 281.894411,138.405439 284.193169,138.405439 L417.186668,138.405439 C419.485427,138.405439 421.349625,140.270314 421.349625,142.57147 L421.349625,143.322882 C421.349625,145.624039 419.485427,147.488913 417.186668,147.488913" id="Fill-83" fill="#D6EEFF"></path>
                    <path d="M401.657348,218.592048 L401.054842,218.592048 C399.211637,218.592048 397.717619,217.096926 397.717619,215.25236 L397.717619,136.185307 C397.717619,134.34074 399.211637,132.845619 401.054842,132.845619 L401.657348,132.845619 C403.500553,132.845619 404.994571,134.34074 404.994571,136.185307 L404.994571,215.25236 C404.994571,217.096926 403.500553,218.592048 401.657348,218.592048" id="Fill-84" fill="#D6EEFF"></path>
                    <path d="M502.099167,285.365913 L502.099167,285.365913 C501.177564,286.963277 499.136323,287.510904 497.540138,286.588621 L435.259528,250.604169 C433.663343,249.681886 433.116819,247.639137 434.038422,246.041773 C434.960025,244.44441 437.001266,243.896782 438.596752,244.819766 L500.877361,280.803517 C502.474246,281.725801 503.02077,283.768549 502.099167,285.365913" id="Fill-85" fill="#D6EEFF"></path>
                    <path d="M415.718402,230.17423 C415.718402,235.10638 413.239102,239.457988 409.454722,242.046964 L409.454722,227.47881 L404.991562,227.47881 L404.991562,244.08481 C403.832036,244.390837 402.61093,244.550504 401.352036,244.550504 C400.093142,244.550504 398.872736,244.390837 397.71321,244.08481 L397.71321,227.47881 L393.257047,227.47881 L393.257047,242.053966 C389.473368,239.457988 386.994068,235.10638 386.994068,230.17423 C386.994068,222.241334 393.425693,207.628362 401.352036,207.628362 C409.286777,207.628362 415.718402,222.241334 415.718402,230.17423" id="Fill-86" fill="#D6EEFF"></path>
                    <polygon id="Fill-87" fill="#D6EEFF" points="271.545449 221.118978 322.19651 207.561344 304.786126 234.279546 274.540483 226.379564"></polygon>
                    <g id="Group-90" transform="translate(0.997743, 621.158099)">
                        <line x1="1225.57387" y1="0.847352085" x2="-0.000279909706" y2="0.847352085" id="Fill-88" fill="#E8F6FF"></line>
                        <line x1="1225.57387" y1="0.847352085" x2="-0.000279909706" y2="0.847352085" id="Stroke-89" stroke="#D6EEFF" stroke-width="14" stroke-linecap="round"></line>
                    </g>
                    <polygon id="Fill-1" fill="#D6EEFF" points="312.292255 300.444018 267.193203 300.444018 274.540133 226.379143 304.064309 221.119258"></polygon>
                </g>
                <g id="Object" transform="translate(743.000000, 243.000000)">
                    <path d="M357.463959,452.768017 C357.463959,454.165798 304.677187,455.299569 239.562492,455.299569 C174.446397,455.299569 121.659625,454.165798 121.659625,452.768017 C121.659625,451.369536 174.446397,450.236465 239.562492,450.236465 C304.677187,450.236465 357.463959,451.369536 357.463959,452.768017" id="Fill-92" fill="#AFB3C1"></path>
                    <path d="M14.6087178,72.0354279 L173.90953,72.0354279 C181.826077,72.0354279 188.244406,65.6130594 188.244406,57.6899672 L188.244406,14.7383203 C188.244406,6.81522813 181.826077,0.392859554 173.90953,0.392859554 L14.6087178,0.392859554 C6.69217156,0.392859554 0.274541761,6.81522813 0.274541761,14.7383203 L0.274541761,57.6899672 C0.274541761,65.6130594 6.69217156,72.0354279 14.6087178,72.0354279" id="Fill-113" fill="#285FD7"></path>
                    <path d="M139.862853,42.0463771 L139.440889,42.4686526 L139.440889,58.445091 C139.440889,72.5202394 145.696172,81.9272481 158.042989,83.9328815 C160.105223,84.2676206 167.180641,84.4559988 173.098632,84.5577929 C174.62554,84.5841521 174.71651,82.4937835 173.251183,82.0652054 C161.320032,78.5777564 158.042989,67.7316497 158.042989,58.445091 L158.042989,42.4686526 C157.879242,42.3033839 157.786172,42.2109455 157.622424,42.0463771 L139.862853,42.0463771 Z" id="Fill-114" fill="#285FD7"></path>
                    <polygon id="Fill-115" fill="#1F2430" points="131.921535 246.888211 240.171016 246.888211 240.171016 183.102208 131.921535 183.102208"></polygon>
                    <path d="M235.792738,183.101647 L187.418743,183.101647 L187.418743,85.4586755 C187.418743,81.3115523 190.778359,77.9501556 194.922422,77.9501556 L228.289758,77.9501556 C232.433122,77.9501556 235.792738,81.3115523 235.792738,85.4586755 L235.792738,183.101647 Z" id="Fill-116" fill="#49A2FF"></path>
                    <polygon id="Fill-117" fill="#5B6A76" points="141.556727 235.037187 231.127833 235.037187 231.127833 193.019728 141.556727 193.019728"></polygon>
                    <polygon id="Fill-118" fill="#1F2430" points="145.791061 452.768157 154.905621 452.768157 154.905621 246.888211 145.791061 246.888211"></polygon>
                    <polygon id="Fill-119" fill="#1F2430" points="215.768488 452.768157 224.883047 452.768157 224.883047 246.888211 215.768488 246.888211"></polygon>
                    <polygon id="Fill-120" fill="#5B6A76" points="251.915327 452.768157 261.029887 452.768157 261.029887 246.888211 251.915327 246.888211"></polygon>
                    <polygon id="Fill-121" fill="#5B6A76" points="321.892754 452.768157 331.007314 452.768157 331.007314 246.888211 321.892754 246.888211"></polygon>
                    <path d="M54.3141196,41.6213005 C52.4863093,53.6207864 43.4914108,60.3393781 31.5007788,58.5109183 C19.5101467,56.6817583 12.2765801,47.5877796 14.1036907,35.5882937 C15.9308014,23.5888078 30.5532844,17.3982355 37.7889503,18.2427864 C43.862991,18.9507806 56.1412302,29.6218145 54.3141196,41.6213005" id="Fill-122" fill="#FFC100"></path>
                    <path d="M31.93086,23.6154888 C26.2962777,24.9040242 20.6812889,21.3612522 20.6812889,21.3612522 C20.6812889,21.3612522 24.2018533,15.7295121 29.8364357,14.4409767 C35.4717178,13.1531416 41.0860068,16.6959137 41.0860068,16.6959137 C41.0860068,16.6959137 37.5661422,22.3269534 31.93086,23.6154888" id="Fill-123" fill="#FFFFFF"></path>
                    <path d="M51.374228,21.7321263 C55.0732348,26.1768731 54.458833,32.7911214 54.458833,32.7911214 C54.458833,32.7911214 47.8480655,32.1993756 44.1490587,27.755329 C40.4500519,23.3105822 41.063754,16.6963339 41.063754,16.6963339 C41.063754,16.6963339 47.6752212,17.2880797 51.374228,21.7321263" id="Fill-124" fill="#FFFFFF"></path>
                    <path d="M39.8628014,28.1041439 C36.9482415,33.0986192 30.5250135,34.7751158 30.5250135,34.7751158 C30.5250135,34.7751158 28.8273612,28.3527472 31.7426208,23.358272 C34.6578804,18.3637967 41.0804086,16.6873001 41.0804086,16.6873001 C41.0804086,16.6873001 42.7780609,23.1096687 39.8628014,28.1041439" id="Fill-125" fill="#FFFFFF"></path>
                    <path d="M48.3954289,12.5373758 C44.0883183,13.9064446 40.7056095,17.6214883 39.9953386,22.3939713 C39.6370542,24.7973699 37.4012754,22.9920198 37.9575959,19.2580683 C38.6657675,14.4995911 42.0330813,10.7887492 46.3268962,9.41827973 L48.3954289,12.5373758 Z" id="Fill-126" fill="#FFFFFF"></path>
                    <polygon id="Fill-127" fill="#5B6A76" points="240.173115 246.889612 345.678081 246.889612 345.678081 183.100107 240.173115 183.100107"></polygon>
                    <path d="M298.855835,170.466997 C298.855835,175.270994 297.142088,179.675824 294.287009,183.100247 L263.951795,183.100247 C261.096716,179.675824 259.382269,175.270994 259.382269,170.466997 C259.382269,159.556464 268.220418,150.711789 279.122901,150.711789 C290.018386,150.711789 298.855835,159.556464 298.855835,170.466997" id="Fill-128" fill="#5B6A76"></path>
                    <polygon id="Fill-129" fill="#5B6A76" points="272.301151 156.461038 285.937652 156.461038 285.937652 144.825003 272.301151 144.825003"></polygon>
                    <polygon id="Fill-130" fill="#5B6A76" points="268.712009 144.825003 289.525395 144.825003 289.525395 138.791996 268.712009 138.791996"></polygon>
                    <polygon id="Fill-131" fill="#1F2430" points="271.076686 183.101647 241.945084 183.101647 256.511585 160.307876"></polygon>
                    <polygon id="Fill-132" fill="#FFFFFF" points="67.3988488 23.7516954 172.758962 23.7516954 172.758962 16.4385567 67.3988488 16.4385567"></polygon>
                    <polygon id="Fill-133" fill="#FFFFFF" points="67.3988488 39.8023647 172.758962 39.8023647 172.758962 32.4885257 67.3988488 32.4885257"></polygon>
                    <polygon id="Fill-134" fill="#FFFFFF" points="67.3988488 55.8523337 143.494402 55.8523337 143.494402 48.5384947 67.3988488 48.5384947"></polygon>
                    <polygon id="Fill-135" fill="#1047A4" points="187.418533 170.30439 235.792528 170.30439 235.792528 113.114427 187.418533 113.114427"></polygon>
                    <polygon id="Fill-136" fill="#285FD7" points="194.451964 179.228898 211.04991 179.228898 211.04991 175.349986 194.451964 175.349986"></polygon>
                    <polygon id="Fill-137" fill="#285FD7" points="187.418533 89.6455752 235.792528 89.6455752 235.792528 88.3353307 187.418533 88.3353307"></polygon>
                </g>
                <g id="Object" transform="translate(128.000000, 309.000000)">
                    <path d="M520.786262,386.768017 C520.786262,388.165798 404.222763,389.299569 260.433847,389.299569 C116.64493,389.299569 0.0814311512,388.165798 0.0814311512,386.768017 C0.0814311512,385.369536 116.64493,384.236465 260.433847,384.236465 C404.222763,384.236465 520.786262,385.369536 520.786262,386.768017" id="Fill-94" fill="#AFB3C1"></path>
                    <polygon id="Fill-96" fill="#1F2430" points="16.5720316 78.1072047 70.4007675 78.1072047 70.4007675 40.6143259 16.5720316 40.6143259"></polygon>
                    <polygon id="Fill-98" fill="#5B6A76" points="70.4007675 78.1072047 268.490767 78.1072047 268.490767 40.6143259 70.4007675 40.6143259"></polygon>
                    <polygon id="Fill-99" fill="#414C53" points="113.813363 40.6143259 139.765892 40.6143259 139.765892 33.288582 113.813363 33.288582"></polygon>
                    <polygon id="Fill-100" fill="#8F9BAA" points="139.765892 40.6143259 235.269684 40.6143259 235.269684 33.288582 139.765892 33.288582"></polygon>
                    <polygon id="Fill-101" fill="#1F2430" points="35.3049887 386.768157 81.2577652 386.768157 81.2577652 78.1072047 35.3049887 78.1072047"></polygon>
                    <polygon id="Fill-102" fill="#5B6A76" points="81.2570655 386.768157 250.365214 386.768157 250.365214 78.1072047 81.2570655 78.1072047"></polygon>
                    <polygon id="Fill-103" fill="#1F2430" points="95.9257336 142.317585 104.043815 142.317585 104.043815 84.5708904 95.9257336 84.5708904"></polygon>
                    <polygon id="Fill-104" fill="#414C53" points="104.044515 142.317585 245.036433 142.317585 245.036433 84.5708904 104.044515 84.5708904"></polygon>
                    <polygon id="Fill-105" fill="#1F2430" points="81.2577652 376.753996 90.7565011 376.753996 90.7565011 154.594386 81.2577652 154.594386"></polygon>
                    <path d="M187.068813,113.444588 C187.068813,120.369065 181.459422,125.982597 174.540054,125.982597 C167.620686,125.982597 162.011296,120.369065 162.011296,113.444588 C162.011296,106.520111 167.620686,100.906578 174.540054,100.906578 C181.459422,100.906578 187.068813,106.520111 187.068813,113.444588" id="Fill-106" fill="#8F9BAA"></path>
                    <polygon id="Fill-107" fill="#414C53" points="90.7558014 376.753996 255.733183 376.753996 255.733183 154.594386 90.7558014 154.594386"></polygon>
                    <polygon id="Fill-108" fill="#8F9BAA" points="154.190339 300.4727 166.247449 300.4727 166.247449 230.874982 154.190339 230.874982"></polygon>
                    <polygon id="Fill-109" fill="#8F9BAA" points="180.242235 300.4727 192.300045 300.4727 192.300045 230.874982 180.242235 230.874982"></polygon>
                    <path d="M185.09384,14.7805216 C183.909822,21.1601725 181.044946,26.8325294 177.039438,31.1883393 L137.796097,31.1883393 C133.790589,26.8325294 130.925713,21.1601725 129.740995,14.7805216 L185.09384,14.7805216 Z" id="Fill-110" fill="#5B6A76"></path>
                    <polygon id="Fill-111" fill="#5B6A76" points="137.795327 33.288582 177.024673 33.288582 177.024673 31.1884093 137.795327 31.1884093"></polygon>
                    <line x1="173.244842" y1="376.753996" x2="173.244842" y2="154.594386" id="Stroke-112" stroke="#1F2430" stroke-width="2.8"></line>
                    <g id="Group-183" transform="translate(225.586907, 0.638215)" fill="#D4D2DC">
                        <line x1="0.83972912" y1="0.360439767" x2="0.83972912" y2="16.2458403" id="Fill-181"></line>
                    </g>
                </g>
                <g id="Girl" transform="translate(339.000000, 53.000000)">
                    <path d="M39.5479955,266.96501 C39.5479955,274.729836 31.6314492,281.024752 21.8660993,281.024752 C12.1000497,281.024752 4.18350339,274.729836 4.18350339,266.96501 C4.18350339,259.200183 12.1000497,252.905268 21.8660993,252.905268 C31.6314492,252.905268 39.5479955,259.200183 39.5479955,266.96501" id="Fill-138" fill="#FF77CA"></path>
                    <path d="M301.550968,205.66763 L307.239433,189.993717 C307.239433,189.993717 308.754445,186.53568 310.854467,182.999911 C312.95449,179.464142 317.624783,176.195884 317.5723,168.391841 C317.519117,160.586398 322.515506,168.040996 322.699546,171.814864 C322.883587,175.589432 318.427424,182.345839 321.419659,184.102169 C324.411194,185.858499 333.033813,186.210045 334.825935,188.404757 C336.617357,190.598769 331.128327,208.789527 327.365641,210.141789 C327.365641,210.141789 317.643677,215.210495 313.675957,214.508103 C309.708237,213.805011 308.450743,208.698489 301.550968,205.66763" id="Fill-139" fill="#FF77CA"></path>
                    <path d="M143.152165,609.733144 L145.18151,624.776795 C145.18151,624.776795 107.856251,633.241212 93.8383725,645.768017 L163.204896,645.768017 L160.772481,602.675612 L143.152165,609.733144 Z" id="Fill-140" fill="#0B096F"></path>
                    <path d="M353.359526,176.946456 C349.248352,174.521348 344.956637,174.18941 343.771919,176.202047 L345.918126,172.557732 L353.359526,176.946456 Z" id="Fill-141" fill="#B5C1D0"></path>
                    <path d="M315.827973,212.263951 L313.681065,210.997124 C312.592217,210.355658 312.229734,208.952275 312.871427,207.862622 L336.8233,167.193223 L345.918966,172.558152 L323.739621,210.218401 C322.118944,212.969144 318.577386,213.885124 315.827973,212.263951" id="Fill-142" fill="#716459"></path>
                    <polygon id="Fill-143" fill="#B5C1D0" points="343.932377 175.930544 334.836711 170.565615 336.82337 167.193013 345.919036 172.557942"></polygon>
                    <path d="M385.897,95.5865798 C385.897,95.5865798 376.858716,101.643397 370.434088,111.317916 C364.209596,120.692712 336.82323,167.193433 336.82323,167.193433 L356.059325,178.539548 C356.059325,178.539548 369.769302,155.48877 381.639573,125.297825 C390.975262,101.552359 385.897,95.5865798 385.897,95.5865798" id="Fill-144" fill="#B5C1D0"></path>
                    <polygon id="Fill-145" fill="#EF3C86" points="161.181639 605.947861 161.98498 624.155427 145.1813 624.777285 143.466853 612.288996"></polygon>
                    <path d="M244.976528,596.753111 L249.513165,612.286265 C249.513165,612.286265 266.293052,594.382626 277.632894,589.714486 L251.292691,644.875706 L233.78014,645.767877 L227.966415,605.587281 L244.976528,596.753111 Z" id="Fill-146" fill="#0B096F"></path>
                    <polygon id="Fill-147" fill="#EF3C86" points="228.863246 611.784787 230.80442 625.200261 249.512885 612.286195 247.07977 603.953433"></polygon>
                    <path d="M275.105099,247.316455 L313.675957,214.507823 L303.444558,201.169381 L266.062616,223.384011 L234.994738,191.169926 L218.813858,218.632537 L254.708779,250.137928 C259.859117,254.08897 268.010088,253.75353 275.105099,247.316455" id="Fill-148" fill="#FF77CA"></path>
                    <path d="M114.209291,92.366852 C114.209291,122.223058 138.394889,146.426514 168.229065,146.426514 C198.063941,146.426514 222.24954,122.223058 222.24954,92.366852 C222.24954,62.5106464 198.063941,38.3071895 168.229065,38.3071895 C138.394889,38.3071895 114.209291,62.5106464 114.209291,92.366852" id="Fill-149" fill="#25003F"></path>
                    <path d="M127.863077,209.496681 C127.863077,209.496681 112.38337,244.862776 99.6390813,253.359406 C81.6240926,262.17607 36.3361016,273.613922 36.3361016,273.613922 L37.6418804,257.237618 L87.1509097,234.38012 L110.404409,195.899131 L127.863077,209.496681 Z" id="Fill-150" fill="#FF77CA"></path>
                    <path d="M45.2179865,259.751803 C43.3901761,271.751288 34.3959774,278.46988 22.4046456,276.64072 C10.4140135,274.81156 3.18044695,265.718282 5.00825734,253.718095 C6.83536795,241.71861 21.4571512,235.528738 28.6928172,236.372588 C34.7675576,237.081283 47.0457968,247.751616 45.2179865,259.751803" id="Fill-151" fill="#FFC100"></path>
                    <path d="M136.615363,610.473072 L167.201797,610.328111 L173.881842,313.835415 L222.457372,603.001667 L251.596673,592.216486 C251.596673,592.216486 240.497553,439.710618 232.403964,363.120494 C225.334144,296.211892 208.007734,278.360074 208.157485,277.263419 L120.640916,340.041004 L136.615363,610.473072 Z" id="Fill-152" fill="#272636"></path>
                    <path d="M22.8350767,241.745991 C17.2004944,243.033826 11.5855056,239.491754 11.5855056,239.491754 C11.5855056,239.491754 15.10607,233.860014 20.7406524,232.571479 C26.3752348,231.283644 31.9902235,234.825715 31.9902235,234.825715 C31.9902235,234.825715 28.4696591,240.457455 22.8350767,241.745991" id="Fill-153" fill="#49A2FF"></path>
                    <path d="M42.2784447,239.862558 C45.9774515,244.306605 45.3637494,250.921553 45.3637494,250.921553 C45.3637494,250.921553 38.7515824,250.329808 35.0525756,245.885061 C31.3535688,241.440314 31.9679707,234.826766 31.9679707,234.826766 C31.9679707,234.826766 38.5794379,235.417811 42.2784447,239.862558" id="Fill-154" fill="#49A2FF"></path>
                    <path d="M30.7670181,246.234576 C27.8517585,251.229051 21.4292302,252.904848 21.4292302,252.904848 C21.4292302,252.904848 19.7315779,246.483179 22.6468375,241.488704 C25.5620971,236.493528 31.9846253,234.817732 31.9846253,234.817732 C31.9846253,234.817732 33.6822777,241.240101 30.7670181,246.234576" id="Fill-155" fill="#49A2FF"></path>
                    <path d="M232.016709,29.3328206 C232.016709,45.3624811 219.031698,58.3563802 203.013865,58.3563802 C186.996731,58.3563802 174.01102,45.3624811 174.01102,29.3328206 C174.01102,13.30316 186.996731,0.308560621 203.013865,0.308560621 C219.031698,0.308560621 232.016709,13.30316 232.016709,29.3328206" id="Fill-156" fill="#25003F"></path>
                    <path d="M39.2995756,230.667458 C34.992465,232.036526 31.6090564,235.75157 30.8994853,240.524053 C30.5412009,242.927452 28.3061219,241.122102 28.8610429,237.38815 C29.5692144,232.629673 32.937228,228.918831 37.2310429,227.548362 L39.2995756,230.667458 Z" id="Fill-157" fill="#49A2FF"></path>
                    <polygon id="Fill-158" fill="#25003F" points="114.208871 171.456175 222.24912 171.456175 222.24912 96.1482832 114.208871 96.1482832"></polygon>
                    <polygon id="Fill-159" fill="#DA327C" points="108.744684 243.855057 95.9122235 219.881296 100.251524 212.700512 111.088928 240.791984"></polygon>
                    <polygon id="Fill-160" fill="#DA327C" points="254.729282 211.632078 241.475558 238.522552 238.665964 236.056827 246.958289 203.57453"></polygon>
                    <path d="M98.2032844,207.391326 L115.715835,252.784888 L132.366964,209.496401 C132.366964,209.496401 120.973239,220.635229 123.690463,229.241805 C129.076625,246.279184 141.70965,249.828259 144.790056,265.550492 C148.351208,283.751755 178.278454,273.282405 214.110395,287.444389 C214.110395,287.444389 207.564007,273.378345 207.295993,246.961268 C207.15254,232.797183 212.302178,220.029477 212.033465,218.632397 L234.139334,253.789805 L249.211072,194.750374 C249.211072,194.750374 232.283533,167.268855 216.913691,160.561468 C201.193962,153.697916 196.897348,146.70411 173.880372,146.772237 C152.212562,146.842067 143.885948,150.816218 134.223465,158.917885 C114.072065,175.815206 98.2032844,207.391326 98.2032844,207.391326" id="Fill-161" fill="#FFC100"></path>
                    <path d="M153.144801,181.211158 C148.780309,181.211158 145.315727,179.403007 143.389948,176.120042 C140.728007,171.582857 141.395591,164.82645 145.175772,158.047633 C149.909745,149.559406 155.475749,145.939602 155.710874,145.78974 L156.043266,145.577552 L156.437939,145.569848 C156.437939,145.569848 157.794801,145.544638 159.858436,145.544638 C162.870264,145.544638 167.288639,145.59856 171.236765,145.854867 C176.622228,146.207814 185.231551,146.750539 185.231551,146.750539 L187.80602,146.912306 L186.266517,148.983767 C186.252521,149.003375 184.308549,151.743614 181.901325,159.744438 C177.616607,173.989057 167.941528,181.211158 153.144801,181.211158" id="Fill-162" fill="#FF77CA"></path>
                    <path d="M159.857946,144.144266 C157.807607,144.144266 156.46754,144.168776 156.411558,144.170177 L155.622212,144.184883 L154.957427,144.60996 C154.710406,144.767525 148.857494,148.572206 143.954176,157.36506 C139.929074,164.582959 139.267088,171.858982 142.183047,176.829647 C144.370542,180.558697 148.263386,182.61195 153.145011,182.61195 C168.413386,182.61195 178.820429,174.844322 183.241603,160.148716 C185.538262,152.514144 187.37167,149.843234 187.389165,149.819424 L190.468172,145.676503 L185.319233,145.352268 C185.318533,145.352268 176.711309,144.810243 171.329345,144.457296 C167.342032,144.198889 162.890068,144.144266 159.857946,144.144266 M159.857946,146.94543 C162.810293,146.94543 167.218871,146.997952 171.146005,147.252158 C176.532167,147.605104 185.143589,148.14783 185.143589,148.14783 C185.143589,148.14783 183.103047,150.893671 180.561467,159.34058 C175.537788,176.039719 163.574447,179.810786 153.145011,179.810786 C143.404153,179.810786 140.082325,170.055032 146.398488,158.729927 C151.014199,150.452487 156.463341,146.970641 156.463341,146.970641 C156.463341,146.970641 157.810406,146.94543 159.857946,146.94543" id="Fill-163" fill="#924E08"></path>
                    <path d="M180.937596,119.234006 C178.002043,123.942062 179.216151,130.138937 180.899108,133.75734 C181.468025,135.001757 185.167032,145.42909 185.705158,145.901086 C187.795384,147.730246 162.251524,158.918095 162.251524,158.918095 L160.521682,137.860345 C153.112472,138.299428 144.414977,137.92057 139.63412,134.749653 C125.392314,125.300626 124.500801,92.4639823 124.731027,90.8218 L136.644684,77.4448417 C136.644684,77.4448417 154.626084,69.1029756 157.369898,72.6317418 C162.388679,79.0968281 174.154684,108.035653 182.635948,104.718374 C182.635948,104.718374 181.552698,95.7168339 189.061975,95.7168339 C194.65667,95.7168339 196.178679,100.205699 196.178679,102.799577 C196.178679,111.557416 184.880824,112.89147 180.937596,119.234006" id="Fill-164" fill="#FF77CA"></path>
                    <polygon id="Fill-165" fill="#285FD7" points="141.748907 108.883495 136.406131 121.900504 142.626424 121.766048"></polygon>
                    <path d="M147.458436,109.439176 C147.595591,112.037956 149.125998,114.060396 150.876833,113.956753 C152.626968,113.85311 153.934147,111.6626 153.796991,109.06382 C153.659835,106.46504 152.129429,104.4426 150.378594,104.546243 C148.628458,104.649886 147.32128,106.840396 147.458436,109.439176" id="Fill-166" fill="#0B096F"></path>
                    <path d="M131.018919,109.048343 C131.156074,111.647123 132.686481,113.669564 134.436616,113.56592 C136.187451,113.462277 137.49463,111.271767 137.357474,108.672987 C137.219619,106.074208 135.689912,104.051767 133.939077,104.15541 C132.188941,104.259053 130.881063,106.450264 131.018919,109.048343" id="Fill-167" fill="#0B096F"></path>
                    <path d="M140.71765,77.2904275 C140.71765,80.8850211 140.118643,84.3409571 139.019298,87.5447884 C138.873045,87.9432539 138.727492,88.3578262 138.558147,88.7562918 C137.497289,91.4398068 136.083045,93.9279406 134.376995,96.147863 C129.773181,102.124847 123.024558,106.174629 115.377424,106.99537 C114.985551,107.036687 114.601375,107.068901 114.209501,107.085008 L114.209501,96.147863 L114.217199,96.147863 C114.209501,95.806121 114.209501,95.4727825 114.209501,95.1317408 C114.209501,81.6329319 118.628576,69.2237758 126.030088,59.4414111 C127.405844,57.6199542 128.889366,55.8958378 130.465257,54.2697622 C134.046702,57.4000629 136.882887,61.4498456 138.658214,66.0850716 C139.987786,69.5410076 140.71765,73.3218786 140.71765,77.2904275" id="Fill-168" fill="#25003F"></path>
                    <path d="M182.635108,76.5955988 C182.635108,84.4073447 175.570887,90.9921808 165.9196,93.0111197 C165.155447,93.1756881 164.377998,93.3073428 163.580955,93.4067841 C162.300368,93.579756 160.979894,93.6623903 159.639826,93.6623903 C146.938923,93.6623903 136.644544,86.022916 136.644544,76.5955988 C136.644544,75.6894223 136.738314,74.7993525 136.925853,73.9337928 C138.648698,65.7669994 148.15863,59.5204039 159.639826,59.5204039 C172.219668,59.5204039 182.434273,67.01982 182.62881,76.3231856 C182.635108,76.4142235 182.635108,76.5052613 182.635108,76.5955988" id="Fill-169" fill="#25003F"></path>
                    <path d="M142.51733,126.597355 C142.51733,126.597355 146.572521,127.900597 150.627713,123.374616" id="Stroke-170" stroke="#0C245F" stroke-width="2.1"></path>
                    <path d="M192.942084,161.711065 C180.023551,177.225312 179.192919,203.082156 179.192919,203.082156 C179.192919,226.041896 200.720774,264.564202 200.720774,264.564202 C205.628291,264.851321 210.454634,261.978028 210.454634,261.978028 L211.315357,270.597209 C208.157975,273.757622 200.720774,273.613362 200.720774,273.613362 L217.964612,450.733758 C127.865176,459.352239 114.209081,438.667044 114.209081,438.667044 C109.831993,311.106241 130.357072,264.867428 130.357072,264.867428 L110.547862,200.5415 C110.547862,200.5415 123.581158,171.423401 130.105853,161.316101 C132.725808,157.257915 139.605289,154.801294 139.605289,154.801294 C139.605289,154.801294 137.345718,156.054815 135.219804,159.906416 C130.592196,168.288899 121.687569,195.899271 121.687569,195.899271 L169.23723,195.899271 C169.23723,195.899271 181.673619,161.43445 191.147862,152.52815 L192.942084,161.711065 Z" id="Fill-171" fill="#49A2FF"></path>
                    <path d="M160.521472,137.860485 C160.521472,137.860485 169.891449,138.123795 173.882262,135.934685 L161.028808,144.037052 L160.521472,137.860485 Z" id="Fill-172" fill="#EF3C86"></path>
                    <path d="M27.9703002,281.870073 L27.9703002,281.870073 C30.0059436,281.870073 31.6714063,280.20338 31.6714063,278.166234 L31.6714063,266.936368 C31.6714063,264.899922 30.0059436,263.233229 27.9703002,263.233229 C25.9346569,263.233229 24.2698939,264.899922 24.2698939,266.936368 L24.2698939,278.166234 C24.2698939,280.20338 25.9346569,281.870073 27.9703002,281.870073" id="Fill-173" fill="#FF77CA"></path>
                    <path d="M18.8869503,281.969234 L18.8869503,281.969234 C20.7903363,281.969234 22.3473341,280.410386 22.3473341,278.506295 L22.3473341,258.776997 C22.3473341,256.872206 20.7903363,255.314059 18.8869503,255.314059 C16.9835643,255.314059 15.4265666,256.872206 15.4265666,258.776997 L15.4265666,278.506295 C15.4265666,280.410386 16.9835643,281.969234 18.8869503,281.969234" id="Fill-174" fill="#FF77CA"></path>
                    <path d="M11.9660429,279.921373 L11.9660429,279.921373 C13.8694289,279.921373 15.4264266,278.363226 15.4264266,276.458434 L15.4264266,255.634582 C15.4264266,253.72979 13.8694289,252.171643 11.9660429,252.171643 C10.0626569,252.171643 8.50565914,253.72979 8.50565914,255.634582 L8.50565914,276.458434 C8.50565914,278.363226 10.0626569,279.921373 11.9660429,279.921373" id="Fill-175" fill="#FF77CA"></path>
                    <path d="M6.29577201,274.78684 L6.29577201,274.78684 C7.9710316,274.520729 9.12425959,272.931069 8.8576456,271.255272 L6.67784876,257.512062 C6.41193454,255.835565 4.82344695,254.682186 3.14818736,254.947596 C1.47362754,255.213707 0.320399549,256.803367 0.58631377,258.479864 L2.76681038,272.222374 C3.03202483,273.898871 4.62051242,275.05295 6.29577201,274.78684" id="Fill-176" fill="#FF77CA"></path>
                    <path d="M336.624424,199.60367 L336.624424,199.60367 C338.65307,199.768939 340.447991,198.243005 340.613138,196.212861 L341.53544,181.93813 C341.700587,179.907986 339.031648,180.044543 338.134537,180.328161 C336.772777,180.757439 334.951264,182.235053 334.601377,184.362537 L333.236117,195.612012 C333.070971,197.642155 334.595779,199.438402 336.624424,199.60367" id="Fill-177" fill="#FF77CA"></path>
                    <path d="M337.551765,205.947326 L337.551765,205.947326 C338.933819,204.637782 338.994,202.434667 337.684722,201.051592 L329.440682,192.338571 C328.132804,190.955497 325.931314,190.895272 324.54926,192.204816 C323.167205,193.51436 323.107025,195.717475 324.415603,197.10055 L332.659643,205.813571 C333.968221,207.196645 336.169011,207.25687 337.551765,205.947326" id="Fill-178" fill="#FF77CA"></path>
                    <path d="M332.929406,210.978287 L332.929406,210.978287 C334.31146,209.668742 334.371641,207.465627 333.063063,206.082552 L321.208887,193.553646 C319.900309,192.171272 317.698819,192.111047 316.317465,193.419891 C314.934711,194.729435 314.87453,196.93255 316.183108,198.315625 L328.037984,210.844531 C329.345862,212.227606 331.547352,212.287831 332.929406,210.978287" id="Fill-179" fill="#FF77CA"></path>
                    <path d="M326.736684,213.880012 L326.736684,213.880012 C327.968986,212.712627 328.022169,210.749712 326.856345,209.517199 L316.82788,198.918295 C315.662056,197.685783 313.699889,197.631861 312.467587,198.798546 C311.236684,199.965931 311.182801,201.929547 312.348625,203.162059 L322.37779,213.760963 C323.543614,214.993475 325.505081,215.047397 326.736684,213.880012" id="Fill-180" fill="#FF77CA"></path>
                    <line x1="15.4266366" y1="259.998655" x2="15.4266366" y2="275.884056" id="Stroke-182" stroke="#DB1A89" stroke-width="1.4" stroke-linecap="round"></line>
                    <line x1="319.130698" y1="201.078833" x2="326.979366" y2="209.401091" id="Stroke-185" stroke="#DB1A89" stroke-width="1.4" stroke-linecap="round"></line>
                    <line x1="325.16765" y1="196.59431" x2="332.879163" y2="205.701594" id="Stroke-188" stroke="#DB1A89" stroke-width="1.4" stroke-linecap="round"></line>
                    <path d="M161.325792,147.651183 C161.325792,147.651183 159.025634,148.282846 155.25735,148.526547 C149.982451,148.867589 148.116853,150.344502 148.116853,150.344502 L154.414822,140.443088 L160.839449,141.726722 L161.325792,147.651183 Z" id="Fill-190" fill="#25003F"></path>
                    <polygon id="Fill-191" fill="#272636" points="134.304989 619.916916 168.540045 619.916916 168.540045 610.473492 134.304989 610.473492"></polygon>
                    <polygon id="Fill-192" fill="#272636" points="255.442352 600.358559 220.321381 615.457533 219.824542 604.035787 255.592804 588.658797"></polygon>
                    <path d="M201.29053,184.551196 L179.192359,184.551196 L179.192359,124.934724 L222.24947,124.934724 L222.24947,163.576781 C222.24947,175.160994 212.865497,184.551196 201.29053,184.551196" id="Fill-193" fill="#25003F"></path>
                    <path d="M314.123673,205.701804 C314.123673,205.701804 312.552679,203.225575 314.610716,201.198933 C316.440625,199.399185 319.529429,201.249354 319.529429,201.249354 C319.529429,201.249354 317.474892,198.394968 319.519632,196.300398 C321.935253,193.825569 325.32216,196.516087 325.32216,196.516087 C325.32216,196.516087 322.325727,193.759742 324.627984,191.591641 C326.837172,189.511077 329.349361,192.384371 329.349361,192.384371" id="Stroke-194" stroke="#DB1A89" stroke-width="1.4" stroke-linecap="round"></path>
                    <path d="M320.354673,189.111981 C320.821422,185.664448 319.683589,181.929096 319.683589,181.929096" id="Stroke-195" stroke="#DB1A89" stroke-width="1.4" stroke-linecap="round"></path>
                    <polygon id="Fill-196" fill="#F38C01" points="212.033465 218.632607 205.214865 208.397154 208.999944 231.176219"></polygon>
                    <g id="Group-189" transform="translate(324.586907, 192.911736)" fill="#D4D2DC">
                        <line x1="0.580742664" y1="0.682573618" x2="8.29225508" y2="9.78985781" id="Fill-187"></line>
                    </g>
                    <g id="Group-186" transform="translate(318.988713, 197.813773)" fill="#D4D2DC">
                        <line x1="0.141984199" y1="0.265060136" x2="7.99065237" y2="8.58731814" id="Fill-184"></line>
                    </g>
                </g>
            </g>
        </g>
    </g>
</svg>